SplineFontDB: 3.0
FontName: Bevan
FullName: Bevan
FamilyName: Bevan
Weight: Book
Copyright: Copyright (c) 2011 by vernon adams. All rights reserved.
Version: 1.000
ItalicAngle: 0
UnderlinePosition: -205
UnderlineWidth: 102
Ascent: 1638
Descent: 410
LayerCount: 2
Layer: 0 0 "Back"  1
Layer: 1 0 "Fore"  0
NeedsXUIDChange: 1
XUID: [1021 823 301787212 14470943]
FSType: 0
OS2Version: 3
OS2_WeightWidthSlopeOnly: 0
OS2_UseTypoMetrics: 1
CreationTime: 1297990544
ModificationTime: 1313958446
PfmFamily: 17
TTFWeight: 400
TTFWidth: 5
LineGap: 0
VLineGap: 0
Panose: 2 0 0 0 0 0 0 0 0 0
OS2TypoAscent: 727
OS2TypoAOffset: 1
OS2TypoDescent: -515
OS2TypoDOffset: 1
OS2TypoLinegap: 0
OS2WinAscent: -20
OS2WinAOffset: 1
OS2WinDescent: 2
OS2WinDOffset: 1
HheadAscent: -20
HheadAOffset: 1
HheadDescent: -2
HheadDOffset: 1
OS2SubXSize: 1434
OS2SubYSize: 1331
OS2SubXOff: 0
OS2SubYOff: 287
OS2SupXSize: 1434
OS2SupYSize: 1331
OS2SupXOff: 0
OS2SupYOff: 977
OS2StrikeYSize: 102
OS2StrikeYPos: 512
OS2Vendor: 'newt'
OS2CodePages: 20000093.00000000
OS2UnicodeRanges: a00000af.5000204b.00000000.00000000
Lookup: 258 0 0 "'kern' Horizontal Kerning in Latin lookup 0"  {"'kern' Horizontal Kerning in Latin lookup 0 per glyph data 0"  "'kern' Horizontal Kerning in Latin lookup 0 per glyph data 1"  "'kern' Horizontal Kerning in Latin lookup 0 kerning class 2"  } ['kern' ('latn' <'dflt' > ) ]
MarkAttachClasses: 1
DEI: 91125
KernClass2: 32+ 34 "'kern' Horizontal Kerning in Latin lookup 0 kerning class 2" 
 50 A Agrave Aacute Acircumflex Atilde Adieresis Aring
 10 C Ccedilla
 59 D O Q Eth Ograve Oacute Ocircumflex Otilde Odieresis Oslash
 43 E AE Egrave Eacute Ecircumflex Edieresis OE
 41 H I M Igrave Iacute Icircumflex Idieresis
 8 L Lslash
 8 N Ntilde
 21 S Scaron Scommaaccent
 22 T Tcommaaccent uni021A
 37 U Ugrave Uacute Ucircumflex Udieresis
 18 Y Yacute Ydieresis
 8 Z Zcaron
 50 a agrave aacute acircumflex atilde adieresis aring
 9 b p thorn
 10 c ccedilla
 18 d l lslash uniFB02

StartChar: exclam
Encoding: 33 33 4
Width: 802
GlyphClass: 2
Flags: HW
LayerCount: 2
Fore
SplineSet
610 558 m 1
 189 556 l 1
 107 1331 l 1
 107 1630 l 1
 694 1630 l 1
 694 1331 l 1
 610 558 l 1
399 463 m 0
 319.666666667 463 253.666666667 440.5 201 395.5 c 128
 148.333333333 350.5 122 289.666666667 122 213 c 0
 122 137.666666667 147.833333333 78 199.5 34 c 128
 251.166666667 -10 317.666666667 -32 399 -32 c 0
 483.666666667 -32 552.666666667 -10 606 34 c 128
 659.333333333 78 686 137.666666667 686 213 c 0
 686 289.666666667 658.5 350.5 603.5 395.5 c 128
 548.5 440.5 480.333333333 463 399 463 c 0
EndSplineSet
EndChar

StartChar: quotedbl
Encoding: 34 34 5
Width: 1147
GlyphClass: 2
Flags: HW
LayerCount: 2
Fore
SplineSet
44 1624 m 1
 524 1624 l 1
 424 945 l 1
 124 945 l 1
 44 1624 l 1
631 1624 m 1
 1111 1624 l 1
 1011 945 l 1
 711 945 l 1
 631 1624 l 1
EndSplineSet
EndChar

StartChar: numbersign
Encoding: 35 35 6
Width: 1413
GlyphClass: 2
Flags: HW
LayerCount: 2
Fore
SplineSet
409 1246 m 1
 493 1623 l 1
 817 1623 l 1
 730 1246 l 1
 888 1246 l 1
 972 1623 l 1
 1296 1623 l 1
 1209 1246 l 1
 1349 1246 l 1
 1286 947 l 1
 1141 947 l 1
 1058 585 l 1
 1202 585 l 1
 1139 286 l 1
 989 286 l 1
 924 0 l 1
 611 0 l 1
 674 286 l 1
 510 286 l 1
 445 0 l 1
 132 0 l 1
 195 286 l 1
 59 286 l 1
 122 585 l 1
 262 585 l 1
 342 947 l 1
 206 947 l 1
 269 1246 l 1
 409 1246 l 1
579 585 m 1
 741 585 l 1
 821 947 l 1
 662 947 l 1
 579 585 l 1
EndSplineSet
EndChar

StartChar: dollar
Encoding: 36 36 7
Width: 1358
GlyphClass: 2
Flags: HW
LayerCount: 2
Fore
SplineSet
95 545 m 1
 342 545 l 1
 346.666666667 488.333333333 376.166666667 433 430.5 379 c 128
 484.833333333 325 536.333333333 298 585 298 c 1
 585 586 l 1
 541 598 503.333333333 609 472 619 c 128
 440.666666667 629 406.5 641.666666667 369.5 657 c 128
 332.5 672.333333333 301.333333333 688.166666667 276 704.5 c 128
 250.666666667 720.833333333 225.333333333 740.666666667 200 764 c 128
 174.666666667 787.333333333 154.5 812.5 139.5 839.5 c 128
 124.5 866.5 112.333333333 898.166666667 103 934.5 c 128
 93.6666666667 970.833333333 89 1010.33333333 89 1053 c 0
 89 1191 134.833333333 1300.16666667 226.5 1380.5 c 128
 318.166666667 1460.83333333 439.666666667 1505 591 1513 c 1
 591 1704 l 1
 818 1704 l 1
 818 1494 l 1
 852.666666667 1482 900.666666667 1462 962 1434 c 1
 978 1450 l 1
 1005 1477 l 1
 1162 1477 l 2
 1163.33333333 1477 1166.33333333 1476.33333333 1171 1475 c 128
 1175.66666667 1473.66666667 1178.33333333 1473 1179 1473 c 0
 1180 1472 1180 1472 1181.5 1470.5 c 128
 1183 1469 1183 1469 1184 1468 c 128
 1184.66666667 1467.33333333 1185 1466.66666667 1185 1466 c 2
 1185 1040 l 1
 1179 1034 l 1
 1058 1030 l 2
 1057.33333333 1030 1048.83333333 1029.66666667 1032.5 1029 c 128
 1016.16666667 1028.33333333 1005.66666667 1028 1001 1028 c 0
 993.666666667 1028 981.333333333 1028.66666667 964 1030 c 1
 954 1040 l 1
 938.666666667 1104 903 1162 847 1214 c 1
 840.333333333 1221.33333333 833.666666667 1225 827 1225 c 0
 819.666666667 1225 816 1223 816 1219 c 2
 816 991 l 1
 870.666666667 976.333333333 919.5 960.666666667 962.5 944 c 128
 1005.5 927.333333333 1048 905.833333333 1090 879.5 c 128
 1132 853.166666667 1167.16666667 823.666666667 1195.5 791 c 128
 1223.83333333 758.333333333 1247 718.833333333 1265 672.5 c 128
 1283 626.166666667 1292.66666667 574.666666667 1294 518 c 0
 1296 433.333333333 1275.66666667 354.5 1233 281.5 c 128
 1190.33333333 208.5 1132 150.166666667 1058 106.5 c 128
 984 62.8333333333 903.333333333 39 816 35 c 1
 816 -166 l 1
 585 -166 l 1
 585 48 l 1
 492.333333333 66.6666666667 408.666666667 93.3333333333 334 128 c 1
 290 66 l 1
 95 66 l 1
 95 545 l 1
916 399 m 1
 919.333333333 427 912.666666667 454 896 480 c 128
 879.333333333 506 852.666666667 521.666666667 816 527 c 1
 816 307 l 1
 840.666666667 307 863.5 316.666666667 884.5 336 c 128
 905.5 355.333333333 916 376.333333333 916 399 c 1
475 1180 m 0
 475 1150.66666667 485.5 1125 506.5 1103 c 128
 527.5 1081 555 1066.33333333 589 1059 c 1
 589 1270 l 1
 560.333333333 1271.33333333 534.166666667 1262.83333333 510.5 1244.5 c 128
 486.833333333 1226.16666667 475 1204.66666667 475 1180 c 0
EndSplineSet
EndChar

StartChar: percent
Encoding: 37 37 8
Width: 2728
GlyphClass: 2
Flags: HW
LayerCount: 2
Fore
SplineSet
1675 521 m 0
 1675 626.333333333 1694.66666667 722.333333333 1734 809 c 128
 1773.33333333 895.666666667 1831 965.166666667 1907 1017.5 c 128
 1983 1069.83333333 2070.33333333 1096 2169 1096 c 0
 2331 1096 2455 1046.66666667 2541 948 c 128
 2627 849.333333333 2670 718.333333333 2670 555 c 0
 2670 479.666666667 2660 408.333333333 2640 341 c 128
 2620 273.666666667 2591 213 2553 159 c 128
 2515 105 2465 62 2403 30 c 128
 2341 -2 2271 -18 2193 -18 c 0
 2029 -18 1901.66666667 30.5 1811 127.5 c 128
 1720.33333333 224.5 1675 355.666666667 1675 521 c 0
2175 755 m 1
 2137.66666667 753 2111 732.333333333 2095 693 c 1
 2084.33333333 665 2079 614 2079 540 c 0
 2079 401.333333333 2110 332 2172 332 c 0
 2186.66666667 332 2199.66666667 334.666666667 2211 340 c 128
 2222.33333333 345.333333333 2231.33333333 353 2238 363 c 128
 2244.66666667 373 2250.33333333 383.5 2255 394.5 c 128
 2259.66666667 405.5 2262.83333333 418.666666667 2264.5 434 c 128
 2266.16666667 449.333333333 2267.33333333 462.666666667 2268 474 c 128
 2268.66666667 485.333333333 2269 498.333333333 2269 513 c 2
 2269 540 l 1
 2269.66666667 557.333333333 2269.83333333 570.833333333 2269.5 580.5 c 128
 2269.16666667 590.166666667 2268.33333333 604.666666667 2267 624 c 128
 2265.66666667 643.333333333 2262.83333333 659.166666667 2258.5 671.5 c 128
 2254.16666667 683.833333333 2248.66666667 696.833333333 2242 710.5 c 128
 2235.33333333 724.166666667 2226.33333333 734.666666667 2215 742 c 128
 2203.66666667 749.333333333 2190.33333333 753.666666667 2175 755 c 1
938 0 m 1
 1279 1623 l 1
 1783 1623 l 1
 1441 0 l 1
 938 0 l 1
56 1078 m 0
 56 1183.33333333 75.6666666667 1279.33333333 115 1366 c 128
 154.333333333 1452.66666667 212 1522.16666667 288 1574.5 c 128
 364 1626.83333333 451.333333333 1653 550 1653 c 0
 712 1653 836 1603.66666667 922 1505 c 128
 1008 1406.33333333 1051 1275.33333333 1051 1112 c 0
 1051 1036.66666667 1041 965.333333333 1021 898 c 128
 1001 830.666666667 972 770 934 716 c 128
 896 662 846 619 784 587 c 128
 722 555 652 539 574 539 c 0
 410 539 282.666666667 587.5 192 684.5 c 128
 101.333333333 781.5 56 912.666666667 56 1078 c 0
556 1312 m 1
 518 1310.66666667 491.333333333 1290 476 1250 c 0
 465.333333333 1222 460 1171 460 1097 c 0
 460 958.333333333 491 889 553 889 c 0
 567.666666667 889 580.666666667 891.666666667 592 897 c 128
 603.333333333 902.333333333 612.333333333 910 619 920 c 128
 625.666666667 930 631.333333333 940.5 636 951.5 c 128
 640.666666667 962.5 643.833333333 975.666666667 645.5 991 c 128
 647.166666667 1006.33333333 648.333333333 1019.66666667 649 1031 c 128
 649.666666667 1042.33333333 650 1055.33333333 650 1070 c 2
 651 1096 l 1
 651 1114 650.833333333 1127.83333333 650.5 1137.5 c 128
 650.166666667 1147.16666667 649.333333333 1161.66666667 648 1181 c 128
 646.666666667 1200.33333333 643.833333333 1216.16666667 639.5 1228.5 c 128
 635.166666667 1240.83333333 629.666666667 1253.83333333 623 1267.5 c 128
 616.333333333 1281.16666667 607.333333333 1291.66666667 596 1299 c 128
 584.666666667 1306.33333333 571.333333333 1310.66666667 556 1312 c 1
EndSplineSet
EndChar

StartChar: ampersand
Encoding: 38 38 9
Width: 1728
GlyphClass: 2
Flags: HW
LayerCount: 2
Fore
SplineSet
1117 0 m 1
 1084.33333333 32.6666666667 1026.66666667 93.6666666667 944 183 c 1
 820.666666667 47 667 -23 483 -27 c 1
 353.666666667 -25.6666666667 246.5 10.6666666667 161.5 82 c 128
 76.5 153.333333333 32.6666666667 252.666666667 30 380 c 1
 32 482.666666667 58.8333333333 568.666666667 110.5 638 c 128
 162.166666667 707.333333333 240 764.333333333 344 809 c 1
 266.666666667 893.666666667 227 994.333333333 225 1111 c 1
 225 1175 237.833333333 1232.83333333 263.5 1284.5 c 128
 289.166666667 1336.16666667 324 1378.66666667 368 1412 c 128
 412 1445.33333333 463 1470.83333333 521 1488.5 c 128
 579 1506.16666667 640.666666667 1515 706 1515 c 0
 757.333333333 1515 808 1507.33333333 858 1492 c 128
 908 1476.66666667 953.333333333 1454.83333333 994 1426.5 c 128
 1034.66666667 1398.16666667 1067.5 1361.5 1092.5 1316.5 c 128
 1117.5 1271.5 1130 1222.33333333 1130 1169 c 0
 1130 1128.33333333 1127.33333333 1093.83333333 1122 1065.5 c 128
 1116.66666667 1037.16666667 1106.33333333 1010.33333333 1091 985 c 128
 1075.66666667 959.666666667 1059 937.666666667 1041 919 c 128
 1023 900.333333333 996.333333333 875.333333333 961 844 c 1
 1140 669 l 1
 1167 693 l 2
 1184.33333333 709 1202 727.5 1220 748.5 c 128
 1238 769.5 1247 785.333333333 1247 796 c 0
 1247 819.333333333 1238 831 1220 831 c 2
 1173 831 l 1
 1173 1126 l 1
 1656 1126 l 1
 1656 837 l 1
 1609.33333333 821 1573.66666667 804.166666667 1549 786.5 c 128
 1524.33333333 768.833333333 1490.66666667 738 1448 694 c 2
 1278 518 l 1
 1281.33333333 516.666666667 1330.66666667 466.666666667 1426 368 c 1
 1656 368 l 1
 1656 0 l 1
 1117 0 l 1
487 487 m 0
 487 443 501.666666667 406.666666667 531 378 c 128
 560.333333333 349.333333333 597 335 641 335 c 0
 682.333333333 335 720.333333333 348.333333333 755 375 c 1
 548 589 l 1
 541 584 l 2
 537 581.333333333 532 576.833333333 526 570.5 c 128
 520 564.166666667 514.166666667 557 508.5 549 c 128
 502.833333333 541 497.833333333 531.5 493.5 520.5 c 128
 489.166666667 509.5 487 498.333333333 487 487 c 0
678 1175 m 0
 678 1155 684 1135.16666667 696 1115.5 c 128
 708 1095.83333333 720.333333333 1080 733 1068 c 128
 745.666666667 1056 762.666666667 1041.66666667 784 1025 c 1
 816 1047 839.333333333 1066.83333333 854 1084.5 c 128
 868.666666667 1102.16666667 876 1124.66666667 876 1152 c 0
 876 1186 867.166666667 1214.66666667 849.5 1238 c 128
 831.833333333 1261.33333333 806 1273 772 1273 c 0
 746 1273 723.833333333 1263.16666667 705.5 1243.5 c 128
 687.166666667 1223.83333333 678 1201 678 1175 c 0
EndSplineSet
EndChar

StartChar: quotesingle
Encoding: 39 39 10
Width: 559
GlyphClass: 2
Flags: HW
LayerCount: 2
Fore
SplineSet
44 1624 m 1
 524 1624 l 1
 424 945 l 1
 124 945 l 1
 44 1624 l 1
EndSplineSet
EndChar

StartChar: parenleft
Encoding: 40 40 11
Width: 966
GlyphClass: 2
Flags: HW
LayerCount: 2
Fore
SplineSet
912 1321 m 1
 860.666666667 1319.66666667 815 1312.16666667 775 1298.5 c 128
 735 1284.83333333 702.333333333 1265.16666667 677 1239.5 c 128
 651.666666667 1213.83333333 630.5 1186.16666667 613.5 1156.5 c 128
 596.5 1126.83333333 583.833333333 1091.83333333 575.5 1051.5 c 128
 567.166666667 1011.16666667 561.5 973.5 558.5 938.5 c 128
 555.5 903.5 554 864 554 820 c 0
 554 768 556.833333333 719.666666667 562.5 675 c 128
 568.166666667 630.333333333 578.833333333 585.166666667 594.5 539.5 c 128
 610.166666667 493.833333333 630.666666667 455 656 423 c 128
 681.333333333 391 715.333333333 364.833333333 758 344.5 c 128
 800.666666667 324.166666667 850 314 906 314 c 1
 906 -17 l 1
 790.666666667 -17 685.5 -2 590.5 28 c 128
 495.5 58 415 99 349 151 c 128
 283 203 227.166666667 264.5 181.5 335.5 c 128
 135.833333333 406.5 102.5 482.5 81.5 563.5 c 128
 60.5 644.5 50 729.666666667 50 819 c 0
 50 957 66 1076.83333333 98 1178.5 c 128
 130 1280.16666667 180.166666667 1366.83333333 248.5 1438.5 c 128
 316.833333333 1510.16666667 406.166666667 1563.83333333 516.5 1599.5 c 128
 626.833333333 1635.16666667 758.666666667 1653 912 1653 c 1
 912 1321 l 1
EndSplineSet
EndChar

StartChar: parenright
Encoding: 41 41 12
Width: 966
GlyphClass: 2
Flags: HW
LayerCount: 2
Fore
SplineSet
54 1653 m 1
 207.333333333 1653 339.166666667 1635.16666667 449.5 1599.5 c 128
 559.833333333 1563.83333333 649.166666667 1510.16666667 717.5 1438.5 c 128
 785.833333333 1366.83333333 836 1280.16666667 868 1178.5 c 128
 900 1076.83333333 916 957 916 819 c 0
 916 729.666666667 905.5 644.5 884.5 563.5 c 128
 863.5 482.5 830.166666667 406.5 784.5 335.5 c 128
 738.833333333 264.5 683 203 617 151 c 128
 551 99 470.5 58 375.5 28 c 128
 280.5 -2 175.333333333 -17 60 -17 c 1
 60 314 l 1
 116 314 165.333333333 324.166666667 208 344.5 c 128
 250.666666667 364.833333333 284.666666667 391 310 423 c 128
 335.333333333 455 355.833333333 493.833333333 371.5 539.5 c 128
 387.166666667 585.166666667 397.833333333 630.333333333 403.5 675 c 128
 409.166666667 719.666666667 412 768 412 820 c 0
 412 864 410.5 903.5 407.5 938.5 c 128
 404.5 973.5 398.833333333 1011.16666667 390.5 1051.5 c 128
 382.166666667 1091.83333333 369.5 1126.83333333 352.5 1156.5 c 128
 335.5 1186.16666667 314.333333333 1213.83333333 289 1239.5 c 128
 263.666666667 1265.16666667 231 1284.83333333 191 1298.5 c 128
 151 1312.16666667 105.333333333 1319.66666667 54 1321 c 1
 54 1653 l 1
EndSplineSet
EndChar

StartChar: asterisk
Encoding: 42 42 13
Width: 1347
GlyphClass: 2
Flags: HW
LayerCount: 2
Fore
SplineSet
98 1328 m 1
 121.333333333 1364.66666667 154.166666667 1387.33333333 196.5 1396 c 128
 238.833333333 1404.66666667 285.666666667 1394 337 1364 c 1
 359 1349.33333333 383.333333333 1329.16666667 410 1303.5 c 128
 436.666666667 1277.83333333 457.666666667 1256.5 473 1239.5 c 128
 488.333333333 1222.5 512.166666667 1194.66666667 544.5 1156 c 128
 576.833333333 1117.33333333 596.333333333 1094 603 1086 c 1
 599.666666667 1096.66666667 591 1125.83333333 577 1173.5 c 128
 563 1221.16666667 553 1256.33333333 547 1279 c 128
 541 1301.66666667 534.666666667 1331 528 1367 c 128
 521.333333333 1403 518 1434.33333333 518 1461 c 0
 518 1517 534 1561 566 1593 c 128
 598 1625 635.666666667 1641 679 1641 c 128
 722.333333333 1641 760 1625 792 1593 c 128
 824 1561 840 1517 840 1461 c 0
 840 1439.66666667 838.333333333 1416.66666667 835 1392 c 128
 831.666666667 1367.33333333 826.333333333 1340.5 819 1311.5 c 128
 811.666666667 1282.5 805.166666667 1258 799.5 1238 c 128
 793.833333333 1218 785.833333333 1190.83333333 775.5 1156.5 c 128
 765.166666667 1122.16666667 758 1098.66666667 754 1086 c 1
 764 1097.33333333 784 1120.83333333 814 1156.5 c 128
 844 1192.16666667 867.333333333 1219.5 884 1238.5 c 128
 900.666666667 1257.5 922.166666667 1279.5 948.5 1304.5 c 128
 974.833333333 1329.5 999 1349.33333333 1021 1364 c 1
 1072.33333333 1394 1119.16666667 1404.66666667 1161.5 1396 c 128
 1203.83333333 1387.33333333 1236.66666667 1364.66666667 1260 1328 c 1
 1275.33333333 1305.33333333 1284.16666667 1280.33333333 1286.5 1253 c 128
 1288.83333333 1225.66666667 1282.66666667 1197.66666667 1268 1169 c 128
 1253.33333333 1140.33333333 1230.33333333 1115.66666667 1199 1095 c 0
 1167 1073.66666667 1128.16666667 1054.33333333 1082.5 1037 c 128
 1036.83333333 1019.66666667 982.333333333 1001.66666667 919 983 c 128
 855.666666667 964.333333333 814.333333333 951.666666667 795 945 c 1
 817 937 858.833333333 924 920.5 906 c 128
 982.166666667 888 1036 870.166666667 1082 852.5 c 128
 1128 834.833333333 1167 815.666666667 1199 795 c 0
 1230.33333333 774.333333333 1253.33333333 749.666666667 1268 721 c 128
 1282.66666667 692.333333333 1288.83333333 664.333333333 1286.5 637 c 128
 1284.16666667 609.666666667 1275.33333333 584.666666667 1260 562 c 1
 1236.66666667 525.333333333 1203.83333333 502.666666667 1161.5 494 c 128
 1119.16666667 485.333333333 1072.33333333 496 1021 526 c 1
 999 540.666666667 974.666666667 560.666666667 948 586 c 128
 921.333333333 611.333333333 900.166666667 632.833333333 884.5 650.5 c 128
 868.833333333 668.166666667 845.166666667 695.833333333 813.5 733.5 c 128
 781.833333333 771.166666667 762 794.666666667 754 804 c 1
 756.666666667 795.333333333 765.5 766.166666667 780.5 716.5 c 128
 795.5 666.833333333 805.833333333 631.333333333 811.5 610 c 128
 817.166666667 588.666666667 823.333333333 559.833333333 830 523.5 c 128
 836.666666667 487.166666667 840 455.666666667 840 429 c 0
 840 373 824 329 792 297 c 128
 760 265 722.333333333 249 679 249 c 128
 635.666666667 249 598 265 566 297 c 128
 534 329 518 373 518 429 c 0
 518 455.666666667 521.333333333 486.833333333 528 522.5 c 128
 534.666666667 558.166666667 541 587.833333333 547 611.5 c 128
 553 635.166666667 562.833333333 669.833333333 576.5 715.5 c 128
 590.166666667 761.166666667 599 790.666666667 603 804 c 1
 599.666666667 800 580.333333333 776.833333333 545 734.5 c 128
 509.666666667 692.166666667 485.333333333 663.5 472 648.5 c 128
 458.666666667 633.5 438.333333333 613 411 587 c 128
 383.666666667 561 359 540.666666667 337 526 c 1
 285.666666667 496 238.833333333 485.333333333 196.5 494 c 128
 154.166666667 502.666666667 121.333333333 525.333333333 98 562 c 1
 82.6666666667 584.666666667 73.8333333333 609.666666667 71.5 637 c 128
 69.1666666667 664.333333333 75.3333333333 692.333333333 90 721 c 128
 104.666666667 749.666666667 127.666666667 774.333333333 159 795 c 0
 191 815.666666667 230 834.833333333 276 852.5 c 128
 322 870.166666667 375.833333333 888.166666667 437.5 906.5 c 128
 499.166666667 924.833333333 540.666666667 937.666666667 562 945 c 1
 542.666666667 951.666666667 501.333333333 964.333333333 438 983 c 128
 374.666666667 1001.66666667 320.333333333 1019.66666667 275 1037 c 128
 229.666666667 1054.33333333 191 1073.66666667 159 1095 c 0
 127.666666667 1115.66666667 104.666666667 1140.33333333 90 1169 c 128
 75.3333333333 1197.66666667 69.1666666667 1225.66666667 71.5 1253 c 128
 73.8333333333 1280.33333333 82.6666666667 1305.33333333 98 1328 c 1
EndSplineSet
EndChar

StartChar: plus
Encoding: 43 43 14
Width: 910
GlyphClass: 2
Flags: HW
LayerCount: 2
Fore
SplineSet
59 762 m 1
 331 762 l 1
 331 1051 l 1
 586 1051 l 1
 586 762 l 1
 851 762 l 1
 851 517 l 1
 586 517 l 1
 586 238 l 1
 331 238 l 1
 331 517 l 1
 59 517 l 1
 59 762 l 1
EndSplineSet
EndChar

StartChar: comma
Encoding: 44 44 15
Width: 716
GlyphClass: 2
Flags: HW
LayerCount: 2
Fore
SplineSet
95 -223 m 1
 125 -223 151 -220.833333333 173 -216.5 c 128
 195 -212.166666667 212.833333333 -204.833333333 226.5 -194.5 c 128
 240.166666667 -184.166666667 251 -173.666666667 259 -163 c 128
 267 -152.333333333 272.833333333 -137 276.5 -117 c 128
 280.166666667 -97 282.333333333 -79.5 283 -64.5 c 128
 283.666666667 -49.5 284 -28 284 0 c 1
 95 0 l 1
 95 366 l 1
 605 366 l 1
 621 263.333333333 629 171 629 89 c 0
 629 -96.3333333333 585.666666667 -232.166666667 499 -318.5 c 128
 412.333333333 -404.833333333 277.666666667 -448 95 -448 c 1
 95 -223 l 1
EndSplineSet
EndChar

StartChar: hyphen
Encoding: 45 45 16
Width: 838
GlyphClass: 2
Flags: HW
LayerCount: 2
Fore
SplineSet
742 836 m 1
 742 537 l 1
 95 537 l 1
 95 836 l 1
 742 836 l 1
EndSplineSet
EndChar

StartChar: period
Encoding: 46 46 17
Width: 678
GlyphClass: 2
Flags: HW
LayerCount: 2
Fore
SplineSet
335 -27 m 0
 255.666666667 -27 189.666666667 -4.5 137 40.5 c 128
 84.3333333333 85.5 58 146.333333333 58 223 c 0
 58 298.333333333 83.8333333333 358 135.5 402 c 128
 187.166666667 446 253.666666667 468 335 468 c 0
 419.666666667 468 488.666666667 446 542 402 c 128
 595.333333333 358 622 298.333333333 622 223 c 0
 622 146.333333333 594.5 85.5 539.5 40.5 c 128
 484.5 -4.5 416.333333333 -27 335 -27 c 0
EndSplineSet
EndChar

StartChar: slash
Encoding: 47 47 18
Width: 954
GlyphClass: 2
Flags: HW
LayerCount: 2
Fore
SplineSet
52 0 m 1
 543 1623 l 1
 907 1623 l 1
 405 0 l 1
 52 0 l 1
EndSplineSet
EndChar

StartChar: zero
Encoding: 48 48 19
Width: 1370
GlyphClass: 2
Flags: HW
LayerCount: 2
Fore
SplineSet
68 695 m 0
 68 789.666666667 82.5 877.833333333 111.5 959.5 c 128
 140.5 1041.16666667 181.333333333 1111.83333333 234 1171.5 c 128
 286.666666667 1231.16666667 351.833333333 1278.16666667 429.5 1312.5 c 128
 507.166666667 1346.83333333 592.666666667 1364.33333333 686 1365 c 1
 778 1364.33333333 862.833333333 1346.83333333 940.5 1312.5 c 128
 1018.16666667 1278.16666667 1083.33333333 1231.16666667 1136 1171.5 c 128
 1188.66666667 1111.83333333 1229.5 1041.16666667 1258.5 959.5 c 128
 1287.5 877.833333333 1302 789.666666667 1302 695 c 0
 1302 551 1279.83333333 425.666666667 1235.5 319 c 128
 1191.16666667 212.333333333 1122.16666667 128 1028.5 66 c 128
 934.833333333 4 820.666666667 -26.6666666667 686 -26 c 1
 550 -26.6666666667 435.166666667 4 341.5 66 c 128
 247.833333333 128 178.833333333 212.333333333 134.5 319 c 128
 90.1666666667 425.666666667 68 551 68 695 c 0
685 349 m 0
 714.333333333 349 738.5 359.333333333 757.5 380 c 128
 776.5 400.666666667 790 429.333333333 798 466 c 128
 806 502.666666667 811.166666667 535.833333333 813.5 565.5 c 128
 815.833333333 595.166666667 817 629.666666667 817 669 c 0
 817 678 817 678 817 697 c 0
 817 715 817.166666667 733.5 817.5 752.5 c 128
 817.833333333 771.5 817 790.833333333 815 810.5 c 128
 813 830.166666667 810.666666667 849 808 867 c 128
 805.333333333 885 800.666666667 902 794 918 c 128
 787.333333333 934 779.333333333 948 770 960 c 128
 760.666666667 972 748.833333333 981.333333333 734.5 988 c 128
 720.166666667 994.666666667 703.666666667 998 685 998 c 0
 663.666666667 998 644.833333333 993.5 628.5 984.5 c 128
 612.166666667 975.5 599.5 963.166666667 590.5 947.5 c 128
 581.5 931.833333333 574 913.833333333 568 893.5 c 128
 562 873.166666667 558.333333333 851.833333333 557 829.5 c 128
 555.666666667 807.166666667 554.333333333 784.666666667 553 762 c 128
 551.666666667 739.333333333 551.666666667 717.666666667 553 697 c 1
 553 678 553 678 553 669 c 0
 553 638.333333333 553.5 611.333333333 554.5 588 c 128
 555.5 564.666666667 558.666666667 537 564 505 c 128
 569.333333333 473 576.333333333 446.5 585 425.5 c 128
 593.666666667 404.5 606.666666667 386.5 624 371.5 c 128
 641.333333333 356.5 661.666666667 349 685 349 c 0
EndSplineSet
EndChar

StartChar: one
Encoding: 49 49 20
Width: 924
GlyphClass: 2
Flags: HW
LayerCount: 2
Fore
SplineSet
137 0 m 1
 136 325 l 1
 226 324 l 1
 226 951 l 1
 62 950 l 1
 62 1208 l 1
 724 1375 l 1
 730 324 l 1
 826 324 l 1
 826 0 l 1
 137 0 l 1
EndSplineSet
EndChar

StartChar: two
Encoding: 50 50 21
Width: 1330
GlyphClass: 2
Flags: HW
LayerCount: 2
Fore
SplineSet
1260 0 m 1
 1260 471 l 1
 1087 471 l 1
 1087 441 1081.33333333 416.166666667 1070 396.5 c 128
 1058.66666667 376.833333333 1042.16666667 362 1020.5 352 c 128
 998.833333333 342 976.5 335 953.5 331 c 128
 930.5 327 903 324.666666667 871 324 c 1
 710 324 l 1
 768 367.333333333 810.666666667 399.5 838 420.5 c 128
 865.333333333 441.5 904 474.333333333 954 519 c 128
 1004 563.666666667 1042.66666667 603.666666667 1070 639 c 0
 1140.66666667 729.666666667 1176 826 1176 928 c 0
 1176 998.666666667 1162.33333333 1062.83333333 1135 1120.5 c 128
 1107.66666667 1178.16666667 1070.16666667 1225.83333333 1022.5 1263.5 c 128
 974.833333333 1301.16666667 919.666666667 1330.5 857 1351.5 c 128
 794.333333333 1372.5 726.666666667 1384.33333333 654 1387 c 0
 600 1389 545.833333333 1384.5 491.5 1373.5 c 128
 437.166666667 1362.5 385.333333333 1344.83333333 336 1320.5 c 128
 286.666666667 1296.16666667 242.833333333 1266.66666667 204.5 1232 c 128
 166.166666667 1197.33333333 135.666666667 1155.66666667 113 1107 c 128
 90.3333333333 1058.33333333 79.3333333333 1006 80 950 c 1
 78 879.333333333 89.5 812.333333333 114.5 749 c 128
 139.5 685.666666667 177.333333333 631.333333333 228 586 c 1
 454 760 l 1
 449.333333333 764.666666667 443.5 770.833333333 436.5 778.5 c 128
 429.5 786.166666667 420.333333333 801.333333333 409 824 c 128
 397.666666667 846.666666667 392 868.333333333 392 889 c 0
 392 930.333333333 403.666666667 964.333333333 427 991 c 128
 450.333333333 1017.66666667 483.666666667 1031 527 1031 c 0
 562.333333333 1031 593.333333333 1015.16666667 620 983.5 c 128
 646.666666667 951.833333333 661.333333333 910.333333333 664 859 c 1
 664 817 658.5 778.5 647.5 743.5 c 128
 636.5 708.5 619 675.333333333 595 644 c 128
 571 612.666666667 548.5 586.666666667 527.5 566 c 128
 506.5 545.333333333 477 519 439 487 c 0
 353 413.666666667 245.666666667 352.333333333 117 303 c 1
 117 0 l 1
 1260 0 l 1
EndSplineSet
EndChar

StartChar: three
Encoding: 51 51 22
Width: 1274
GlyphClass: 2
Flags: HW
LayerCount: 2
Fore
SplineSet
83 424 m 1
 83 78 l 1
 142.333333333 38 209.833333333 12 285.5 0 c 128
 361.166666667 -12 451.666666667 -18 557 -18 c 0
 757 -18 915.166666667 24.6666666667 1031.5 110 c 128
 1147.83333333 195.333333333 1206 316.666666667 1206 474 c 0
 1206 567.333333333 1171.5 651.333333333 1102.5 726 c 128
 1033.5 800.666666667 951 842.333333333 855 851 c 1
 1044.33333333 1007 1139 1086 1139 1088 c 2
 1139 1352 l 1
 70 1352 l 1
 70 899 l 1
 264 898 l 1
 278 951.333333333 290 985.333333333 300 1000 c 0
 319.333333333 1027.33333333 353 1041 401 1041 c 2
 621 1041 l 1
 621 1031 l 1
 279 740 l 1
 279 582 l 1
 279 582 279 582 280 577 c 1
 284 573.666666667 290.666666667 572 300 572 c 0
 304 572 319.666666667 575.333333333 347 582 c 128
 374.333333333 588.666666667 401 592 427 592 c 0
 457 592 485.666666667 589.333333333 513 584 c 128
 540.333333333 578.666666667 566.666666667 570 592 558 c 128
 617.333333333 546 637.666666667 528.5 653 505.5 c 128
 668.333333333 482.5 676 455.333333333 676 424 c 0
 676 396.666666667 669 373.166666667 655 353.5 c 128
 641 333.833333333 622.5 318.666666667 599.5 308 c 128
 576.5 297.333333333 552.833333333 289.666666667 528.5 285 c 128
 504.166666667 280.333333333 479 278 453 278 c 0
 327 278 203.666666667 326.666666667 83 424 c 1
EndSplineSet
EndChar

StartChar: four
Encoding: 52 52 23
Width: 1281
GlyphClass: 2
Flags: HW
LayerCount: 2
Fore
SplineSet
1000 288 m 1
 1122 288 l 1
 1122 0 l 1
 417 0 l 1
 417 288 l 1
 544 288 l 1
 544 420 l 1
 11 419 l 1
 11 688 l 1
 562 1342 l 1
 1001 1341 l 1
 1001 675 l 1
 1228 677 l 1
 1228 420 l 1
 1000 420 l 1
 1000 288 l 1
544 677 m 1
 544 911 l 1
 355 678 l 1
 544 677 l 1
EndSplineSet
EndChar

StartChar: five
Encoding: 53 53 24
Width: 1167
GlyphClass: 2
Flags: HW
LayerCount: 2
Fore
SplineSet
113 75 m 1
 143.666666667 45 195.666666667 22 269 6 c 128
 342.333333333 -10 412 -18 478 -18 c 0
 546 -18 610.5 -11.6666666667 671.5 1 c 128
 732.5 13.6666666667 789.5 34 842.5 62 c 128
 895.5 90 941.166666667 124.333333333 979.5 165 c 128
 1017.83333333 205.666666667 1048 255.666666667 1070 315 c 128
 1092 374.333333333 1103 440.333333333 1103 513 c 0
 1103 635.666666667 1057.16666667 737.666666667 965.5 819 c 128
 873.833333333 900.333333333 761.333333333 941 628 941 c 0
 590.666666667 941 554.5 939.5 519.5 936.5 c 128
 484.5 933.5 458.666666667 930.666666667 442 928 c 2
 417 924 l 1
 417 1063 l 1
 1028 1063 l 1
 1028 1360 l 1
 112 1360 l 1
 112 566 l 1
 124 555 l 1
 181.333333333 597.666666667 240.666666667 619 302 619 c 0
 341.333333333 619 379.333333333 613.666666667 416 603 c 128
 452.666666667 592.333333333 484.833333333 573.333333333 512.5 546 c 128
 540.166666667 518.666666667 554 485.333333333 554 446 c 0
 554 414 545.333333333 386.333333333 528 363 c 128
 510.666666667 339.666666667 488.833333333 322.5 462.5 311.5 c 128
 436.166666667 300.5 411.5 292.666666667 388.5 288 c 128
 365.5 283.333333333 344.333333333 281 325 281 c 0
 302.333333333 281 273.333333333 286.5 238 297.5 c 128
 202.666666667 308.5 173 319.333333333 149 330 c 2
 113 347 l 1
 113 75 l 1
EndSplineSet
EndChar

StartChar: six
Encoding: 54 54 25
Width: 1355
GlyphClass: 2
Flags: HW
LayerCount: 2
Fore
SplineSet
588 1345 m 1
 578.666666667 1335.66666667 560.5 1318 533.5 1292 c 128
 506.5 1266 484.833333333 1245 468.5 1229 c 128
 452.166666667 1213 429.5 1190 400.5 1160 c 128
 371.5 1130 347.333333333 1104.16666667 328 1082.5 c 128
 308.666666667 1060.83333333 285.833333333 1033.83333333 259.5 1001.5 c 128
 233.166666667 969.166666667 211.333333333 939.666666667 194 913 c 128
 176.666666667 886.333333333 158.5 856.166666667 139.5 822.5 c 128
 120.5 788.833333333 105.333333333 757 94 727 c 128
 82.6666666667 697 73.3333333333 665.333333333 66 632 c 128
 58.6666666667 598.666666667 55 566 55 534 c 0
 55 424.666666667 83.1666666667 327.666666667 139.5 243 c 128
 195.833333333 158.333333333 271.333333333 93.6666666667 366 49 c 128
 460.666666667 4.33333333333 566 -18 682 -18 c 0
 790 -18 891.166666667 6 985.5 54 c 128
 1079.83333333 102 1156 169.333333333 1214 256 c 128
 1272 342.666666667 1301.33333333 438.666666667 1302 544 c 0
 1303.33333333 684.666666667 1260.83333333 797.833333333 1174.5 883.5 c 128
 1088.16666667 969.166666667 973 1015.66666667 829 1023 c 1
 835.666666667 1041 863.166666667 1076.16666667 911.5 1128.5 c 128
 959.833333333 1180.83333333 1007.33333333 1229.83333333 1054 1275.5 c 128
 1100.66666667 1321.16666667 1124 1344.33333333 1124 1345 c 1
 588 1345 l 1
571 550 m 0
 571 575.333333333 571.333333333 596 572 612 c 128
 572.666666667 628 575.166666667 647.333333333 579.5 670 c 128
 583.833333333 692.666666667 589.833333333 710.666666667 597.5 724 c 128
 605.166666667 737.333333333 616.666666667 749 632 759 c 128
 647.333333333 769 666 774.333333333 688 775 c 0
 708 775 725.166666667 768.666666667 739.5 756 c 128
 753.833333333 743.333333333 764.166666667 729.333333333 770.5 714 c 128
 776.833333333 698.666666667 781.833333333 678 785.5 652 c 128
 789.166666667 626 791.166666667 606.833333333 791.5 594.5 c 128
 791.833333333 582.166666667 792 565.333333333 792 544 c 0
 792 399.333333333 753.333333333 327 676 327 c 0
 653.333333333 327 634.5 335.166666667 619.5 351.5 c 128
 604.5 367.833333333 593.833333333 389.166666667 587.5 415.5 c 128
 581.166666667 441.833333333 576.833333333 465.333333333 574.5 486 c 128
 572.166666667 506.666666667 571 528 571 550 c 0
EndSplineSet
EndChar

StartChar: seven
Encoding: 55 55 26
Width: 1232
GlyphClass: 2
Flags: HW
LayerCount: 2
Fore
SplineSet
63 878 m 1
 281 878 l 1
 281 934.666666667 291.333333333 972.5 312 991.5 c 128
 332.666666667 1010.5 366 1020 412 1020 c 2
 653 1020 l 1
 148 0 l 1
 680 0 l 1
 1206 1067 l 1
 1206 1337 l 1
 63 1337 l 1
 63 878 l 1
EndSplineSet
EndChar

StartChar: eight
Encoding: 56 56 27
Width: 1322
GlyphClass: 2
Flags: HW
LayerCount: 2
Fore
SplineSet
61 375 m 0
 61 545 148 663.333333333 322 730 c 1
 264 752 218.833333333 787.666666667 186.5 837 c 128
 154.166666667 886.333333333 138 944 138 1010 c 0
 138 1067.33333333 150 1118.33333333 174 1163 c 128
 198 1207.66666667 228.166666667 1243.16666667 264.5 1269.5 c 128
 300.833333333 1295.83333333 343.333333333 1317.33333333 392 1334 c 128
 440.666666667 1350.66666667 486.666666667 1362 530 1368 c 128
 573.333333333 1374 617.333333333 1377.33333333 662 1378 c 1
 705.333333333 1377.33333333 748.666666667 1374 792 1368 c 128
 835.333333333 1362 881.333333333 1350.66666667 930 1334 c 128
 978.666666667 1317.33333333 1021.16666667 1295.83333333 1057.5 1269.5 c 128
 1093.83333333 1243.16666667 1124 1207.66666667 1148 1163 c 128
 1172 1118.33333333 1184 1067.33333333 1184 1010 c 0
 1184 944 1167.83333333 886.333333333 1135.5 837 c 128
 1103.16666667 787.666666667 1058 752 1000 730 c 1
 1174 663.333333333 1261 545 1261 375 c 0
 1261 313 1247.66666667 258 1221 210 c 128
 1194.33333333 162 1160.83333333 124 1120.5 96 c 128
 1080.16666667 68 1032.16666667 45 976.5 27 c 128
 920.833333333 9 867.833333333 -3 817.5 -9 c 128
 767.166666667 -15 715 -18 661 -18 c 256
 607 -18 554.833333333 -15 504.5 -9 c 128
 454.166666667 -3 401.166666667 9 345.5 27 c 128
 289.833333333 45 241.833333333 68 201.5 96 c 128
 161.166666667 124 127.666666667 162 101 210 c 128
 74.3333333333 258 61 313 61 375 c 0
581 406 m 0
 581 295.333333333 607.666666667 240 661 240 c 256
 714.333333333 240 741 295.333333333 741 406 c 0
 741 520.666666667 715 578 663 578 c 0
 608.333333333 578 581 520.666666667 581 406 c 0
581 986 m 0
 581 878 608.333333333 824.666666667 663 826 c 1
 715 824.666666667 741 878 741 986 c 0
 741 1004.66666667 740.166666667 1020.5 738.5 1033.5 c 128
 736.833333333 1046.5 733.666666667 1060.5 729 1075.5 c 128
 724.333333333 1090.5 716.166666667 1101.83333333 704.5 1109.5 c 128
 692.833333333 1117.16666667 679 1121.33333333 663 1122 c 1
 644.333333333 1121.33333333 629.166666667 1117.16666667 617.5 1109.5 c 128
 605.833333333 1101.83333333 597.666666667 1090.5 593 1075.5 c 128
 588.333333333 1060.5 585.166666667 1046.5 583.5 1033.5 c 128
 581.833333333 1020.5 581 1004.66666667 581 986 c 0
EndSplineSet
EndChar

StartChar: nine
Encoding: 57 57 28
Width: 1357
GlyphClass: 2
Flags: HW
LayerCount: 2
Fore
SplineSet
235 0 m 1
 772 0 l 1
 786.666666667 15.3333333333 810.166666667 39.3333333333 842.5 72 c 128
 874.833333333 104.666666667 903 133.166666667 927 157.5 c 128
 951 181.833333333 980 212.666666667 1014 250 c 128
 1048 287.333333333 1077.33333333 321.666666667 1102 353 c 128
 1126.66666667 384.333333333 1152.5 420.333333333 1179.5 461 c 128
 1206.5 501.666666667 1228.5 540 1245.5 576 c 128
 1262.5 612 1276.5 650.833333333 1287.5 692.5 c 128
 1298.5 734.166666667 1304 774.333333333 1304 813 c 0
 1304 918.333333333 1277.5 1013.33333333 1224.5 1098 c 128
 1171.5 1182.66666667 1098.5 1248.83333333 1005.5 1296.5 c 128
 912.5 1344.16666667 808.666666667 1368 694 1368 c 0
 506 1368 352.166666667 1312.66666667 232.5 1202 c 128
 112.833333333 1091.33333333 53 951.333333333 53 782 c 0
 53 651.333333333 99.3333333333 541.833333333 192 453.5 c 128
 284.666666667 365.166666667 400 321 538 321 c 1
 510.666666667 286.333333333 471.666666667 242.333333333 421 189 c 128
 370.333333333 135.666666667 326.666666667 90.6666666667 290 54 c 2
 235 0 l 1
575 782 m 0
 575 935.333333333 612 1012 686 1012 c 0
 706 1012 723 1003.33333333 737 986 c 128
 751 968.666666667 760.833333333 946.5 766.5 919.5 c 128
 772.166666667 892.5 776.166666667 868.666666667 778.5 848 c 128
 780.833333333 827.333333333 782 808 782 790 c 0
 782 645.333333333 749.333333333 573 684 573 c 0
 611.333333333 573 575 642.666666667 575 782 c 0
EndSplineSet
EndChar

StartChar: colon
Encoding: 58 58 29
Width: 724
GlyphClass: 2
Flags: HW
LayerCount: 2
Fore
SplineSet
357 596 m 0
 277.666666667 596 211.666666667 618.5 159 663.5 c 128
 106.333333333 708.5 80 769.333333333 80 846 c 0
 80 921.333333333 105.833333333 981 157.5 1025 c 128
 209.166666667 1069 275.666666667 1091 357 1091 c 0
 441.666666667 1091 510.666666667 1069 564 1025 c 128
 617.333333333 981 644 921.333333333 644 846 c 0
 644 769.333333333 616.5 708.5 561.5 663.5 c 128
 506.5 618.5 438.333333333 596 357 596 c 0
357 -18 m 0
 277.666666667 -18 211.666666667 4.5 159 49.5 c 128
 106.333333333 94.5 80 155.333333333 80 232 c 0
 80 307.333333333 105.833333333 367 157.5 411 c 128
 209.166666667 455 275.666666667 477 357 477 c 0
 441.666666667 477 510.666666667 455 564 411 c 128
 617.333333333 367 644 307.333333333 644 232 c 0
 644 155.333333333 616.5 94.5 561.5 49.5 c 128
 506.5 4.5 438.333333333 -18 357 -18 c 0
EndSplineSet
EndChar

StartChar: semicolon
Encoding: 59 59 30
Width: 720
GlyphClass: 2
Flags: HW
LayerCount: 2
Fore
SplineSet
105 -448 m 1
 287.666666667 -448 422.333333333 -404.833333333 509 -318.5 c 128
 595.666666667 -232.166666667 639 -96.3333333333 639 89 c 0
 639 171 631 263.333333333 615 366 c 1
 105 366 l 1
 105 0 l 1
 294 0 l 1
 294 -28 293.666666667 -49.5 293 -64.5 c 128
 292.333333333 -79.5 290.166666667 -97 286.5 -117 c 128
 282.833333333 -137 277 -152.333333333 269 -163 c 128
 261 -173.666666667 250.166666667 -184.166666667 236.5 -194.5 c 128
 222.833333333 -204.833333333 205 -212.166666667 183 -216.5 c 128
 161 -220.833333333 135 -223 105 -223 c 1
 105 -448 l 1
372 595 m 0
 292.666666667 595 226.666666667 617.5 174 662.5 c 128
 121.333333333 707.5 95 768.333333333 95 845 c 0
 95 920.333333333 120.833333333 980 172.5 1024 c 128
 224.166666667 1068 290.666666667 1090 372 1090 c 0
 456.666666667 1090 525.666666667 1068 579 1024 c 128
 632.333333333 980 659 920.333333333 659 845 c 0
 659 768.333333333 631.5 707.5 576.5 662.5 c 128
 521.5 617.5 453.333333333 595 372 595 c 0
EndSplineSet
EndChar

StartChar: less
Encoding: 60 60 31
Width: 909
GlyphClass: 2
Flags: HW
LayerCount: 2
Fore
SplineSet
57 946 m 1
 772 1542 l 1
 772 1077 l 1
 439 761 l 1
 772 445 l 1
 772 -20 l 1
 57 576 l 1
 57 946 l 1
EndSplineSet
EndChar

StartChar: equal
Encoding: 61 61 32
Width: 844
GlyphClass: 2
Flags: HW
LayerCount: 2
Fore
SplineSet
746 392 m 1
 746 169 l 1
 99 169 l 1
 99 392 l 1
 746 392 l 1
746 761 m 1
 746 538 l 1
 99 538 l 1
 99 761 l 1
 746 761 l 1
EndSplineSet
EndChar

StartChar: greater
Encoding: 62 62 33
Width: 909
GlyphClass: 2
Flags: HW
LayerCount: 2
Fore
SplineSet
852 576 m 1
 137 -20 l 1
 137 445 l 1
 470 761 l 1
 137 1077 l 1
 137 1542 l 1
 852 946 l 1
 852 576 l 1
EndSplineSet
EndChar

StartChar: question
Encoding: 63 63 34
Width: 1311
GlyphClass: 2
Flags: HW
LayerCount: 2
Fore
SplineSet
359 891 m 1
 623 1010.33333333 755 1129.66666667 755 1249 c 0
 755 1259.66666667 753.833333333 1271.16666667 751.5 1283.5 c 128
 749.166666667 1295.83333333 745.166666667 1310 739.5 1326 c 128
 733.833333333 1342 724 1355.16666667 710 1365.5 c 128
 696 1375.83333333 679 1381 659 1381 c 0
 579 1381 535.666666667 1327 529 1219 c 1
 57 1219 l 1
 66.3333333333 1369.66666667 127.5 1493.66666667 240.5 1591 c 128
 353.5 1688.33333333 495.666666667 1737 667 1737 c 0
 779.666666667 1737 881.833333333 1717 973.5 1677 c 128
 1065.16666667 1637 1137 1581.5 1189 1510.5 c 128
 1241 1439.5 1267 1360 1267 1272 c 0
 1267 1226.66666667 1260.5 1183.66666667 1247.5 1143 c 128
 1234.5 1102.33333333 1218 1066.5 1198 1035.5 c 128
 1178 1004.5 1152.16666667 974.666666667 1120.5 946 c 128
 1088.83333333 917.333333333 1057.83333333 893 1027.5 873 c 128
 997.166666667 853 961.5 833.166666667 920.5 813.5 c 128
 879.5 793.833333333 843.5 777.833333333 812.5 765.5 c 128
 781.5 753.166666667 745.666666667 740 705 726 c 1
 705 539 l 1
 358 539 l 1
 359 891 l 1
538 -27 m 0
 458.666666667 -27 392.666666667 -4.5 340 40.5 c 128
 287.333333333 85.5 261 146.333333333 261 223 c 0
 261 298.333333333 286.833333333 358 338.5 402 c 128
 390.166666667 446 456.666666667 468 538 468 c 0
 622.666666667 468 691.666666667 446 745 402 c 128
 798.333333333 358 825 298.333333333 825 223 c 0
 825 146.333333333 797.5 85.5 742.5 40.5 c 128
 687.5 -4.5 619.333333333 -27 538 -27 c 0
EndSplineSet
EndChar

StartChar: at
Encoding: 64 64 35
Width: 1899
GlyphClass: 2
Flags: HW
LayerCount: 2
Fore
SplineSet
1399 398 m 1
 1415 398 1429.33333333 399.5 1442 402.5 c 128
 1454.66666667 405.5 1468.66666667 412.5 1484 423.5 c 128
 1499.33333333 434.5 1512 449.5 1522 468.5 c 128
 1532 487.5 1540.33333333 514.833333333 1547 550.5 c 128
 1553.66666667 586.166666667 1557 628.333333333 1557 677 c 0
 1557 810.333333333 1508.66666667 917 1412 997 c 128
 1315.33333333 1077 1173.66666667 1117 987 1117 c 0
 797.666666667 1117 652 1067.33333333 550 968 c 128
 448 868.666666667 397 735 397 567 c 0
 397 493 410.5 424.166666667 437.5 360.5 c 128
 464.5 296.833333333 504 240.833333333 556 192.5 c 128
 608 144.166666667 675.166666667 106.166666667 757.5 78.5 c 128
 839.833333333 50.8333333333 933 37 1037 37 c 0
 1095 37 1149.33333333 44.3333333333 1200 59 c 1
 1252 -169 l 1
 1178.66666667 -188.333333333 1107 -198 1037 -198 c 0
 887.666666667 -198 752 -177.833333333 630 -137.5 c 128
 508 -97.1666666667 407.5 -42.1666666667 328.5 27.5 c 128
 249.5 97.1666666667 188.666666667 178.166666667 146 270.5 c 128
 103.333333333 362.833333333 82 461.666666667 82 567 c 0
 82 677.666666667 102.333333333 781.5 143 878.5 c 128
 183.666666667 975.5 241.666666667 1060.66666667 317 1134 c 128
 392.333333333 1207.33333333 487.666666667 1265.33333333 603 1308 c 128
 718.333333333 1350.66666667 846.333333333 1372 987 1372 c 0
 1118.33333333 1372 1238.33333333 1353.83333333 1347 1317.5 c 128
 1455.66666667 1281.16666667 1545.83333333 1231.5 1617.5 1168.5 c 128
 1689.16666667 1105.5 1744.5 1031.83333333 1783.5 947.5 c 128
 1822.5 863.166666667 1842 773 1842 677 c 0
 1842 607 1831.16666667 543.833333333 1809.5 487.5 c 128
 1787.83333333 431.166666667 1754.5 381.5 1709.5 338.5 c 128
 1664.5 295.5 1604.66666667 262.333333333 1530 239 c 128
 1455.33333333 215.666666667 1367.66666667 204 1267 204 c 2
 1117 204 l 1
 1079 294 l 1
 1055.66666667 261.333333333 1023.83333333 235.833333333 983.5 217.5 c 128
 943.166666667 199.166666667 904 190 866 190 c 0
 786.666666667 190 719.166666667 226.5 663.5 299.5 c 128
 607.833333333 372.5 580 468.666666667 580 588 c 0
 580 639.333333333 588 686.833333333 604 730.5 c 128
 620 774.166666667 644.166666667 813.833333333 676.5 849.5 c 128
 708.833333333 885.166666667 753.166666667 913.166666667 809.5 933.5 c 128
 865.833333333 953.833333333 931 964 1005 964 c 0
 1024.33333333 964 1041.66666667 963.666666667 1057 963 c 128
 1072.33333333 962.333333333 1094.5 959.5 1123.5 954.5 c 128
 1152.5 949.5 1178 942.666666667 1200 934 c 128
 1222 925.333333333 1246.16666667 912 1272.5 894 c 128
 1298.83333333 876 1320.5 854.833333333 1337.5 830.5 c 128
 1354.5 806.166666667 1368.83333333 774.333333333 1380.5 735 c 128
 1392.16666667 695.666666667 1398 651.666666667 1398 603 c 2
 1399 398 l 1
923 582 m 0
 923 520 929.666666667 469.833333333 943 431.5 c 128
 956.333333333 393.166666667 974 374 996 374 c 0
 1032.66666667 374 1060.33333333 385.666666667 1079 409 c 1
 1079 671 l 2
 1079 726.333333333 1073.33333333 764.5 1062 785.5 c 128
 1050.66666667 806.5 1031 817 1003 817 c 0
 986.333333333 817 972.5 810.5 961.5 797.5 c 128
 950.5 784.5 942.333333333 766 937 742 c 128
 931.666666667 718 928 693.666666667 926 669 c 128
 924 644.333333333 923 615.333333333 923 582 c 0
EndSplineSet
EndChar

StartChar: A
Encoding: 65 65 36
Width: 1643
GlyphClass: 2
Flags: W
HStem: 0 359<4 152.175 563.422 598 1504.27 1548>
LayerCount: 2
Fore
SplineSet
1185 1623 m 1
 191 1623 l 1
 191 1270 l 1
 403 1270 l 1
 231 591 l 2
 213 521 200.333333333 478 193 462 c 0
 171 411.333333333 134 379.666666667 82 367 c 0
 59.3333333333 361.666666667 33.3333333333 359 4 359 c 1
 4 0 l 1
 682 0 l 1
 682 359 l 1
 598 359 l 2
 584 359 573.333333333 371 566 395 c 0
 558.666666667 419 555 440.333333333 555 459 c 1
 555.666666667 473 556.333333333 483.666666667 557 491 c 0
 557.666666667 498.333333333 560.333333333 505.5 565 512.5 c 0
 569.666666667 519.5 576.333333333 523 585 523 c 2
 860 523 l 2
 904.666666667 523 927 468.333333333 927 359 c 1
 807 359 l 1
 808 0 l 1
 1634 0 l 1
 1634 359 l 1
 1548 359 l 2
 1538 359 1529.33333333 363.166666667 1522 371.5 c 0
 1514.66666667 379.833333333 1509.16666667 389.333333333 1505.5 400 c 0
 1501.83333333 410.666666667 1497.33333333 426.333333333 1492 447 c 2
 1185 1623 l 1
612 773 m 1
 724 1281 l 1
 841 773 l 1
 612 773 l 1
EndSplineSet
EndChar

StartChar: B
Encoding: 66 66 37
Width: 1666
GlyphClass: 2
Flags: HW
LayerCount: 2
Fore
SplineSet
89 0 m 1
 1031 0 l 2
 1117 0 1194.5 7.66666666667 1263.5 23 c 128
 1332.5 38.3333333333 1393.83333333 62.1666666667 1447.5 94.5 c 128
 1501.16666667 126.833333333 1542.66666667 170.5 1572 225.5 c 128
 1601.33333333 280.5 1616 345.333333333 1616 420 c 0
 1616 532.666666667 1588.66666667 625 1534 697 c 128
 1479.33333333 769 1402 819.333333333 1302 848 c 1
 1302 850 l 1
 1374.66666667 877.333333333 1433.66666667 922.5 1479 985.5 c 128
 1524.33333333 1048.5 1547 1121.33333333 1547 1204 c 0
 1547 1270.66666667 1537 1328.66666667 1517 1378 c 128
 1497 1427.33333333 1469.5 1467.66666667 1434.5 1499 c 128
 1399.5 1530.33333333 1354.5 1555.33333333 1299.5 1574 c 128
 1244.5 1592.66666667 1186.16666667 1605.5 1124.5 1612.5 c 128
 1062.83333333 1619.5 991.333333333 1623 910 1623 c 2
 96 1622 l 1
 96 1270 l 1
 262 1270 l 1
 261 359 l 1
 89 359 l 1
 89 0 l 1
863 700 m 0
 882.333333333 700 899.666666667 699.166666667 915 697.5 c 128
 930.333333333 695.833333333 947.5 691.5 966.5 684.5 c 128
 985.5 677.5 1001.5 668 1014.5 656 c 128
 1027.5 644 1038.5 627 1047.5 605 c 128
 1056.5 583 1061 557 1061 527 c 0
 1061 510.333333333 1059.83333333 495 1057.5 481 c 128
 1055.16666667 467 1051.83333333 454.833333333 1047.5 444.5 c 128
 1043.16666667 434.166666667 1038 424.666666667 1032 416 c 128
 1026 407.333333333 1019.16666667 400.166666667 1011.5 394.5 c 128
 1003.83333333 388.833333333 995.333333333 383.833333333 986 379.5 c 128
 976.666666667 375.166666667 966.833333333 371.833333333 956.5 369.5 c 128
 946.166666667 367.166666667 935.333333333 365.166666667 924 363.5 c 128
 912.666666667 361.833333333 900.833333333 360.666666667 888.5 360 c 128
 876.166666667 359.333333333 863.5 358.833333333 850.5 358.5 c 128
 837.5 358.166666667 824.333333333 358.333333333 811 359 c 0
 796 359 796 359 789 359 c 1
 789 699 l 1
 831 699.666666667 855.666666667 700 863 700 c 0
789 1270 m 1
 915 1270 l 2
 952.333333333 1270 984.666666667 1258 1012 1234 c 128
 1039.33333333 1210 1053 1175.66666667 1053 1131 c 0
 1053 1094.33333333 1047.5 1064.16666667 1036.5 1040.5 c 128
 1025.5 1016.83333333 1008.66666667 999.5 986 988.5 c 128
 963.333333333 977.5 940.5 970.166666667 917.5 966.5 c 128
 894.5 962.833333333 865.333333333 961 830 961 c 2
 789 961 l 1
 789 1270 l 1
EndSplineSet
EndChar

StartChar: C
Encoding: 67 67 38
Width: 1538
GlyphClass: 2
Flags: HW
LayerCount: 2
Fore
SplineSet
1456 612 m 1
 1155 612 l 1
 1152.33333333 562.666666667 1149.66666667 531.333333333 1147 518 c 0
 1137 464.666666667 1111.5 422.166666667 1070.5 390.5 c 128
 1029.5 358.833333333 982 343 928 343 c 0
 887.333333333 343 851.666666667 350.333333333 821 365 c 128
 790.333333333 379.666666667 766.5 399.333333333 749.5 424 c 128
 732.5 448.666666667 718.166666667 477 706.5 509 c 128
 694.833333333 541 687.666666667 574.333333333 685 609 c 128
 682.333333333 643.666666667 680 678.5 678 713.5 c 128
 676 748.5 676 781 678 811 c 1
 678 841 678 841 678 855 c 0
 678 886.333333333 678.333333333 913 679 935 c 128
 679.666666667 957 681.666666667 984.333333333 685 1017 c 128
 688.333333333 1049.66666667 693 1077.5 699 1100.5 c 128
 705 1123.5 714 1147.66666667 726 1173 c 128
 738 1198.33333333 752.166666667 1219 768.5 1235 c 128
 784.833333333 1251 805.5 1264.16666667 830.5 1274.5 c 128
 855.5 1284.83333333 883.666666667 1290 915 1290 c 0
 957 1290 994 1280.83333333 1026 1262.5 c 128
 1058 1244.16666667 1082.66666667 1220 1100 1190 c 128
 1117.33333333 1160 1130 1128.16666667 1138 1094.5 c 128
 1146 1060.83333333 1149.66666667 1026.33333333 1149 991 c 1
 1447 991 l 1
 1446 1623 l 1
 1135 1623 l 1
 1101 1552 l 1
 1071 1580.66666667 1033.5 1602.83333333 988.5 1618.5 c 128
 943.5 1634.16666667 903.333333333 1643.66666667 868 1647 c 128
 832.666666667 1650.33333333 790.333333333 1652 741 1652 c 0
 647 1652 561.333333333 1635.66666667 484 1603 c 128
 406.666666667 1570.33333333 342 1526.66666667 290 1472 c 128
 238 1417.33333333 194.166666667 1353.16666667 158.5 1279.5 c 128
 122.833333333 1205.83333333 97 1129.33333333 81 1050 c 128
 65 970.666666667 57 888.666666667 57 804 c 0
 57 636 85.5 490.166666667 142.5 366.5 c 128
 199.5 242.833333333 286.166666667 146 402.5 76 c 128
 518.833333333 6 659.666666667 -29 825 -29 c 0
 894.333333333 -29 963.5 -21 1032.5 -5 c 128
 1101.5 11 1160.33333333 30.1666666667 1209 52.5 c 128
 1257.66666667 74.8333333333 1301.33333333 97.3333333333 1340 120 c 128
 1378.66666667 142.666666667 1407.66666667 162 1427 178 c 2
 1456 202 l 1
 1456 612 l 1
EndSplineSet
EndChar

StartChar: D
Encoding: 68 68 39
Width: 1801
GlyphClass: 2
Flags: HW
LayerCount: 2
Fore
SplineSet
98 0 m 1
 900 0 l 2
 1034.66666667 0 1156.33333333 22.3333333333 1265 67 c 128
 1373.66666667 111.666666667 1462.33333333 171.833333333 1531 247.5 c 128
 1599.66666667 323.166666667 1652.33333333 409.666666667 1689 507 c 128
 1725.66666667 604.333333333 1744 707.333333333 1744 816 c 0
 1744 1080 1675.66666667 1280.5 1539 1417.5 c 128
 1402.33333333 1554.5 1196.66666667 1623 922 1623 c 2
 92 1623 l 1
 92 1271 l 1
 261 1271 l 1
 261 359 l 1
 98 359 l 1
 98 0 l 1
808 359 m 1
 808 1271 l 1
 855 1271 l 2
 904.333333333 1271 947.333333333 1261.5 984 1242.5 c 128
 1020.66666667 1223.5 1049.33333333 1199.5 1070 1170.5 c 128
 1090.66666667 1141.5 1107.16666667 1106 1119.5 1064 c 128
 1131.83333333 1022 1140 981.833333333 1144 943.5 c 128
 1148 905.166666667 1150 863 1150 817 c 0
 1150 772.333333333 1147.5 730 1142.5 690 c 128
 1137.5 650 1128 609.166666667 1114 567.5 c 128
 1100 525.833333333 1082 490.166666667 1060 460.5 c 128
 1038 430.833333333 1008.5 406.5 971.5 387.5 c 128
 934.5 368.5 891.666666667 359 843 359 c 2
 808 359 l 1
EndSplineSet
EndChar

StartChar: E
Encoding: 69 69 40
Width: 1490
GlyphClass: 2
Flags: HW
LayerCount: 2
Fore
SplineSet
1099 968 m 1
 1023 1270 l 1
 810 1270 l 1
 810 988 l 1
 1015 988 l 1
 1015 636 l 1
 810 636 l 1
 810 359 l 1
 1029 359 l 1
 1042 420 l 1
 1105 687 l 1
 1378 687 l 1
 1378 0 l 1
 99 0 l 1
 99 359 l 1
 257 359 l 1
 257 1270 l 1
 99 1270 l 1
 99 1623 l 1
 1367 1623 l 1
 1367 969 l 1
 1099 968 l 1
EndSplineSet
EndChar

StartChar: F
Encoding: 70 70 41
Width: 1407
GlyphClass: 2
Flags: HW
LayerCount: 2
Fore
SplineSet
1025 643 m 1
 823 643 l 1
 823 359 l 1
 977 359 l 1
 977 0 l 1
 100 0 l 1
 100 359 l 1
 258 359 l 1
 258 1270 l 1
 100 1270 l 1
 100 1623 l 1
 1375 1623 l 1
 1375 959 l 1
 1091 959 l 1
 1027 1270 l 1
 823 1270 l 1
 823 999 l 1
 1025 999 l 1
 1025 643 l 1
EndSplineSet
EndChar

StartChar: G
Encoding: 71 71 42
Width: 1720
GlyphClass: 2
Flags: HW
LayerCount: 2
Fore
SplineSet
1344 0 m 1
 1620 0 l 1
 1620 862 l 1
 995 862 l 1
 995 558 l 1
 1155 557 l 1
 1160.33333333 537.666666667 1163 510.666666667 1163 476 c 0
 1163 427.333333333 1144 388.833333333 1106 360.5 c 128
 1068 332.166666667 1023.66666667 318 973 318 c 0
 763 318 658 465 658 759 c 0
 658 801 659.333333333 839.5 662 874.5 c 128
 664.666666667 909.5 669.666666667 948.166666667 677 990.5 c 128
 684.333333333 1032.83333333 695.5 1070.16666667 710.5 1102.5 c 128
 725.5 1134.83333333 744.333333333 1165 767 1193 c 128
 789.666666667 1221 819 1242.5 855 1257.5 c 128
 891 1272.5 932.333333333 1280 979 1280 c 0
 1021 1280 1057.83333333 1273.83333333 1089.5 1261.5 c 128
 1121.16666667 1249.16666667 1146.5 1233.5 1165.5 1214.5 c 128
 1184.5 1195.5 1200.66666667 1170.33333333 1214 1139 c 128
 1227.33333333 1107.66666667 1237.16666667 1077.66666667 1243.5 1049 c 128
 1249.83333333 1020.33333333 1255.33333333 985.666666667 1260 945 c 1
 1548 945 l 1
 1548 1623 l 1
 1233 1623 l 1
 1189 1561 l 1
 1103.66666667 1621.66666667 992.666666667 1652 856 1652 c 0
 728.666666667 1652 613.5 1629.33333333 510.5 1584 c 128
 407.5 1538.66666667 323 1476.66666667 257 1398 c 128
 191 1319.33333333 140.5 1228.33333333 105.5 1125 c 128
 70.5 1021.66666667 53 910.666666667 53 792 c 0
 53 689.333333333 67.1666666667 594 95.5 506 c 128
 123.833333333 418 163.666666667 341.5 215 276.5 c 128
 266.333333333 211.5 327.333333333 156 398 110 c 128
 468.666666667 64 547 29.3333333333 633 6 c 128
 719 -17.3333333333 810.333333333 -29 907 -29 c 0
 1073.66666667 -29 1205.33333333 14.3333333333 1302 101 c 1
 1344 0 l 1
EndSplineSet
EndChar

StartChar: H
Encoding: 72 72 43
Width: 1908
GlyphClass: 2
Flags: HW
LayerCount: 2
Fore
SplineSet
105 359 m 1
 252 359 l 1
 252 1270 l 1
 105 1270 l 1
 105 1623 l 1
 914 1623 l 1
 914 1270 l 1
 819 1270 l 1
 819 986 l 1
 1088 986 l 1
 1088 1270 l 1
 1000 1270 l 1
 1000 1623 l 1
 1798 1623 l 1
 1798 1270 l 1
 1657 1270 l 1
 1657 359 l 1
 1804 359 l 1
 1804 0 l 1
 1004 0 l 1
 1004 359 l 1
 1088 359 l 1
 1088 635 l 1
 819 635 l 1
 819 359 l 1
 915 359 l 1
 914 0 l 1
 105 0 l 1
 105 359 l 1
EndSplineSet
EndChar

StartChar: I
Encoding: 73 73 44
Width: 1076
GlyphClass: 2
Flags: W
HStem: 0 359<104 251 825 966> 1270 353<108 251 825 972>
VStem: 104 862<0 359 1270 1623>
LayerCount: 2
Fore
SplineSet
972 1270 m 1
 825 1270 l 1
 825 359 l 1
 966 359 l 1
 966 0 l 1
 104 0 l 1
 104 359 l 1
 251 359 l 1
 251 1270 l 1
 108 1270 l 1
 108 1623 l 1
 972 1623 l 1
 972 1270 l 1
EndSplineSet
EndChar

StartChar: J
Encoding: 74 74 45
Width: 1314
GlyphClass: 2
Flags: HW
LayerCount: 2
Fore
SplineSet
30 -13 m 1
 300 -13 l 1
 337 79 l 1
 396.333333333 6.33333333333 492.333333333 -30 625 -30 c 0
 781 -30 902.666666667 15.8333333333 990 107.5 c 128
 1077.33333333 199.166666667 1121 321.666666667 1121 475 c 2
 1121 1270 l 1
 1268 1270 l 1
 1268 1623 l 1
 414 1623 l 1
 414 1270 l 1
 568 1270 l 1
 568 572 l 2
 568 498.666666667 559 445.833333333 541 413.5 c 128
 523 381.166666667 495 365 457 365 c 0
 440.333333333 365 425.166666667 368.666666667 411.5 376 c 128
 397.833333333 383.333333333 386.833333333 392 378.5 402 c 128
 370.166666667 412 363 425.666666667 357 443 c 128
 351 460.333333333 346.5 475.666666667 343.5 489 c 128
 340.5 502.333333333 338.333333333 519.666666667 337 541 c 128
 335.666666667 562.333333333 334.833333333 578.333333333 334.5 589 c 128
 334.166666667 599.666666667 334 614.333333333 334 633 c 1
 30 633 l 1
 30 -13 l 1
EndSplineSet
EndChar

StartChar: K
Encoding: 75 75 46
Width: 1799
GlyphClass: 2
Flags: HW
LayerCount: 2
Fore
SplineSet
105 1622 m 1
 926 1622 l 1
 926 1270 l 1
 799 1270 l 1
 799 887 l 1
 1086 1270 l 1
 1086 1622 l 1
 1710 1623 l 1
 1710 1270 l 1
 1573 1270 l 1
 1254 864 l 1
 1254 850 l 1
 1306 850 1352 846 1392 838 c 128
 1432 830 1468.16666667 817 1500.5 799 c 128
 1532.83333333 781 1557.5 755.5 1574.5 722.5 c 128
 1591.5 689.5 1600 649.333333333 1600 602 c 2
 1600 461 l 2
 1600 437.666666667 1606 414.833333333 1618 392.5 c 128
 1630 370.166666667 1646.33333333 359 1667 359 c 2
 1757 359 l 1
 1763 0 l 1
 1415 0 l 2
 1191 0 1079 102.333333333 1079 307 c 2
 1079 492 l 2
 1079 524 1068.33333333 556.666666667 1047 590 c 128
 1025.66666667 623.333333333 999.666666667 640 969 640 c 2
 799 640 l 1
 799 359 l 1
 926 359 l 1
 932 35 l 1
 932 0 l 1
 105 0 l 1
 105 359 l 1
 252 359 l 1
 252 1270 l 1
 105 1270 l 1
 105 1622 l 1
EndSplineSet
EndChar

StartChar: L
Encoding: 76 76 47
Width: 1421
GlyphClass: 2
Flags: HW
LayerCount: 2
Fore
SplineSet
818 359 m 1
 1009 359 l 1
 1096 709 l 1
 1382 709 l 1
 1382 0 l 1
 109 0 l 1
 108 359 l 1
 251 359 l 1
 251 1270 l 1
 104 1270 l 1
 104 1622 l 1
 972 1622 l 1
 972 1270 l 1
 818 1270 l 1
 818 359 l 1
EndSplineSet
EndChar

StartChar: M
Encoding: 77 77 48
Width: 2408
GlyphClass: 2
Flags: W
HStem: 0 359<100 230.266 614.039 751>
LayerCount: 2
Fore
SplineSet
589 999 m 1
 1005 0 l 1
 1286 0 l 1
 1628 977 l 1
 1628 359 l 1
 1505 359 l 1
 1505 0 l 1
 2308 0 l 1
 2308 359 l 1
 2154 359 l 1
 2154 1270 l 1
 2301 1270 l 1
 2301 1623 l 1
 1517 1623 l 1
 1241 856 l 1
 931 1623 l 1
 96 1623 l 1
 97 1270 l 1
 264 1270 l 1
 264 608 l 2
 264 574 264 574 264 557.5 c 0
 264 546.5 263.5 531.833333333 262.5 513.5 c 0
 261.5 495.166666667 260 481.666666667 258 473 c 0
 256 464.333333333 253.166666667 453.333333333 249.5 440 c 0
 245.833333333 426.666666667 241.333333333 416.833333333 236 410.5 c 0
 230.666666667 404.166666667 223.833333333 397 215.5 389 c 0
 207.166666667 381 197.666666667 375.333333333 187 372 c 0
 176.333333333 368.666666667 163.666666667 365.666666667 149 363 c 0
 134.333333333 360.333333333 118 359 100 359 c 1
 100 0 l 1
 751 0 l 1
 751 359 l 1
 733 359 716.666666667 360.166666667 702 362.5 c 0
 687.333333333 364.833333333 674.666666667 367.5 664 370.5 c 0
 653.333333333 373.5 644 378.333333333 636 385 c 0
 628 391.666666667 621.333333333 397.333333333 616 402 c 0
 610.666666667 406.666666667 606.166666667 414.166666667 602.5 424.5 c 0
 598.833333333 434.833333333 596.166666667 442.833333333 594.5 448.5 c 0
 592.833333333 454.166666667 591.5 463.5 590.5 476.5 c 0
 589.5 489.5 589 499 589 505 c 0
 589 514 589 514 589 535 c 2
 589 999 l 1
EndSplineSet
EndChar

StartChar: N
Encoding: 78 78 49
Width: 1874
GlyphClass: 2
Flags: W
HStem: 0 359<98 230.795 614.652 735> 1272 351<1177 1312.31 1693.65 1814>
VStem: 261 316<393.043 550>
LayerCount: 2
Fore
SplineSet
1814 1622 m 1
 1177 1623 l 1
 1177 1270 l 1
 1203 1270.66666667 1225.66666667 1269.33333333 1245 1266 c 0
 1264.33333333 1262.66666667 1279.5 1256.5 1290.5 1247.5 c 0
 1301.5 1238.5 1310.33333333 1229.83333333 1317 1221.5 c 0
 1323.66666667 1213.16666667 1328.16666667 1201.5 1330.5 1186.5 c 0
 1332.83333333 1171.5 1334.16666667 1160 1334.5 1152 c 0
 1334.83333333 1144 1335 1132 1335 1116 c 2
 1335 647 l 1
 839 1623 l 1
 104 1623 l 1
 104 1272 l 1
 261 1272 l 1
 261 550 l 2
 261 524.666666667 260.333333333 504.666666667 259 490 c 0
 257.666666667 475.333333333 254.166666667 458.5 248.5 439.5 c 0
 242.833333333 420.5 234.5 406 223.5 396 c 0
 212.5 386 196.5 377.333333333 175.5 370 c 0
 154.5 362.666666667 128.666666667 359 98 359 c 1
 98 0 l 1
 735 0 l 1
 735 359 l 1
 678.333333333 359 637.833333333 370 613.5 392 c 0
 589.166666667 414 577 452.333333333 577 507 c 2
 577 908 l 1
 1050 0 l 1
 1656 0 l 1
 1656 1118 l 2
 1656 1167.33333333 1668.16666667 1205 1692.5 1231 c 0
 1716.83333333 1257 1757.33333333 1270 1814 1270 c 1
 1814 1622 l 1
EndSplineSet
EndChar

StartChar: O
Encoding: 79 79 50
Width: 1744
GlyphClass: 2
Flags: W
HStem: -29 348<756.943 987.161> 1296 357<750.498 994.973>
VStem: 52 610<524.553 1112.09> 1082 610<524.553 1112.09>
LayerCount: 2
Fore
SplineSet
1692 808 m 0
 1692 651.333333333 1656.16666667 509 1584.5 381 c 0
 1512.83333333 253 1414.33333333 152.666666667 1289 80 c 0
 1163.66666667 7.33333333333 1024.66666667 -29 872 -29 c 256
 719.333333333 -29 580.333333333 7.33333333333 455 80 c 0
 329.666666667 152.666666667 231.166666667 253 159.5 381 c 0
 87.8333333333 509 52 651.333333333 52 808 c 0
 52 980 87.8333333333 1130.5 159.5 1259.5 c 0
 231.166666667 1388.5 328.5 1486.33333333 451.5 1553 c 0
 574.5 1619.66666667 715.333333333 1653 874 1653 c 0
 1030 1653 1169.5 1619.66666667 1292.5 1553 c 0
 1415.5 1486.33333333 1512.83333333 1388.5 1584.5 1259.5 c 0
 1656.16666667 1130.5 1692 980 1692 808 c 0
872 319 m 0
 898 319 921.333333333 323.333333333 942 332 c 0
 962.666666667 340.666666667 980.166666667 352.666666667 994.5 368 c 0
 1008.83333333 383.333333333 1021.33333333 401.333333333 1032 422 c 0
 1042.66666667 442.666666667 1051 465.166666667 1057 489.5 c 0
 1063 513.833333333 1068 539 1072 565 c 0
 1076 591 1078.5 617.166666667 1079.5 643.5 c 0
 1080.5 669.833333333 1081.33333333 695.666666667 1082 721 c 0
 1082.66666667 746.333333333 1082.66666667 770.333333333 1082 793 c 0
 1082 813 1082 813 1082 823 c 0
 1082 834 1082 834 1082 858 c 0
 1081.33333333 882 1081.33333333 907.333333333 1082 934 c 0
 1082.66666667 960.666666667 1081.5 988.166666667 1078.5 1016.5 c 0
 1075.5 1044.83333333 1071.83333333 1072.33333333 1067.5 1099 c 0
 1063.16666667 1125.66666667 1055.66666667 1151 1045 1175 c 0
 1034.33333333 1199 1021.83333333 1220 1007.5 1238 c 0
 993.166666667 1256 974.333333333 1270.16666667 951 1280.5 c 0
 927.666666667 1290.83333333 901.333333333 1296 872 1296 c 0
 846 1296 822.5 1292 801.5 1284 c 0
 780.5 1276 763 1264.83333333 749 1250.5 c 0
 735 1236.16666667 722.5 1219.5 711.5 1200.5 c 0
 700.5 1181.5 692.166666667 1160.83333333 686.5 1138.5 c 0
 680.833333333 1116.16666667 675.833333333 1092.83333333 671.5 1068.5 c 0
 667.166666667 1044.16666667 664.666666667 1019.83333333 664 995.5 c 0
 663.333333333 971.166666667 662.5 947.333333333 661.5 924 c 0
 660.5 900.666666667 660.666666667 878.666666667 662 858 c 1
 662 834 662 834 662 823 c 0
 662 813 662 813 662 793 c 0
 662.666666667 773 662.666666667 752 662 730 c 0
 661.333333333 708 661.833333333 685.166666667 663.5 661.5 c 0
 665.166666667 637.833333333 667 614.333333333 669 591 c 0
 671 567.666666667 674.5 544.666666667 679.5 522 c 0
 684.5 499.333333333 690.333333333 478 697 458 c 0
 703.666666667 438 712.333333333 419.5 723 402.5 c 0
 733.666666667 385.5 745.833333333 370.833333333 759.5 358.5 c 0
 773.166666667 346.166666667 789.666666667 336.5 809 329.5 c 0
 828.333333333 322.5 849.333333333 319 872 319 c 0
EndSplineSet
EndChar

StartChar: P
Encoding: 80 80 51
Width: 1651
GlyphClass: 2
Flags: HW
LayerCount: 2
Fore
SplineSet
99 0 m 1
 960 0 l 1
 960 359 l 1
 814 359 l 1
 814 569 l 1
 866.666666667 562.333333333 916.666666667 559 964 559 c 0
 1066 559 1156.5 568.666666667 1235.5 588 c 128
 1314.5 607.333333333 1383.83333333 638 1443.5 680 c 128
 1503.16666667 722 1548.5 778.833333333 1579.5 850.5 c 128
 1610.5 922.166666667 1625.33333333 1007.33333333 1624 1106 c 0
 1623.33333333 1162.66666667 1617.83333333 1214.33333333 1607.5 1261 c 128
 1597.16666667 1307.66666667 1583 1347.83333333 1565 1381.5 c 128
 1547 1415.16666667 1525.33333333 1445.33333333 1500 1472 c 128
 1474.66666667 1498.66666667 1446.66666667 1520.33333333 1416 1537 c 128
 1385.33333333 1553.66666667 1352.16666667 1568 1316.5 1580 c 128
 1280.83333333 1592 1243.33333333 1600.5 1204 1605.5 c 128
 1164.66666667 1610.5 1124.16666667 1614.83333333 1082.5 1618.5 c 128
 1040.83333333 1622.16666667 998.333333333 1623.66666667 955 1623 c 128
 911.666666667 1622.33333333 868.333333333 1622.33333333 825 1623 c 0
 809 1623 809 1623 800.5 1623 c 128
 792 1623 792 1623 779 1623 c 128
 766 1623 766 1623 755 1623 c 2
 104 1623 l 1
 104 1270 l 1
 255 1270 l 1
 255 359 l 1
 99 359 l 1
 99 0 l 1
814 1270 m 1
 898 1270 l 2
 950 1270 993.666666667 1256 1029 1228 c 128
 1064.33333333 1200 1082 1156 1082 1096 c 0
 1082 962 1006.33333333 895 855 895 c 2
 814 895 l 1
 814 1270 l 1
EndSplineSet
EndChar

StartChar: Q
Encoding: 81 81 52
Width: 1765
GlyphClass: 2
Flags: HW
LayerCount: 2
Fore
SplineSet
893 -30 m 0
 919.666666667 -30 958.333333333 -27.3333333333 1009 -22 c 1
 1260 0 l 1
 1744 0 l 1
 1744 359 l 1
 1581 359 l 1
 1661.66666667 494.333333333 1702 643.666666667 1702 807 c 0
 1702 936.333333333 1681.5 1054.33333333 1640.5 1161 c 128
 1599.5 1267.66666667 1542.83333333 1356.66666667 1470.5 1428 c 128
 1398.16666667 1499.33333333 1312.16666667 1554.5 1212.5 1593.5 c 128
 1112.83333333 1632.5 1004.33333333 1652 887 1652 c 0
 723 1652 577.5 1616.66666667 450.5 1546 c 128
 323.5 1475.33333333 225.5 1376.5 156.5 1249.5 c 128
 87.5 1122.5 53 977.666666667 53 815 c 0
 53 648.333333333 87.3333333333 501.166666667 156 373.5 c 128
 224.666666667 245.833333333 322.666666667 146.666666667 450 76 c 128
 577.333333333 5.33333333333 725 -30 893 -30 c 0
670 777 m 0
 670 839 670 839 670 895.5 c 128
 670 933.166666667 671.333333333 968.833333333 674 1002.5 c 128
 676.666666667 1036.16666667 680.5 1067 685.5 1095 c 128
 690.5 1123 698 1148.16666667 708 1170.5 c 128
 718 1192.83333333 730.666666667 1211.66666667 746 1227 c 128
 761.333333333 1242.33333333 780.333333333 1254.16666667 803 1262.5 c 128
 825.666666667 1270.83333333 852 1275 882 1275 c 0
 916 1275 945.5 1268.83333333 970.5 1256.5 c 128
 995.5 1244.16666667 1015.33333333 1224.66666667 1030 1198 c 128
 1044.66666667 1171.33333333 1056.5 1145.83333333 1065.5 1121.5 c 128
 1074.5 1097.16666667 1080.83333333 1064 1084.5 1022 c 128
 1088.16666667 980 1090.33333333 947 1091 923 c 128
 1091.66666667 899 1092 865.333333333 1092 822 c 0
 1092 807 1092 807 1092 775 c 1
 1094 746.333333333 1094.16666667 715.666666667 1092.5 683 c 128
 1090.83333333 650.333333333 1089 617.833333333 1087 585.5 c 128
 1085 553.166666667 1079.5 522 1070.5 492 c 128
 1061.5 462 1050.16666667 435.666666667 1036.5 413 c 128
 1022.83333333 390.333333333 1003.66666667 372.166666667 979 358.5 c 128
 954.333333333 344.833333333 925.666666667 338 893 338 c 0
 867 338 843.666666667 341 823 347 c 128
 802.333333333 353 784.5 362.333333333 769.5 375 c 128
 754.5 387.666666667 741.5 401.333333333 730.5 416 c 128
 719.5 430.666666667 710.5 449.5 703.5 472.5 c 128
 696.5 495.5 690.666666667 517.166666667 686 537.5 c 128
 681.333333333 557.833333333 678 583 676 613 c 128
 674 643 672.5 669.333333333 671.5 692 c 128
 670.5 714.666666667 670 743 670 777 c 0
EndSplineSet
EndChar

StartChar: R
Encoding: 82 82 53
Width: 1765
GlyphClass: 2
Flags: HW
LayerCount: 2
Fore
SplineSet
912 359 m 1
 791 359 l 1
 791 694 l 1
 889 694 l 2
 929 694 961.666666667 688.333333333 987 677 c 128
 1012.33333333 665.666666667 1031.16666667 648.166666667 1043.5 624.5 c 128
 1055.83333333 600.833333333 1064.16666667 575.833333333 1068.5 549.5 c 128
 1072.83333333 523.166666667 1075 490.333333333 1075 451 c 2
 1075 256 l 2
 1075 228.666666667 1077.66666667 203.5 1083 180.5 c 128
 1088.33333333 157.5 1095 137.666666667 1103 121 c 128
 1111 104.333333333 1122.16666667 89.5 1136.5 76.5 c 128
 1150.83333333 63.5 1164.5 52.8333333333 1177.5 44.5 c 128
 1190.5 36.1666666667 1207.5 29 1228.5 23 c 128
 1249.5 17 1267.66666667 12.5 1283 9.5 c 128
 1298.33333333 6.5 1318.5 4.33333333333 1343.5 3 c 128
 1368.5 1.66666666667 1388.5 0.833333333333 1403.5 0.5 c 128
 1418.5 0.166666666667 1439 0 1465 0 c 2
 1727 0 l 1
 1727 359 l 1
 1689.66666667 359 1659.83333333 361.166666667 1637.5 365.5 c 128
 1615.16666667 369.833333333 1598.66666667 377.166666667 1588 387.5 c 128
 1577.33333333 397.833333333 1570.5 408.666666667 1567.5 420 c 128
 1564.5 431.333333333 1563 446.666666667 1563 466 c 2
 1563 559 l 2
 1563 620.333333333 1541.66666667 671.333333333 1499 712 c 128
 1456.33333333 752.666666667 1385.33333333 784.333333333 1286 807 c 1
 1400.66666667 828.333333333 1489.16666667 870 1551.5 932 c 128
 1613.83333333 994 1645 1073.33333333 1645 1170 c 0
 1645 1252 1632.66666667 1322.5 1608 1381.5 c 128
 1583.33333333 1440.5 1547.16666667 1487.5 1499.5 1522.5 c 128
 1451.83333333 1557.5 1396.5 1583 1333.5 1599 c 128
 1270.5 1615 1198 1623 1116 1623 c 2
 101 1623 l 1
 101 1270 l 1
 256 1270 l 1
 256 359 l 1
 102 359 l 1
 102 -1 l 1
 466 -0.333333333333 736 0 912 0 c 1
 912 359 l 1
785 920 m 1
 785 1270 l 1
 906 1270 l 2
 965.333333333 1270 1011.83333333 1254.16666667 1045.5 1222.5 c 128
 1079.16666667 1190.83333333 1096 1148.66666667 1096 1096 c 0
 1096 1062.66666667 1089 1034 1075 1010 c 128
 1061 986 1041.66666667 967.666666667 1017 955 c 128
 992.333333333 942.333333333 966.166666667 933.333333333 938.5 928 c 128
 910.833333333 922.666666667 880 920 846 920 c 2
 785 920 l 1
EndSplineSet
EndChar

StartChar: S
Encoding: 83 83 54
Width: 1329
GlyphClass: 2
Flags: HW
LayerCount: 2
Fore
SplineSet
874 1623 m 1
 855.333333333 1591 844.666666667 1571 842 1563 c 1
 762.666666667 1623 658.666666667 1653 530 1653 c 0
 381.333333333 1653 268.166666667 1606 190.5 1512 c 128
 112.833333333 1418 74 1291.66666667 74 1133 c 0
 74 1089 77.1666666667 1048 83.5 1010 c 128
 89.8333333333 972 98.3333333333 937.666666667 109 907 c 128
 119.666666667 876.333333333 133.666666667 847.5 151 820.5 c 128
 168.333333333 793.5 186.666666667 769.666666667 206 749 c 128
 225.333333333 728.333333333 248.333333333 708.666666667 275 690 c 128
 301.666666667 671.333333333 327.833333333 655.166666667 353.5 641.5 c 128
 379.166666667 627.833333333 409 614.333333333 443 601 c 128
 477 587.666666667 509 576.166666667 539 566.5 c 128
 569 556.833333333 603.666666667 546.333333333 643 535 c 0
 667.666666667 528.333333333 688.333333333 521.333333333 705 514 c 128
 721.666666667 506.666666667 737.333333333 494.833333333 752 478.5 c 128
 766.666666667 462.166666667 774 442.666666667 774 420 c 0
 774 392.666666667 763.166666667 371.5 741.5 356.5 c 128
 719.833333333 341.5 694.333333333 334 665 334 c 0
 616.333333333 334 569.666666667 352.5 525 389.5 c 128
 480.333333333 426.5 449.333333333 469.333333333 432 518 c 1
 110 518 l 1
 110 0 l 1
 433 0 l 1
 469 92 l 1
 521 48 570.833333333 16.8333333333 618.5 -1.5 c 128
 666.166666667 -19.8333333333 726 -29 798 -29 c 0
 868 -29 933.5 -13.8333333333 994.5 16.5 c 128
 1055.5 46.8333333333 1106.5 87 1147.5 137 c 128
 1188.5 187 1220.5 244.333333333 1243.5 309 c 128
 1266.5 373.666666667 1277.33333333 440 1276 508 c 0
 1274.66666667 577.333333333 1265.16666667 640.166666667 1247.5 696.5 c 128
 1229.83333333 752.833333333 1206.66666667 799.833333333 1178 837.5 c 128
 1149.33333333 875.166666667 1116.66666667 908.5 1080 937.5 c 128
 1043.33333333 966.5 1004.83333333 989.833333333 964.5 1007.5 c 128
 924.166666667 1025.16666667 883.833333333 1041 843.5 1055 c 128
 803.166666667 1069 764.833333333 1081.16666667 728.5 1091.5 c 128
 692.166666667 1101.83333333 660 1112.33333333 632 1123 c 128
 604 1133.66666667 581.833333333 1146.33333333 565.5 1161 c 128
 549.166666667 1175.66666667 541 1193 541 1213 c 0
 541 1243.66666667 549.333333333 1266.66666667 566 1282 c 128
 582.666666667 1297.33333333 605.666666667 1305 635 1305 c 0
 685 1305 730.666666667 1285 772 1245 c 128
 813.333333333 1205 840 1159 852 1107 c 1
 1159 1107 l 1
 1159 1623 l 1
 874 1623 l 1
EndSplineSet
EndChar

StartChar: T
Encoding: 84 84 55
Width: 1535
GlyphClass: 2
Flags: W
HStem: 0 360<320 484 1047 1211> 965 657<39 320 1215 1496> 1270 352<384 484 1047 1153>
VStem: 484 563<360 1270>
LayerCount: 2
Fore
SplineSet
1215 965 m 1xd0
 1153 1270 l 1
 1047 1270 l 1
 1047 360 l 1
 1211 360 l 1
 1211 0 l 1
 320 0 l 1
 320 360 l 1
 484 360 l 1
 484 1270 l 1
 384 1270 l 1xb0
 320 965 l 1
 39 965 l 1
 39 1622 l 1
 1496 1622 l 1
 1496 965 l 1
 1215 965 l 1xd0
EndSplineSet
EndChar

StartChar: U
Encoding: 85 85 56
Width: 1683
GlyphClass: 2
Flags: HW
LayerCount: 2
Fore
SplineSet
1485 1270 m 1
 1639 1270 l 1
 1639 1622 l 1
 985 1622 l 1
 985 1270 l 1
 1149 1270 l 1
 1149 536 l 2
 1149 477.333333333 1131.66666667 431 1097 397 c 128
 1062.33333333 363 1014.33333333 346 953 346 c 0
 918.333333333 346 888.166666667 353.333333333 862.5 368 c 128
 836.833333333 382.666666667 817.166666667 402.5 803.5 427.5 c 128
 789.833333333 452.5 779.833333333 479.333333333 773.5 508 c 128
 767.166666667 536.666666667 764 567.333333333 764 600 c 2
 764 1270 l 1
 912 1270 l 1
 912 1622 l 1
 43 1622 l 1
 43 1270 l 1
 204 1270 l 1
 204 704 l 2
 204 645.333333333 206.5 591 211.5 541 c 128
 216.5 491 225.5 440.666666667 238.5 390 c 128
 251.5 339.333333333 268.333333333 293.666666667 289 253 c 128
 309.666666667 212.333333333 336.333333333 174 369 138 c 128
 401.666666667 102 439.5 72 482.5 48 c 128
 525.5 24 576.666666667 5.16666666667 636 -8.5 c 128
 695.333333333 -22.1666666667 761.333333333 -29 834 -29 c 0
 948 -29 1054.33333333 -6.33333333333 1153 39 c 128
 1251.66666667 84.3333333333 1331.66666667 149.5 1393 234.5 c 128
 1454.33333333 319.5 1485 414.666666667 1485 520 c 2
 1485 1270 l 1
EndSplineSet
EndChar

StartChar: V
Encoding: 86 86 57
Width: 1668
GlyphClass: 2
Flags: W
HStem: 1270 352<990 1099.35 1542.63 1684>
LayerCount: 2
Fore
SplineSet
743 1270 m 1
 859 1270 l 1
 859 1622 l 1
 -6 1622 l 1
 -6 1270 l 1
 160 1270 l 1
 521 0 l 1
 1105 0 l 1
 1459 1032 l 2
 1463 1043.33333333 1468.5 1059.66666667 1475.5 1081 c 0
 1482.5 1102.33333333 1487.5 1117.33333333 1490.5 1126 c 0
 1493.5 1134.66666667 1498.16666667 1147 1504.5 1163 c 0
 1510.83333333 1179 1516.33333333 1190.16666667 1521 1196.5 c 0
 1525.66666667 1202.83333333 1532 1211.33333333 1540 1222 c 0
 1548 1232.66666667 1556.16666667 1240 1564.5 1244 c 0
 1572.83333333 1248 1583 1252.5 1595 1257.5 c 0
 1607 1262.5 1620.33333333 1265.83333333 1635 1267.5 c 0
 1649.66666667 1269.16666667 1666 1270 1684 1270 c 1
 1684 1622 l 1
 990 1622 l 1
 990 1270 l 1
 1039.33333333 1270 1076.16666667 1262.16666667 1100.5 1246.5 c 0
 1124.83333333 1230.83333333 1137.33333333 1209 1138 1181 c 0
 1138.66666667 1153 1133 1119.66666667 1121 1081 c 2
 945 517 l 1
 743 1270 l 1
EndSplineSet
EndChar

StartChar: W
Encoding: 87 87 58
Width: 2460
GlyphClass: 2
Flags: HW
LayerCount: 2
Fore
SplineSet
-4 1623 m 1
 -5 1270 l 1
 139 1270 l 1
 488 0 l 1
 1025 0 l 1
 1227 706 l 1
 1420 0 l 1
 1963 0 l 1
 2284 1148 l 2
 2297.33333333 1195.33333333 2318.16666667 1227.5 2346.5 1244.5 c 128
 2374.83333333 1261.5 2417 1270 2473 1270 c 1
 2473 1623 l 1
 1822 1623 l 1
 1822 1270 l 1
 1871.33333333 1270 1904 1265.83333333 1920 1257.5 c 128
 1936 1249.16666667 1940 1230.33333333 1932 1201 c 2
 1797 703 l 1
 1544 1623 l 1
 1135 1623 l 1
 875 672 l 1
 716 1270 l 1
 857 1270 l 1
 857 1623 l 1
 -4 1623 l 1
EndSplineSet
EndChar

StartChar: X
Encoding: 88 88 59
Width: 1863
GlyphClass: 2
Flags: HW
LayerCount: 2
Fore
SplineSet
1798 1623 m 1
 1061 1623 l 1
 1061 1270 l 1
 1076.33333333 1270 1094.5 1265.83333333 1115.5 1257.5 c 128
 1136.5 1249.16666667 1147 1238.66666667 1147 1226 c 0
 1147 1215.33333333 1139.5 1196.5 1124.5 1169.5 c 128
 1109.5 1142.5 1094.33333333 1118 1079 1096 c 2
 1057 1064 l 1
 895 1270 l 1
 977 1270 l 1
 977 1623 l 1
 99 1623 l 1
 99 1270 l 1
 230 1270 l 1
 601 862 l 1
 314 493 l 1
 273.333333333 436.333333333 233.833333333 399.833333333 195.5 383.5 c 128
 157.166666667 367.166666667 94.6666666667 359 8 359 c 1
 8 0 l 1
 836 0 l 1
 830 359 l 1
 746 359 l 2
 728.666666667 359 713.666666667 364.666666667 701 376 c 128
 688.333333333 387.333333333 682 402 682 420 c 0
 682 429.333333333 684.166666667 440.5 688.5 453.5 c 128
 692.833333333 466.5 697.666666667 476.333333333 703 483 c 2
 813 634 l 1
 1056 359 l 1
 930 359 l 1
 930 0 l 1
 1829 0 l 1
 1829 359 l 1
 1707 359 l 1
 1278 829 l 1
 1536 1180 l 2
 1561.33333333 1215.33333333 1596 1239.16666667 1640 1251.5 c 128
 1684 1263.83333333 1736.66666667 1270 1798 1270 c 1
 1798 1623 l 1
EndSplineSet
EndChar

StartChar: Y
Encoding: 89 89 60
Width: 1559
GlyphClass: 2
Flags: HW
LayerCount: 2
Fore
SplineSet
1564 1622 m 1
 927 1622 l 1
 927 1270 l 1
 935 1270 935 1270 949.5 1270 c 128
 964 1270 964 1270 971 1270 c 128
 978 1270 978 1270 989 1270 c 128
 996.333333333 1270 1001.83333333 1269.5 1005.5 1268.5 c 128
 1009.16666667 1267.5 1013.5 1266.33333333 1018.5 1265 c 128
 1023.5 1263.66666667 1027.16666667 1261.66666667 1029.5 1259 c 128
 1031.83333333 1256.33333333 1034.33333333 1253.33333333 1037 1250 c 128
 1039.66666667 1246.66666667 1041.5 1242.5 1042.5 1237.5 c 128
 1043.5 1232.5 1044 1227 1044 1221 c 0
 1044 1184.33333333 1006 1108.33333333 930 993 c 1
 916 1013 885.5 1059.16666667 838.5 1131.5 c 128
 791.5 1203.83333333 760.666666667 1250 746 1270 c 1
 837 1270 l 1
 837 1622 l 1
 -15 1622 l 1
 -15 1270 l 1
 97 1270 l 1
 518 672 l 1
 518 359 l 1
 363 359 l 1
 363 0 l 1
 1232 0 l 1
 1232 359 l 1
 1075 359 l 1
 1075 724 l 1
 1279 1095 l 2
 1295 1125 1306.83333333 1146.5 1314.5 1159.5 c 128
 1322.16666667 1172.5 1332.66666667 1188 1346 1206 c 128
 1359.33333333 1224 1372 1236.5 1384 1243.5 c 128
 1396 1250.5 1410.83333333 1256.66666667 1428.5 1262 c 128
 1446.16666667 1267.33333333 1466.66666667 1270 1490 1270 c 2
 1564 1270 l 1
 1564 1622 l 1
EndSplineSet
EndChar

StartChar: Z
Encoding: 90 90 61
Width: 1607
GlyphClass: 2
Flags: HW
LayerCount: 2
Fore
SplineSet
1495 1293 m 1
 818 359 l 1
 1127 359 l 1
 1234 705 l 1
 1516 705 l 1
 1515 0 l 1
 106 0 l 1
 105 350 l 1
 784 1270 l 1
 469 1270 l 1
 389 938 l 1
 101 938 l 1
 101 1622 l 1
 1495 1622 l 1
 1495 1293 l 1
EndSplineSet
EndChar

StartChar: bracketleft
Encoding: 91 91 62
Width: 910
GlyphClass: 2
Flags: HW
LayerCount: 2
Fore
SplineSet
145 0 m 1
 145 1623 l 1
 859 1623 l 1
 859 1322 l 1
 662 1322 l 1
 662 311 l 1
 855 311 l 1
 854 0 l 1
 145 0 l 1
EndSplineSet
EndChar

StartChar: backslash
Encoding: 92 92 63
Width: 1031
GlyphClass: 2
Flags: HW
LayerCount: 2
Fore
SplineSet
400 0 m 1
 58 1623 l 1
 632 1623 l 1
 973 0 l 1
 400 0 l 1
EndSplineSet
EndChar

StartChar: bracketright
Encoding: 93 93 64
Width: 909
GlyphClass: 2
Flags: HW
LayerCount: 2
Fore
SplineSet
55 0 m 1
 54 311 l 1
 247 311 l 1
 247 1322 l 1
 50 1322 l 1
 50 1623 l 1
 764 1623 l 1
 764 0 l 1
 55 0 l 1
EndSplineSet
EndChar

StartChar: asciicircum
Encoding: 94 94 65
Width: 1707
GlyphClass: 2
Flags: HW
LayerCount: 2
Fore
SplineSet
1088 1624 m 1
 1584 909 l 1
 1119 909 l 1
 903 1242 l 1
 687 909 l 1
 222 909 l 1
 718 1624 l 1
 1088 1624 l 1
EndSplineSet
EndChar

StartChar: underscore
Encoding: 95 95 66
Width: 1165
GlyphClass: 2
Flags: HW
LayerCount: 2
Fore
SplineSet
1179 -1 m 1
 1179 -224 l 1
 -14 -224 l 1
 -14 -1 l 1
 1179 -1 l 1
EndSplineSet
EndChar

StartChar: grave
Encoding: 96 96 67
Width: 1016
GlyphClass: 2
Flags: HW
LayerCount: 2
Fore
SplineSet
281 1708 m 1
 755 1271 l 1
 651 1130 l 1
 97 1443 l 1
 281 1708 l 1
EndSplineSet
EndChar

StartChar: a
Encoding: 97 97 68
Width: 1322
GlyphClass: 2
Flags: W
HStem: -18 242<328.616 650.994> 438 192<366.908 731.985> 803 289<360.46 683.269>
VStem: 43 490<241.068 413.644>
LayerCount: 2
Fore
SplineSet
478 630 m 0
 255.816967832 630 43 528.964621587 43 308 c 0
 43 103.868495633 225.232446351 -18 432 -18 c 0
 556.478446149 -18 680.507734885 44.259886914 738 119 c 1
 788 0 l 1
 1280 0 l 5
 1280 305 l 5
 1184 305 l 1
 1184 750 l 2
 1184 1032.31831168 898.070254621 1092 616 1092 c 0
 491.98810406 1092 293.661639439 1063.76403782 200 1040 c 1
 133 1022 l 1
 133 708 l 1
 308 708 l 1
 356 771.333007812 427.666992188 803 523 803 c 0
 663.666992188 803 734 747.666992188 734 637 c 2
 734 592 l 1
 660.666992188 617.333007812 575.333007812 630 478 630 c 0
629 224 m 0
 570.036209594 224 533 266.856823623 533 326 c 0
 533 382.656135434 581.163347017 438 638 438 c 0
 674.076222524 438 712.118244645 425.886341198 737 417 c 1
 737 270 l 1
 719.63018006 248.292495257 672.988210323 224 629 224 c 0
EndSplineSet
EndChar

StartChar: b
Encoding: 98 98 69
Width: 1398
GlyphClass: 2
Flags: HW
LayerCount: 2
Fore
SplineSet
608 1631 m 1
 22 1631 l 5
 22 1325 l 5
 126 1325 l 1
 126 0 l 1
 576 0 l 1
 616 102 l 1
 681.333007812 55.3330078125 726.333007812 26 751 14 c 0
 795 -7.3330078125 842 -18 892 -18 c 0
 1204.62402344 -18 1365 227.609375 1365 538 c 0
 1365 788.190429688 1254.87695312 984.107421875 1077 1060 c 128
 1027 1081.33300781 972.333007812 1092 913 1092 c 0
 814.333007812 1092 712.666992188 1049.66699219 608 965 c 1
 608 1631 l 1
899 519 m 0
 899 411.229492188 846.985351562 328 747 328 c 0
 701.395507812 328 648.486328125 356.172851562 627 379 c 1
 612 396 l 1
 612 662 l 1
 634.248046875 706.512695312 679.297851562 758 747 758 c 0
 869.241210938 758 899 640.93359375 899 519 c 0
EndSplineSet
EndChar

StartChar: c
Encoding: 99 99 70
Width: 1094
GlyphClass: 2
Flags: HW
LayerCount: 2
Fore
SplineSet
660 778 m 0
 734.872734827 778 783 706.870469885 783 628 c 1
 1025 628 l 1
 1025 1072 l 1
 850 1072 l 1
 809 995 l 1
 728.333007812 1059.66699219 642.333007812 1092 551 1092 c 0
 296.30323144 1092 137.927075954 942.311574478 68.5 754 c 128
 44.1669921875 688 32 618.666992188 32 546 c 0
 32 200.341272305 242.323157176 -18 584 -18 c 0
 835.832972844 -18 1027 124 1027 124 c 2
 1027 425 l 1
 787 425 l 1
 773.602480266 358.051632722 741.824490376 295 660 295 c 0
 545.675311077 295 505 399.402672849 505 513 c 0
 505 648.689835433 547.046008334 778 660 778 c 0
EndSplineSet
EndChar

StartChar: d
Encoding: 100 100 71
Width: 1419
GlyphClass: 2
Flags: W
HStem: -19 338<486.427 669.933> 749 341<371.05 678.444>
VStem: 32 471<369.997 700.481>
LayerCount: 2
Fore
SplineSet
495 -19 m 0
 627.385597719 -17.5283306764 729.383542076 47.1786364522 790 128 c 1
 790 0 l 1
 1379 0 l 5
 1379 305 l 5
 1282 305 l 1
 1282 1640 l 1
 676 1640 l 1
 676 1335 l 1
 786 1335 l 1
 786 960 l 1
 706.908028979 1040.25566453 630.603035834 1090 487 1090 c 0
 255.099179578 1090 121.786053068 923.63368554 63.5 746 c 0
 42.5 682 32 616.666992188 32 550 c 0
 32 310.812597852 132.59655103 119.405588965 291 31.5 c 0
 351.666992188 -2.1669921875 419.666992188 -19 495 -19 c 0
503 558 m 0
 503 665.770805844 555.014984914 749 655 749 c 0
 700.604765799 749 753.513984635 720.827538983 775 698 c 1
 790 681 l 1
 790 415 l 1
 767.751592744 370.486886288 722.701900656 319 655 319 c 0
 532.758528551 319 503 436.066444219 503 558 c 0
EndSplineSet
EndChar

StartChar: e
Encoding: 101 101 72
Width: 1208
GlyphClass: 2
Flags: W
HStem: -18 240<594.121 814.412> 814 278<563.607 714.632>
VStem: 743.313 426.687<627 789.159>
LayerCount: 2
Fore
SplineSet
619 1092 m 0
 263.955740006 1092 32 872.93694917 32 521 c 0
 32 299.457615569 156.865545923 139.732686713 309.5 55 c 0
 397.166992188 6.3330078125 495 -18 603 -18 c 0
 843.53294481 -18 988.116759831 30.1147347126 1150 127 c 1
 1150 351 l 1
 843 351 l 1
 840.155699383 267.0733363 793.61447516 222 703 222 c 0
 585.446369866 222 526 333.581747253 526 456 c 1
 1128 456 l 1
 1165.19922506 457.128365736 1170 511.829343967 1170 555 c 0
 1170 882.719758327 951.160239223 1092 619 1092 c 0
528 656 m 2
 528 731.933239384 561.074125565 814 636 814 c 0
 724.908309486 814 743.31289573 736.22239878 743.31289573 647.890027053 c 0
 743.31289573 640.98054067 743.20028551 634.006473915 743 627 c 1
 528 627 l 1
 528 656 l 2
EndSplineSet
EndChar

StartChar: f
Encoding: 102 102 73
Width: 891
GlyphClass: 2
Flags: HW
LayerCount: 2
Fore
SplineSet
855 1563 m 1
 789.750976562 1586.30175781 649.114257812 1610 547 1610 c 0
 293.666992188 1610 167 1475.66699219 167 1207 c 0
 167 1118.99023438 169 1074 169 1072 c 1
 66 1072 l 5
 66 761 l 5
 170 761 l 1
 170 305 l 1
 66 305 l 5
 66 0 l 5
 786 0 l 1
 786 305 l 1
 656 305 l 1
 656 761 l 1
 828 761 l 1
 828 1072 l 1
 649 1072 l 1
 642.419921875 1190.44433594 657.537109375 1265 759 1265 c 0
 784.333007812 1265 816.333007812 1260.66699219 855 1252 c 1
 855 1563 l 1
EndSplineSet
EndChar

StartChar: g
Encoding: 103 103 74
Width: 1398
GlyphClass: 2
Flags: HW
LayerCount: 2
Fore
SplineSet
163 -328 m 1
 237.829674569 -368.294198847 417.473689815 -389 551 -389 c 0
 1013.66699219 -389 1245 -214.333007812 1245 135 c 2
 1245 761 l 1
 1352 761 l 5
 1352 1072 l 5
 879 1072 l 1
 846 997 l 1
 730.666992188 1059 622.333007812 1090 521 1090 c 0
 316.260723595 1090 165.430249225 953.944726131 93.5 809.5 c 128
 52.5 727.166992188 32 640 32 548 c 0
 32 315.17099805 142.267687706 147.060935075 305 71 c 128
 366.333007812 42.3330078125 434.333007812 28 509 28 c 0
 621.943450742 28 727.071095695 67.086386053 796 117 c 1
 796 -53.257005281 696.762762955 -87 527 -87 c 0
 408.333007812 -87 287 -64.3330078125 163 -19 c 1
 163 -328 l 1
660 299 m 0
 547.690860627 299 515 418.069262748 515 532 c 0
 515 643.181593827 543.453115374 760 652 760 c 0
 757.479899157 760 795 630.851301983 795 523 c 0
 795 422.480738618 759.924095963 299 660 299 c 0
EndSplineSet
EndChar

StartChar: h
Encoding: 104 104 75
Width: 1467
GlyphClass: 2
Flags: HW
LayerCount: 2
Fore
SplineSet
961 1090 m 0
 794.991210938 1090 719.901367188 1003.66796875 641 916 c 1
 641 1640 l 1
 48 1640 l 1
 48 1332 l 1
 152 1332 l 1
 152 305 l 1
 53 305 l 1
 53 0 l 1
 725 0 l 1
 725 305 l 1
 645 305 l 1
 645 626 l 2
 645 704.666992188 678.666992188 744 746 744 c 0
 800.666992188 744 829 702.3359375 829 619 c 2
 829 0 l 1
 1425 0 l 1
 1425 305 l 1
 1319 305 l 1
 1319 702 l 2
 1319 943.606445312 1196.69140625 1090 961 1090 c 0
EndSplineSet
EndChar

StartChar: i
Encoding: 105 105 76
Width: 795
GlyphClass: 2
Flags: HW
LayerCount: 2
Fore
SplineSet
651 1072 m 1
 61 1072 l 1
 61 761 l 1
 170 761 l 1
 170 305 l 1
 68 305 l 1
 68 0 l 1
 755 0 l 5
 755 305 l 5
 651 305 l 1
 651 1072 l 1
657 1385 m 0
 657 1228.78808594 527.571289062 1135 370 1135 c 0
 214.567382812 1135 93 1230.20410156 93 1385 c 0
 93 1539.57714844 213.227539062 1630 370 1630 c 0
 530.5703125 1630 657 1541.92675781 657 1385 c 0
EndSplineSet
EndChar

StartChar: j
Encoding: 106 106 77
Width: 721
GlyphClass: 2
Flags: HW
LayerCount: 2
Fore
SplineSet
150 -9 m 2
 150 -57.47265625 91.66796875 -77.408203125 43 -72 c 1
 45 -398 l 1
 448.233398438 -398 649 -268.831054688 649 129 c 2
 649 1072 l 1
 40 1072 l 1
 40 760 l 1
 150 760 l 1
 150 -9 l 2
652 1385 m 0
 652 1228.78808594 522.571289062 1135 365 1135 c 0
 209.567382812 1135 88 1230.20410156 88 1385 c 0
 88 1539.57714844 208.227539062 1630 365 1630 c 0
 525.5703125 1630 652 1541.92675781 652 1385 c 0
EndSplineSet
EndChar

StartChar: k
Encoding: 107 107 78
Width: 1460
GlyphClass: 2
Flags: W
HStem: 0 305<53 156 1253 1408> 761 311<756 851 1164.34 1390> 1614 20G<52 650>
VStem: 53 597<0 305 1330 1634> 156 494<305 438 587 1330>
LayerCount: 2
Fore
SplineSet
650 438 m 1xe8
 650 0 l 1
 53 0 l 1
 53 305 l 1xf0
 156 305 l 1
 156 1330 l 1xe8
 52 1330 l 1
 52 1634 l 1
 650 1634 l 1xf0
 650 587 l 1
 851 761 l 1
 756 761 l 1
 756 1072 l 1
 1390 1072 l 1
 1390 761 l 1
 1219 761 l 2
 1218.69042969 761.731445312 1046.796875 617.674804688 1046 618 c 2
 1253 305 l 1
 1408 305 l 1
 1408 0 l 1
 935 0 l 1
 650 438 l 1xe8
EndSplineSet
EndChar

StartChar: l
Encoding: 108 108 79
Width: 780
GlyphClass: 2
Flags: HW
LayerCount: 2
Fore
SplineSet
642 305 m 1
 740 305 l 1
 740 0 l 1
 53 0 l 5
 53 305 l 5
 147 305 l 1
 147 1317 l 1
 43 1317 l 5
 43 1630 l 5
 642 1630 l 1
 642 305 l 1
EndSplineSet
EndChar

StartChar: m
Encoding: 109 109 80
Width: 2070
GlyphClass: 2
Flags: HW
LayerCount: 2
Fore
SplineSet
1379 743 m 0
 1289.83398438 743 1259 666.206054688 1259 579 c 2
 1259 305 l 1
 1344 305 l 1
 1344 0 l 1
 822 0 l 1
 822 638 l 2
 822 704.666992188 784.666992188 738 710 738 c 0
 620.776367188 738 602 629.936523438 602 541 c 2
 602 303 l 1
 682 303 l 1
 682 0 l 1
 67 0 l 1
 67 299 l 1
 160 299 l 1
 160 761 l 1
 66 761 l 1
 66 1072 l 1
 602 1072 l 1
 602 902 l 1
 675.16015625 1003.13085938 799.14453125 1092 967 1092 c 0
 1102.31054688 1092 1188.47949219 995.94140625 1235 891 c 1
 1325 1025 1441.33300781 1092 1584 1092 c 0
 1808.73144531 1092 1934 958.069335938 1934 729 c 2
 1934 305 l 1
 2028 305 l 5
 2028 0 l 5
 1479 0 l 1
 1479 635 l 1
 1472.81835938 694.349609375 1442.52050781 743 1379 743 c 0
EndSplineSet
EndChar

StartChar: n
Encoding: 110 110 81
Width: 1484
GlyphClass: 2
Flags: W
HStem: 737 355<726.797 1122>
LayerCount: 2
Fore
SplineSet
1012 1092 m 0
 844.501953125 1092 722.19140625 1021.38671875 654 916 c 1
 654 1092 l 5
 71 1032 l 5
 71 761 l 5
 167 761 l 5
 167 305 l 1
 64 305 l 1
 64 0 l 1
 742 0 l 1
 742 305 l 1
 654 305 l 1
 654 624 l 2
 654 686.171875 695.594726562 737 758 737 c 0
 811.510742188 737 848 683.696289062 848 627 c 2
 848 0 l 1
 1442 0 l 1
 1442 305 l 1
 1342 305 l 1
 1342 680 l 2
 1342 954.666992188 1232 1092 1012 1092 c 0
EndSplineSet
EndChar

StartChar: o
Encoding: 111 111 82
Width: 1268
GlyphClass: 2
Flags: W
HStem: -18 312<547.217 720.79> 779 312<543.97 731.194>
VStem: 32 465<344.604 741.448> 771 465<344.571 734.854>
LayerCount: 2
Fore
SplineSet
634 -18 m 256
 272.999391742 -18 32 186.831412671 32 547 c 0
 32 902.385952978 272.513232176 1091 633 1091 c 0
 995.157613033 1091 1236 903.387715256 1236 547 c 0
 1236 186.662565895 995.073948287 -18 634 -18 c 256
634 779 m 0
 512.307772235 779 497 666.27044681 497 545 c 0
 497 377.666992188 542.666992188 294 634 294 c 0
 725.333007812 294 771 377.666992188 771 545 c 0
 771 666.293005352 755.696395535 779 634 779 c 0
EndSplineSet
EndChar

StartChar: p
Encoding: 112 112 83
Width: 1394
GlyphClass: 2
Flags: HW
LayerCount: 2
Fore
SplineSet
709 -397 m 1
 709 -96 l 1
 598 -96 l 1
 598 119 l 1
 625.333007812 97 645.666992188 81.1669921875 659 71.5 c 128
 672.333007812 61.8330078125 693.5 48.5 722.5 31.5 c 128
 751.5 14.5 781.166992188 2.1669921875 811.5 -5.5 c 128
 841.833007812 -13.1669921875 874.333007812 -17 909 -17 c 0
 981.666992188 -17 1047.5 -1.1669921875 1106.5 30.5 c 128
 1165.5 62.1669921875 1213.16699219 104.5 1249.5 157.5 c 128
 1285.83300781 210.5 1313.66699219 269.833007812 1333 335.5 c 128
 1352.33300781 401.166992188 1362 469.666992188 1362 541 c 0
 1362 613 1352 682 1332 748 c 128
 1312 814 1283.5 872.666992188 1246.5 924 c 128
 1209.5 975.333007812 1162 1016.33300781 1104 1047 c 128
 1046 1077.66699219 981.666992188 1093 911 1093 c 0
 849 1093 795.5 1082.16699219 750.5 1060.5 c 128
 705.5 1038.83300781 661.666992188 1004 619 956 c 1
 609 956 l 1
 609 1072 l 1
 45 1072 l 1
 45 761 l 1
 119 761 l 1
 119 -94 l 1
 35 -94 l 1
 35 -397 l 1
 709 -397 l 1
598 417 m 1
 598 645 l 1
 598.666992188 647.666992188 599.666992188 651 601 655 c 128
 602.333007812 659 606.333007812 666.5 613 677.5 c 128
 619.666992188 688.5 627.5 698.166992188 636.5 706.5 c 128
 645.5 714.833007812 658.166992188 722.333007812 674.5 729 c 128
 690.833007812 735.666992188 709.333007812 739 730 739 c 0
 838.666992188 739 893 674.333007812 893 545 c 0
 893 515.666992188 890.5 488.166992188 885.5 462.5 c 128
 880.5 436.833007812 872.166992188 412 860.5 388 c 128
 848.833007812 364 831.666992188 345 809 331 c 128
 786.333007812 317 759 310 727 310 c 0
 705.666992188 310 686.666992188 313.666992188 670 321 c 128
 653.333007812 328.333007812 640.666992188 337.333007812 632 348 c 128
 623.333007812 358.666992188 616.166992188 369.166992188 610.5 379.5 c 128
 604.833007812 389.833007812 601.333007812 398.666992188 600 406 c 2
 598 417 l 1
EndSplineSet
EndChar

StartChar: q
Encoding: 113 113 84
Width: 1399
GlyphClass: 2
Flags: HW
LayerCount: 2
Fore
SplineSet
685 -397 m 1
 685 -96 l 1
 796 -96 l 1
 796 128 l 1
 774 109.333007812 758.333007812 96.1669921875 749 88.5 c 128
 739.666992188 80.8330078125 723 68.6669921875 699 52 c 128
 675 35.3330078125 654 23.1669921875 636 15.5 c 128
 618 7.8330078125 595.333007812 0.5 568 -6.5 c 128
 540.666992188 -13.5 513 -17 485 -17 c 0
 423.666992188 -17 367.666992188 -6 317 16 c 128
 266.333007812 38 223.666992188 67.8330078125 189 105.5 c 128
 154.333007812 143.166992188 125 187.333007812 101 238 c 128
 77 288.666992188 59.5 341.833007812 48.5 397.5 c 128
 37.5 453.166992188 32 511 32 571 c 0
 32 639 42.8330078125 704.333007812 64.5 767 c 128
 86.1669921875 829.666992188 116.333007812 885.166992188 155 933.5 c 128
 193.666992188 981.833007812 242.333007812 1020.33300781 301 1049 c 128
 359.666992188 1077.66699219 423.666992188 1092 493 1092 c 0
 557.666992188 1092 612.5 1083.66699219 657.5 1067 c 128
 702.5 1050.33300781 748.333007812 1023 795 985 c 1
 805 985 l 1
 869 1072 l 1
 1349 1072 l 1
 1349 761 l 1
 1275 761 l 1
 1275 -94 l 1
 1359 -94 l 1
 1359 -398 l 1
 685 -397 l 1
796 526 m 1
 800 546.666992188 800.166992188 571 796.5 599 c 128
 792.833007812 627 787.333007812 653.5 780 678.5 c 128
 772.666992188 703.5 758.833007812 724.666992188 738.5 742 c 128
 718.166992188 759.333007812 693.333007812 768 664 768 c 0
 568.666992188 768 521 696.666992188 521 554 c 0
 521 515.333007812 524.666992188 480.333007812 532 449 c 128
 539.333007812 417.666992188 554.5 389.833007812 577.5 365.5 c 128
 600.5 341.166992188 630.333007812 329 667 329 c 0
 696.333007812 329 721.166992188 340 741.5 362 c 128
 761.833007812 384 776 409.333007812 784 438 c 128
 792 466.666992188 796 496 796 526 c 1
EndSplineSet
EndChar

StartChar: r
Encoding: 114 114 85
Width: 998
GlyphClass: 2
Flags: W
LayerCount: 2
Fore
SplineSet
620 1092 m 5
 67 1032 l 1
 67 761 l 1
 146 761 l 1
 146 305 l 1
 67 305 l 1
 67 0 l 1
 741 0 l 1
 741 305 l 1
 604 305 l 1
 604 426 l 2
 604 506.666992188 625 568.166992188 667 610.5 c 0
 709 652.833007812 766.666992188 674 840 674 c 1
 946 667 l 1
 946 1083 l 1
 880 1083 816.333007812 1067.33300781 755 1036 c 0
 693.666992188 1004.66699219 646.666992188 961 614 905 c 1
 610 909 l 1
 620 1092 l 5
EndSplineSet
EndChar

StartChar: s
Encoding: 115 115 86
Width: 1038
GlyphClass: 2
Flags: HW
LayerCount: 2
Fore
SplineSet
970 761 m 1
 970 1081 l 1
 802 1081 l 1
 775 1033 l 1
 768.333007812 1037.66699219 758.333007812 1043.16699219 745 1049.5 c 128
 731.666992188 1055.83300781 699.666992188 1064.5 649 1075.5 c 128
 598.333007812 1086.5 542.333007812 1092 481 1092 c 0
 400.333007812 1092 329.833007812 1080.33300781 269.5 1057 c 128
 209.166992188 1033.66699219 160.666992188 995.5 124 942.5 c 128
 87.3330078125 889.5 69 824 69 746 c 0
 69 694.666992188 78.1669921875 649.666992188 96.5 611 c 128
 114.833007812 572.333007812 138.5 541.666992188 167.5 519 c 128
 196.5 496.333007812 228.5 476.833007812 263.5 460.5 c 128
 298.5 444.166992188 333.666992188 430.333007812 369 419 c 128
 404.333007812 407.666992188 436.5 396.666992188 465.5 386 c 128
 494.5 375.333007812 518.166992188 361.833007812 536.5 345.5 c 128
 554.833007812 329.166992188 564 309.666992188 564 287 c 0
 564 261.666992188 552.833007812 242.333007812 530.5 229 c 128
 508.166992188 215.666992188 483.333007812 209 456 209 c 0
 412 209 374.666992188 227.166992188 344 263.5 c 128
 313.333007812 299.833007812 294 341 286 387 c 1
 65 387 l 1
 58 9 l 1
 235 9 l 1
 271 76 l 1
 337.666992188 13.3330078125 440.333007812 -18 579 -18 c 0
 714.333007812 -18 816.666992188 17 886 87 c 128
 955.333007812 157 990 259.666992188 990 395 c 0
 990 545.666992188 909.666992188 653.666992188 749 719 c 0
 739.666992188 722.333007812 719.333007812 728 688 736 c 128
 656.666992188 744 629.333007812 751.666992188 606 759 c 128
 582.666992188 766.333007812 561 777.666992188 541 793 c 128
 521 808.333007812 511 826 511 846 c 0
 511 869.333007812 520.166992188 887.5 538.5 900.5 c 128
 556.833007812 913.5 578.333007812 920 603 920 c 0
 625.666992188 920 648.666992188 914 672 902 c 128
 695.333007812 890 713.333007812 874.666992188 726 856 c 0
 728.666992188 852.666992188 733.666992188 843 741 827 c 128
 748.333007812 811 755 796 761 782 c 2
 769 761 l 1
 970 761 l 1
EndSplineSet
EndChar

StartChar: t
Encoding: 116 116 87
Width: 876
GlyphClass: 2
Flags: HW
LayerCount: 2
Fore
SplineSet
835 348 m 1
 793 338.666992188 757 334 727 334 c 0
 689.666992188 334 664 344.833007812 650 366.5 c 128
 636 388.166992188 629 412 629 438 c 2
 630 761 l 1
 782 761 l 1
 782 1072 l 1
 630 1072 l 1
 630 1406 l 1
 143 1301 l 1
 143 1072 l 1
 40 1072 l 1
 40 761 l 1
 148 761 l 1
 147 385 l 2
 145.666992188 116.333007812 272.333007812 -18 527 -18 c 0
 580.333007812 -18 632.666992188 -12.5 684 -1.5 c 128
 735.333007812 9.5 773.333007812 20.6669921875 798 32 c 2
 835 49 l 1
 835 348 l 1
EndSplineSet
EndChar

StartChar: u
Encoding: 117 117 88
Width: 1434
GlyphClass: 2
Flags: W
HStem: 761 271<39 135 724.5 820.5>
LayerCount: 2
Fore
SplineSet
1315.5 1092 m 1
 724.5 1032 l 1
 724.5 761 l 1
 820.5 761 l 1
 823 438 l 2
 823.504882812 372.731445312 783.357421875 318 719 318 c 0
 663.427734375 318 629 377.825195312 629 438 c 2
 629 1092 l 1
 39 1032 l 1
 39 761 l 1
 135 761 l 1
 135 385 l 2
 135 116.333007812 245 -18 465 -18 c 0
 632.6015625 -18 754.740234375 50.5078125 823 156 c 1
 823 0 l 1
 1393 0 l 1
 1393 305 l 1
 1317 305 l 1
 1315.5 1092 l 1
EndSplineSet
EndChar

StartChar: v
Encoding: 118 118 89
Width: 1391
GlyphClass: 2
Flags: W
HStem: 0 21G<486.88 917.534> 761 311<42 165.907 584.094 682 796 899.728 1219.09 1343>
LayerCount: 2
Fore
SplineSet
185 682 m 1
 160.938476562 740.030273438 126.870117188 761 42 761 c 1
 42 1072 l 1
 686 1072 l 1
 682 761 l 1
 622.272460938 761 562.916992188 744.735351562 590 680 c 2
 754 288 l 1
 895 680 l 2
 919.114257812 747.040039062 860.272460938 761 796 761 c 1
 796 1072 l 1
 1343 1072 l 1
 1343 761 l 1
 1258.12988281 761 1224.06152344 740.030273438 1200 682 c 2
 909 0 l 1
 496 0 l 1
 185 682 l 1
EndSplineSet
EndChar

StartChar: w
Encoding: 119 119 90
Width: 1985
GlyphClass: 2
Flags: HW
LayerCount: 2
Fore
SplineSet
813 0 m 1
 964 430 l 1
 1094 0 l 1
 1569 0 l 1
 1722 483 l 2
 1726 496.333007812 1731.5 515.5 1738.5 540.5 c 128
 1745.5 565.5 1751.16699219 584.833007812 1755.5 598.5 c 128
 1759.83300781 612.166992188 1766 629 1774 649 c 128
 1782 669 1790.33300781 684.5 1799 695.5 c 128
 1807.66699219 706.5 1818.5 717.666992188 1831.5 729 c 128
 1844.5 740.333007812 1859.83300781 748.5 1877.5 753.5 c 128
 1895.16699219 758.5 1915 761 1937 761 c 1
 1937 1072 l 1
 1380 1072 l 1
 1380 761 l 1
 1388 761 1394.83300781 760.833007812 1400.5 760.5 c 128
 1406.16699219 760.166992188 1413.16699219 759.833007812 1421.5 759.5 c 128
 1429.83300781 759.166992188 1436.66699219 758.166992188 1442 756.5 c 128
 1447.33300781 754.833007812 1453.33300781 752.833007812 1460 750.5 c 128
 1466.66699219 748.166992188 1471.66699219 745 1475 741 c 128
 1478.33300781 737 1481.33300781 732.333007812 1484 727 c 128
 1486.66699219 721.666992188 1488 715.166992188 1488 707.5 c 128
 1488 699.833007812 1486.66699219 691.333007812 1484 682 c 2
 1399 380 l 1
 1386.33300781 413.333007812 1361.83300781 487.666992188 1325.5 603 c 128
 1289.16699219 718.333007812 1256 825.333007812 1226 924 c 2
 1181 1072 l 1
 915 1072 l 1
 705 392 l 1
 592 761 l 1
 706 761 l 1
 706 1072 l 1
 42 1072 l 1
 42 761 l 1
 111 761 l 1
 369 0 l 1
 813 0 l 1
EndSplineSet
EndChar

StartChar: x
Encoding: 120 120 91
Width: 1235
GlyphClass: 2
Flags: W
HStem: 0 305<61 192 1076 1187> 761 311<81 190 1046 1156>
LayerCount: 2
Fore
SplineSet
1187 0 m 1
 734 0 l 1
 545 277 l 1
 338 0 l 1
 61 0 l 1
 61 305 l 1
 192 305 l 1
 372 512 l 1
 190 761 l 1
 81 761 l 1
 81 1072 l 1
 555 1072 l 1
 717 821 l 1
 902 1072 l 1
 1156 1072 l 1
 1156 761 l 1
 1046 761 l 1
 883 580 l 1
 1076 305 l 1
 1187 305 l 1
 1187 0 l 1
EndSplineSet
EndChar

StartChar: y
Encoding: 121 121 92
Width: 1460
GlyphClass: 2
Flags: HW
LayerCount: 2
Fore
SplineSet
399 -377 m 1
 1090 -377 l 1
 1090 -82 l 1
 858 -82 l 1
 1236 628 l 2
 1250 654.666992188 1260.33300781 673.5 1267 684.5 c 128
 1273.66699219 695.5 1284 708.333007812 1298 723 c 128
 1312 737.666992188 1328 747.666992188 1346 753 c 128
 1364 758.333007812 1386 761 1412 761 c 1
 1412 1072 l 1
 832 1072 l 1
 832 761 l 1
 878.666992188 761 908.666992188 757.666992188 922 751 c 0
 946.666992188 737.666992188 948.333007812 708 927 662 c 2
 830 454 l 1
 654 761 l 1
 722 761 l 1
 722 1072 l 1
 42 1072 l 1
 42 761 l 1
 130 761 l 1
 596 31 l 1
 399 -377 l 1
EndSplineSet
EndChar

StartChar: z
Encoding: 122 122 93
Width: 1196
GlyphClass: 2
Flags: HW
LayerCount: 2
Fore
SplineSet
59 0 m 1
 1144 0 l 1
 1144 451 l 1
 961 451 l 1
 954.333007812 426.333007812 947.5 405.833007812 940.5 389.5 c 128
 933.5 373.166992188 924.833007812 359.5 914.5 348.5 c 128
 904.166992188 337.5 894.833007812 329.166992188 886.5 323.5 c 128
 878.166992188 317.833007812 865 313.5 847 310.5 c 128
 829 307.5 813.5 305.833007812 800.5 305.5 c 128
 787.5 305.166992188 767 305 739 305 c 2
 638 305 l 1
 638 316 l 1
 1107 795 l 1
 1107 1072 l 1
 85 1072 l 1
 85 636 l 1
 282 636 l 1
 282 651.333007812 283.166992188 665 285.5 677 c 128
 287.833007812 689 292 699.333007812 298 708 c 128
 304 716.666992188 309.833007812 724.166992188 315.5 730.5 c 128
 321.166992188 736.833007812 329.833007812 741.833007812 341.5 745.5 c 128
 353.166992188 749.166992188 363 752.166992188 371 754.5 c 128
 379 756.833007812 391.333007812 758.333007812 408 759 c 128
 424.666992188 759.666992188 438 760.166992188 448 760.5 c 128
 458 760.833007812 473 761 493 761 c 2
 553 761 l 1
 553 750 l 1
 59 283 l 1
 59 0 l 1
EndSplineSet
EndChar

StartChar: braceleft
Encoding: 123 123 94
Width: 873
GlyphClass: 2
Flags: HW
LayerCount: 2
Fore
SplineSet
169 1128 m 0
 169 1206.66666667 182.166666667 1280.16666667 208.5 1348.5 c 128
 234.833333333 1416.83333333 273.666666667 1477.83333333 325 1531.5 c 128
 376.333333333 1585.16666667 444 1627.33333333 528 1658 c 128
 612 1688.66666667 707.666666667 1704 815 1704 c 1
 815 1373 l 1
 707 1373 653 1291 653 1127 c 0
 653 999.666666667 569.333333333 905 402 843 c 1
 569.333333333 781.666666667 653 687.333333333 653 560 c 0
 653 396 707 314 815 314 c 1
 815 -17 l 1
 707.666666667 -17 612 -1.66666666667 528 29 c 128
 444 59.6666666667 376.333333333 101.833333333 325 155.5 c 128
 273.666666667 209.166666667 234.833333333 270.166666667 208.5 338.5 c 128
 182.166666667 406.833333333 169 480.333333333 169 559 c 0
 169 580.333333333 167.166666667 599 163.5 615 c 128
 159.833333333 631 152.833333333 647.5 142.5 664.5 c 128
 132.166666667 681.5 115.333333333 695 92 705 c 128
 68.6666666667 715 39.3333333333 720.666666667 4 722 c 1
 4 965 l 1
 39.3333333333 966.333333333 68.6666666667 972 92 982 c 128
 115.333333333 992 132.166666667 1005.5 142.5 1022.5 c 128
 152.833333333 1039.5 159.833333333 1056 163.5 1072 c 128
 167.166666667 1088 169 1106.66666667 169 1128 c 0
EndSplineSet
EndChar

StartChar: bar
Encoding: 124 124 95
Width: 685
GlyphClass: 2
Flags: HW
LayerCount: 2
Fore
SplineSet
540 1623 m 1
 540 0 l 1
 145 0 l 1
 145 1623 l 1
 540 1623 l 1
EndSplineSet
EndChar

StartChar: braceright
Encoding: 125 125 96
Width: 872
GlyphClass: 2
Flags: HW
LayerCount: 2
Fore
SplineSet
704 1128 m 0
 704 1106.66666667 705.833333333 1088 709.5 1072 c 128
 713.166666667 1056 720.166666667 1039.5 730.5 1022.5 c 128
 740.833333333 1005.5 757.666666667 992 781 982 c 128
 804.333333333 972 833.666666667 966.333333333 869 965 c 1
 869 722 l 1
 833.666666667 720.666666667 804.333333333 715 781 705 c 128
 757.666666667 695 740.833333333 681.5 730.5 664.5 c 128
 720.166666667 647.5 713.166666667 631 709.5 615 c 128
 705.833333333 599 704 580.333333333 704 559 c 0
 704 480.333333333 690.833333333 406.833333333 664.5 338.5 c 128
 638.166666667 270.166666667 599.333333333 209.166666667 548 155.5 c 128
 496.666666667 101.833333333 429 59.6666666667 345 29 c 128
 261 -1.66666666667 165.333333333 -17 58 -17 c 1
 58 314 l 1
 166 314 220 396 220 560 c 0
 220 687.333333333 303.666666667 781.666666667 471 843 c 1
 303.666666667 905 220 999.666666667 220 1127 c 0
 220 1291 166 1373 58 1373 c 1
 58 1704 l 1
 165.333333333 1704 261 1688.66666667 345 1658 c 128
 429 1627.33333333 496.666666667 1585.16666667 548 1531.5 c 128
 599.333333333 1477.83333333 638.166666667 1416.83333333 664.5 1348.5 c 128
 690.833333333 1280.16666667 704 1206.66666667 704 1128 c 0
EndSplineSet
EndChar

StartChar: asciitilde
Encoding: 126 126 97
Width: 1289
GlyphClass: 2
Flags: HW
LayerCount: 2
Fore
SplineSet
914 629 m 0
 877.333333333 629 839.166666667 636 799.5 650 c 128
 759.833333333 664 722.666666667 680.833333333 688 700.5 c 128
 653.333333333 720.166666667 619.5 740 586.5 760 c 128
 553.5 780 519.5 797 484.5 811 c 128
 449.5 825 417.333333333 832 388 832 c 0
 370 832 348.333333333 820.666666667 323 798 c 128
 297.666666667 775.333333333 248.666666667 720.666666667 176 634 c 1
 45 720 l 1
 61 744.666666667 79.1666666667 778 99.5 820 c 128
 119.833333333 862 138.333333333 898.5 155 929.5 c 128
 171.666666667 960.5 191.333333333 991.833333333 214 1023.5 c 128
 236.666666667 1055.16666667 263.5 1079.5 294.5 1096.5 c 128
 325.5 1113.5 360.333333333 1122 399 1122 c 0
 435.666666667 1122 473.833333333 1115.16666667 513.5 1101.5 c 128
 553.166666667 1087.83333333 590.333333333 1071.16666667 625 1051.5 c 128
 659.666666667 1031.83333333 693.833333333 1012.33333333 727.5 993 c 128
 761.166666667 973.666666667 795.666666667 957.166666667 831 943.5 c 128
 866.333333333 929.833333333 898.666666667 923 928 923 c 0
 944.666666667 923 966.5 934.666666667 993.5 958 c 128
 1020.5 981.333333333 1068.33333333 1034.33333333 1137 1117 c 1
 1266 1032 l 1
 1250 1008 1231.83333333 975.166666667 1211.5 933.5 c 128
 1191.16666667 891.833333333 1172.83333333 855.166666667 1156.5 823.5 c 128
 1140.16666667 791.833333333 1120.66666667 760.166666667 1098 728.5 c 128
 1075.33333333 696.833333333 1048.66666667 672.333333333 1018 655 c 128
 987.333333333 637.666666667 952.666666667 629 914 629 c 0
EndSplineSet
EndChar

StartChar: exclamdown
Encoding: 161 161 99
Width: 804
GlyphClass: 2
Flags: HW
LayerCount: 2
Fore
SplineSet
611 1072 m 1
 190 1074 l 1
 108 299 l 1
 108 0 l 1
 695 0 l 1
 695 299 l 1
 611 1072 l 1
400 1158 m 0
 320.666666667 1158 254.666666667 1180.5 202 1225.5 c 128
 149.333333333 1270.5 123 1331.33333333 123 1408 c 0
 123 1483.33333333 148.833333333 1543 200.5 1587 c 128
 252.166666667 1631 318.666666667 1653 400 1653 c 0
 484.666666667 1653 553.666666667 1631 607 1587 c 128
 660.333333333 1543 687 1483.33333333 687 1408 c 0
 687 1331.33333333 659.5 1270.5 604.5 1225.5 c 128
 549.5 1180.5 481.333333333 1158 400 1158 c 0
EndSplineSet
EndChar

StartChar: cent
Encoding: 162 162 100
Width: 1149
GlyphClass: 2
Flags: HW
LayerCount: 2
Fore
SplineSet
733 1362 m 1
 733 1057 l 1
 766.333333333 1041.66666667 799.666666667 1021 833 995 c 1
 874 1072 l 1
 1049 1072 l 1
 1049 628 l 1
 807 628 l 1
 807 660.666666667 800.166666667 689.166666667 786.5 713.5 c 128
 772.833333333 737.833333333 755 755.333333333 733 766 c 1
 733 305 l 1
 745.666666667 310.333333333 757 318.333333333 767 329 c 128
 777 339.666666667 784.666666667 350 790 360 c 128
 795.333333333 370 799.666666667 380.666666667 803 392 c 128
 806.333333333 403.333333333 808.5 411 809.5 415 c 128
 810.5 419 811 422.333333333 811 425 c 1
 1051 425 l 1
 1051 124 l 1
 982.333333333 55.3333333333 876.333333333 11 733 -9 c 1
 733 -261 l 1
 621 -261 l 1
 621 -18 l 1
 608 -18 l 2
 502.666666667 -18 408.833333333 3.16666666667 326.5 45.5 c 128
 244.166666667 87.8333333333 178.5 152.166666667 129.5 238.5 c 128
 80.5 324.833333333 56 427.333333333 56 546 c 0
 56 618.666666667 68.1666666667 688 92.5 754 c 128
 116.833333333 820 150.833333333 878 194.5 928 c 128
 238.166666667 978 293 1017.83333333 359 1047.5 c 128
 425 1077.16666667 497 1092 575 1092 c 0
 590.333333333 1092 605.666666667 1091 621 1089 c 1
 621 1362 l 1
 733 1362 l 1
529 513 m 0
 529 468.333333333 536.333333333 427 551 389 c 128
 565.666666667 351 589 324.333333333 621 309 c 1
 621 759 l 1
 559.666666667 720.333333333 529 638.333333333 529 513 c 0
EndSplineSet
EndChar

StartChar: sterling
Encoding: 163 163 101
Width: 1285
GlyphClass: 2
Flags: HW
LayerCount: 2
Fore
SplineSet
745 365 m 1
 776 356 l 1
 797.333333333 350.666666667 832.666666667 345.166666667 882 339.5 c 128
 931.333333333 333.833333333 984.333333333 331 1041 331 c 0
 1091.66666667 331 1150 334 1216 340 c 1
 1216 29 l 1
 1124.66666667 -2.33333333333 1034 -18 944 -18 c 0
 774.666666667 -18 690 39 690 153 c 1
 620.666666667 38.3333333333 506.666666667 -19 348 -19 c 0
 273.333333333 -19 179 -3 65 29 c 1
 65 340 l 1
 103.666666667 331.333333333 135.666666667 327 161 327 c 0
 202.333333333 327 231 340.833333333 247 368.5 c 128
 263 396.166666667 271 446.666666667 271 520 c 2
 271 760 l 1
 147 760 l 1
 147 993 l 1
 271 993 l 1
 271 1207 l 2
 271 1264.33333333 282.833333333 1316.16666667 306.5 1362.5 c 128
 330.166666667 1408.83333333 361.166666667 1447 399.5 1477 c 128
 437.833333333 1507 483.166666667 1532.16666667 535.5 1552.5 c 128
 587.833333333 1572.83333333 641.333333333 1587.33333333 696 1596 c 128
 750.666666667 1604.66666667 807 1609 865 1609 c 0
 988.333333333 1609 1094 1593.66666667 1182 1563 c 1
 1182 1252 l 1
 1100.66666667 1260.66666667 1031.33333333 1265 974 1265 c 0
 900 1265 843.333333333 1253.83333333 804 1231.5 c 128
 764.666666667 1209.16666667 745 1171 745 1117 c 2
 745 993 l 1
 998 993 l 1
 998 760 l 1
 745 760 l 1
 745 519 l 1
 745 365 l 1
EndSplineSet
EndChar

StartChar: currency
Encoding: 164 164 102
Width: 1292
GlyphClass: 2
Flags: HW
LayerCount: 2
Fore
SplineSet
70 1097 m 0
 70 1237 108.333333333 1354.66666667 185 1450 c 1
 118 1518 l 1
 221 1621 l 1
 292 1549 l 1
 394 1619 511.333333333 1654 644 1654 c 0
 780.666666667 1654 900 1617.33333333 1002 1544 c 1
 1079 1621 l 1
 1182 1518 l 1
 1108 1444 l 1
 1181.33333333 1349.33333333 1218 1233.66666667 1218 1097 c 0
 1218 955 1179 836.333333333 1101 741 c 1
 1182 660 l 1
 1079 557 l 1
 993 643 l 1
 892.333333333 574.333333333 776 540 644 540 c 0
 514.666666667 540 400.666666667 572.666666667 302 638 c 1
 221 557 l 1
 118 660 l 1
 192 734 l 1
 110.666666667 830.666666667 70 951.666666667 70 1097 c 0
991 1269 m 1
 969.666666667 1321 940.833333333 1362.83333333 904.5 1394.5 c 128
 868.166666667 1426.16666667 827.666666667 1450.5 783 1467.5 c 128
 738.333333333 1484.5 692 1493 644 1493 c 128
 596 1493 549.666666667 1484.5 505 1467.5 c 128
 460.333333333 1450.5 419.833333333 1426.16666667 383.5 1394.5 c 128
 347.166666667 1362.83333333 318.166666667 1321.16666667 296.5 1269.5 c 128
 274.833333333 1217.83333333 264 1160.33333333 264 1097 c 128
 264 1033.66666667 274.833333333 976.166666667 296.5 924.5 c 128
 318.166666667 872.833333333 347.166666667 831.166666667 383.5 799.5 c 128
 419.833333333 767.833333333 460.333333333 743.5 505 726.5 c 128
 549.666666667 709.5 596 701 644 701 c 128
 692 701 738.333333333 709.5 783 726.5 c 128
 827.666666667 743.5 868.166666667 767.833333333 904.5 799.5 c 128
 940.833333333 831.166666667 969.833333333 872.833333333 991.5 924.5 c 128
 1013.16666667 976.166666667 1024 1033.66666667 1024 1097 c 128
 1024 1160.33333333 1013 1217.66666667 991 1269 c 1
EndSplineSet
EndChar

StartChar: yen
Encoding: 165 165 103
Width: 1708
GlyphClass: 2
Flags: HW
LayerCount: 2
Fore
SplineSet
171 936 m 1
 171 762 l 1
 530 762 l 1
 593 672 l 1
 593 630 l 1
 171 630 l 1
 171 456 l 1
 593 456 l 1
 593 371 l 1
 438 371 l 1
 438 0 l 1
 1307 0 l 1
 1307 371 l 1
 1150 371 l 1
 1150 456 l 1
 1564 456 l 1
 1564 630 l 1
 1150 630 l 1
 1150 762 l 1
 1564 762 l 1
 1564 936 l 1
 1253 936 l 1
 1354 1095 l 1
 1370.66666667 1125.66666667 1382.66666667 1147.33333333 1390 1160 c 128
 1397.33333333 1172.66666667 1407.83333333 1188.16666667 1421.5 1206.5 c 128
 1435.16666667 1224.83333333 1447.83333333 1237.5 1459.5 1244.5 c 128
 1471.16666667 1251.5 1485.83333333 1257.83333333 1503.5 1263.5 c 128
 1521.16666667 1269.16666667 1541.66666667 1272 1565 1272 c 2
 1639 1272 l 1
 1639 1622 l 1
 1002 1622 l 1
 1002 1272 l 1
 1052 1272 1082 1270 1092 1266 c 0
 1110 1260 1119 1245 1119 1221 c 0
 1119 1184.33333333 1081 1108.33333333 1005 993 c 1
 991 1013.66666667 960.5 1060.66666667 913.5 1134 c 128
 866.5 1207.33333333 835.666666667 1254 821 1274 c 1
 912 1274 l 1
 912 1622 l 1
 60 1622 l 1
 60 1274 l 1
 172 1274 l 1
 408 936 l 1
 171 936 l 1
EndSplineSet
EndChar

StartChar: brokenbar
Encoding: 166 166 104
Width: 687
GlyphClass: 2
Flags: HW
LayerCount: 2
Fore
SplineSet
541 721 m 1
 541 0 l 1
 146 0 l 1
 146 721 l 1
 541 721 l 1
541 1623 m 1
 541 902 l 1
 146 902 l 1
 146 1623 l 1
 541 1623 l 1
EndSplineSet
EndChar

StartChar: section
Encoding: 167 167 105
Width: 1080
GlyphClass: 2
Flags: HW
LayerCount: 2
Fore
SplineSet
76 837 m 0
 76 893.666666667 94.6666666667 945.666666667 132 993 c 128
 169.333333333 1040.33333333 218.666666667 1075 280 1097 c 1
 170 1176.33333333 115 1262.66666667 115 1356 c 0
 115 1434.66666667 148.833333333 1501.33333333 216.5 1556 c 128
 284.166666667 1610.66666667 367.333333333 1638 466 1638 c 0
 500.666666667 1638 533.666666667 1635.66666667 565 1631 c 128
 596.333333333 1626.33333333 621.166666667 1621 639.5 1615 c 128
 657.833333333 1609 674.833333333 1602.33333333 690.5 1595 c 128
 706.166666667 1587.66666667 716.166666667 1582.5 720.5 1579.5 c 128
 724.833333333 1576.5 728 1574 730 1572 c 1
 757 1623 l 1
 925 1623 l 1
 925 1300 l 1
 724 1300 l 1
 681 1395 l 1
 669.666666667 1416.33333333 654.5 1433.5 635.5 1446.5 c 128
 616.5 1459.5 597.333333333 1466 578 1466 c 0
 556.666666667 1466 537.5 1458.16666667 520.5 1442.5 c 128
 503.5 1426.83333333 495 1405 495 1377 c 0
 495 1358.33333333 504.5 1339.33333333 523.5 1320 c 128
 542.5 1300.66666667 567.333333333 1282 598 1264 c 128
 628.666666667 1246 662.333333333 1227 699 1207 c 128
 735.666666667 1187 772.333333333 1165 809 1141 c 128
 845.666666667 1117 879.333333333 1091.5 910 1064.5 c 128
 940.666666667 1037.5 965.5 1005.83333333 984.5 969.5 c 128
 1003.5 933.166666667 1013 895 1013 855 c 0
 1013 785.666666667 994.333333333 723.333333333 957 668 c 128
 919.666666667 612.666666667 867.666666667 575 801 555 c 1
 908.333333333 489.666666667 962 403.333333333 962 296 c 0
 962 215.333333333 927.666666667 142.833333333 859 78.5 c 128
 790.333333333 14.1666666667 706 -18 606 -18 c 0
 542.666666667 -18 487.5 -12.5 440.5 -1.5 c 128
 393.5 9.5 352.666666667 32.6666666667 318 68 c 1
 282 1 l 1
 112 1 l 1
 112 379 l 1
 333 379 l 1
 341 333.666666667 361.333333333 294 394 260 c 128
 426.666666667 226 466.333333333 209 513 209 c 0
 535.666666667 209 556 215.666666667 574 229 c 128
 592 242.333333333 601 261.666666667 601 287 c 0
 601 311 591.333333333 334.833333333 572 358.5 c 128
 552.666666667 382.166666667 527.5 404.333333333 496.5 425 c 128
 465.5 445.666666667 431.333333333 466.666666667 394 488 c 128
 356.666666667 509.333333333 319.5 532.166666667 282.5 556.5 c 128
 245.5 580.833333333 211.5 606.333333333 180.5 633 c 128
 149.5 659.666666667 124.333333333 690.666666667 105 726 c 128
 85.6666666667 761.333333333 76 798.333333333 76 837 c 0
497 988 m 1
 429 954.666666667 395 918 395 878 c 0
 395 846 417.833333333 813.666666667 463.5 781 c 128
 509.166666667 748.333333333 567.333333333 717.666666667 638 689 c 1
 695.333333333 725.666666667 724 769.666666667 724 821 c 0
 724 853.666666667 701.833333333 885 657.5 915 c 128
 613.166666667 945 559.666666667 969.333333333 497 988 c 1
EndSplineSet
EndChar

StartChar: dieresis
Encoding: 168 168 106
Width: 1707
GlyphClass: 2
Flags: HW
LayerCount: 2
Fore
SplineSet
720 1342 m 0
 720 1270 697.833333333 1213.66666667 653.5 1173 c 128
 609.166666667 1132.33333333 556.666666667 1112 496 1112 c 0
 434 1112 380.5 1132.5 335.5 1173.5 c 128
 290.5 1214.5 268 1271.66666667 268 1345 c 0
 268 1416.33333333 290.333333333 1472 335 1512 c 128
 379.666666667 1552 432.666666667 1572 494 1572 c 128
 555.333333333 1572 608.333333333 1551.83333333 653 1511.5 c 128
 697.666666667 1471.16666667 720 1414.66666667 720 1342 c 0
1337 1342 m 0
 1337 1270 1314.83333333 1213.66666667 1270.5 1173 c 128
 1226.16666667 1132.33333333 1173.66666667 1112 1113 1112 c 0
 1051 1112 997.5 1132.5 952.5 1173.5 c 128
 907.5 1214.5 885 1271.66666667 885 1345 c 0
 885 1416.33333333 907.333333333 1472 952 1512 c 128
 996.666666667 1552 1049.66666667 1572 1111 1572 c 128
 1172.33333333 1572 1225.33333333 1551.83333333 1270 1511.5 c 128
 1314.66666667 1471.16666667 1337 1414.66666667 1337 1342 c 0
EndSplineSet
EndChar

StartChar: copyright
Encoding: 169 169 107
Width: 1806
GlyphClass: 2
Flags: HW
LayerCount: 2
Fore
SplineSet
129 1106 m 0
 173.666666667 1206 233.5 1292.16666667 308.5 1364.5 c 128
 383.5 1436.83333333 472.833333333 1494.5 576.5 1537.5 c 128
 680.166666667 1580.5 789 1602 903 1602 c 128
 1017 1602 1125.83333333 1580.5 1229.5 1537.5 c 128
 1333.16666667 1494.5 1422.5 1436.83333333 1497.5 1364.5 c 128
 1572.5 1292.16666667 1632.16666667 1206 1676.5 1106 c 128
 1720.83333333 1006 1743 901.333333333 1743 792 c 128
 1743 682.666666667 1720.83333333 578 1676.5 478 c 128
 1632.16666667 378 1572.5 291.833333333 1497.5 219.5 c 128
 1422.5 147.166666667 1333.16666667 89.5 1229.5 46.5 c 128
 1125.83333333 3.5 1017 -18 903 -18 c 128
 789 -18 680.166666667 3.5 576.5 46.5 c 128
 472.833333333 89.5 383.5 147.166666667 308.5 219.5 c 128
 233.5 291.833333333 173.833333333 378 129.5 478 c 128
 85.1666666667 578 63 682.666666667 63 792 c 128
 63 901.333333333 85 1006 129 1106 c 0
903 1448 m 0
 813 1448 727 1430.66666667 645 1396 c 128
 563 1361.33333333 492.166666667 1314.66666667 432.5 1256 c 128
 372.833333333 1197.33333333 325.333333333 1127.5 290 1046.5 c 128
 254.666666667 965.5 237 880.666666667 237 792 c 128
 237 703.333333333 254.666666667 618.5 290 537.5 c 128
 325.333333333 456.5 372.833333333 386.666666667 432.5 328 c 128
 492.166666667 269.333333333 563 222.666666667 645 188 c 128
 727 153.333333333 813 136 903 136 c 0
 1023 136 1134.16666667 165.333333333 1236.5 224 c 128
 1338.83333333 282.666666667 1419.83333333 362.333333333 1479.5 463 c 128
 1539.16666667 563.666666667 1569 673.333333333 1569 792 c 128
 1569 910.666666667 1539.16666667 1020.33333333 1479.5 1121 c 128
 1419.83333333 1221.66666667 1338.83333333 1301.33333333 1236.5 1360 c 128
 1134.16666667 1418.66666667 1023 1448 903 1448 c 0
1275 398 m 1
 1257 383 l 2
 1245 373 1226.66666667 360.833333333 1202 346.5 c 128
 1177.33333333 332.166666667 1149.66666667 317.833333333 1119 303.5 c 128
 1088.33333333 289.166666667 1051 277 1007 267 c 128
 963 257 919 252 875 252 c 0
 717.666666667 252 597.166666667 299.333333333 513.5 394 c 128
 429.833333333 488.666666667 388 617.333333333 388 780 c 0
 388 833.333333333 393 885.333333333 403 936 c 128
 413 986.666666667 429.333333333 1035.33333333 452 1082 c 128
 474.666666667 1128.66666667 502.5 1169.33333333 535.5 1204 c 128
 568.5 1238.66666667 609.666666667 1266.33333333 659 1287 c 128
 708.333333333 1307.66666667 762.666666667 1318 822 1318 c 0
 930 1318 1006 1296.66666667 1050 1254 c 1
 1072 1299 l 1
 1269 1299 l 1
 1269 898 l 1
 1080 898 l 1
 1080.66666667 928.666666667 1076.66666667 957.666666667 1068 985 c 128
 1059.33333333 1012.33333333 1043.33333333 1036.33333333 1020 1057 c 128
 996.666666667 1077.66666667 967.333333333 1088 932 1088 c 0
 908.666666667 1088 888.333333333 1084 871 1076 c 128
 853.666666667 1068 839.666666667 1056.16666667 829 1040.5 c 128
 818.333333333 1024.83333333 809.666666667 1008.83333333 803 992.5 c 128
 796.333333333 976.166666667 791.5 956.166666667 788.5 932.5 c 128
 785.5 908.833333333 783.666666667 888.666666667 783 872 c 128
 782.333333333 855.333333333 782 835.333333333 782 812 c 0
 782 807.333333333 781.833333333 795.5 781.5 776.5 c 128
 781.166666667 757.5 781.166666667 743.833333333 781.5 735.5 c 128
 781.833333333 727.166666667 782.333333333 713.333333333 783 694 c 128
 783.666666667 674.666666667 785 659.833333333 787 649.5 c 128
 789 639.166666667 791.833333333 625.666666667 795.5 609 c 128
 799.166666667 592.333333333 803.666666667 579.166666667 809 569.5 c 128
 814.333333333 559.833333333 821 549.166666667 829 537.5 c 128
 837 525.833333333 846.166666667 516.833333333 856.5 510.5 c 128
 866.833333333 504.166666667 879 498.833333333 893 494.5 c 128
 907 490.166666667 922.666666667 488 940 488 c 0
 974.666666667 488 1004.83333333 497.833333333 1030.5 517.5 c 128
 1056.16666667 537.166666667 1072.33333333 564 1079 598 c 0
 1081 606.666666667 1082.66666667 626.666666667 1084 658 c 1
 1275 658 l 1
 1275 398 l 1
EndSplineSet
EndChar

StartChar: ordfeminine
Encoding: 170 170 108
Width: 999
GlyphClass: 2
Flags: HW
LayerCount: 2
Fore
SplineSet
37 1046 m 0
 37 1084 46.1666666667 1118.5 64.5 1149.5 c 128
 82.8333333333 1180.5 107.333333333 1205.66666667 138 1225 c 128
 168.666666667 1244.33333333 202.833333333 1259 240.5 1269 c 128
 278.166666667 1279 317.333333333 1284 358 1284 c 0
 430 1284 493 1274.66666667 547 1256 c 1
 547 1289 l 2
 547 1370.33333333 495 1411 391 1411 c 0
 321 1411 268.333333333 1387.66666667 233 1341 c 1
 103 1341 l 1
 103 1573 l 1
 153 1586 l 2
 185.666666667 1594.66666667 231.833333333 1603.33333333 291.5 1612 c 128
 351.166666667 1620.66666667 407.333333333 1625 460 1625 c 0
 480 1625 498.166666667 1624.66666667 514.5 1624 c 128
 530.833333333 1623.33333333 554.333333333 1621.33333333 585 1618 c 128
 615.666666667 1614.66666667 643 1609.83333333 667 1603.5 c 128
 691 1597.16666667 716.833333333 1587.83333333 744.5 1575.5 c 128
 772.166666667 1563.16666667 795.166666667 1548.33333333 813.5 1531 c 128
 831.833333333 1513.66666667 847.333333333 1491.33333333 860 1464 c 128
 872.666666667 1436.66666667 879 1406 879 1372 c 2
 879 1044 l 1
 935 1044 l 1
 935 819 l 1
 587 819 l 1
 550 907 l 1
 525.333333333 875 491.666666667 850.166666667 449 832.5 c 128
 406.333333333 814.833333333 364.666666667 806 324 806 c 0
 244.666666667 806 177 827.666666667 121 871 c 128
 65 914.333333333 37 972.666666667 37 1046 c 0
399 1060 m 0
 399 1037.33333333 405.333333333 1019 418 1005 c 128
 430.666666667 991 447.666666667 984 469 984 c 0
 485 984 499.833333333 987.166666667 513.5 993.5 c 128
 527.166666667 999.833333333 536 1005 540 1009 c 128
 546 1015 546 1015 549 1018 c 1
 549 1127 l 1
 539 1131 l 2
 531.666666667 1133.66666667 522 1136.16666667 510 1138.5 c 128
 498 1140.83333333 486.666666667 1142 476 1142 c 0
 454.666666667 1142 436.5 1133.5 421.5 1116.5 c 128
 406.5 1099.5 399 1080.66666667 399 1060 c 0
EndSplineSet
EndChar

StartChar: guillemotleft
Encoding: 171 171 109
Width: 1306
GlyphClass: 2
Flags: HW
LayerCount: 2
Fore
SplineSet
643 669 m 1
 1069 1073 l 1
 1260 849 l 1
 945 534 l 1
 1260 219 l 1
 1069 -5 l 1
 643 399 l 1
 643 669 l 1
33 669 m 1
 459 1073 l 1
 650 849 l 1
 335 534 l 1
 650 219 l 1
 459 -5 l 1
 33 399 l 1
 33 669 l 1
EndSplineSet
EndChar

StartChar: logicalnot
Encoding: 172 172 110
Width: 1195
GlyphClass: 2
Flags: HW
LayerCount: 2
Fore
SplineSet
78 1092 m 1
 1089 1092 l 1
 1089 542 l 1
 858 542 l 1
 858 761 l 1
 79 761 l 1
 78 1092 l 1
EndSplineSet
EndChar

StartChar: uni00AD
Encoding: 173 173 111
Width: 774
GlyphClass: 2
Flags: HW
LayerCount: 2
Fore
SplineSet
717 836 m 1
 717 537 l 1
 70 537 l 1
 70 836 l 1
 717 836 l 1
EndSplineSet
EndChar

StartChar: registered
Encoding: 174 174 112
Width: 1806
GlyphClass: 2
Flags: HW
LayerCount: 2
Fore
SplineSet
129 1106 m 0
 173.666666667 1206 233.5 1292.16666667 308.5 1364.5 c 128
 383.5 1436.83333333 472.833333333 1494.5 576.5 1537.5 c 128
 680.166666667 1580.5 789 1602 903 1602 c 128
 1017 1602 1125.83333333 1580.5 1229.5 1537.5 c 128
 1333.16666667 1494.5 1422.5 1436.83333333 1497.5 1364.5 c 128
 1572.5 1292.16666667 1632.16666667 1206 1676.5 1106 c 128
 1720.83333333 1006 1743 901.333333333 1743 792 c 128
 1743 682.666666667 1720.83333333 578 1676.5 478 c 128
 1632.16666667 378 1572.5 291.833333333 1497.5 219.5 c 128
 1422.5 147.166666667 1333.16666667 89.5 1229.5 46.5 c 128
 1125.83333333 3.5 1017 -18 903 -18 c 128
 789 -18 680.166666667 3.5 576.5 46.5 c 128
 472.833333333 89.5 383.5 147.166666667 308.5 219.5 c 128
 233.5 291.833333333 173.833333333 378 129.5 478 c 128
 85.1666666667 578 63 682.666666667 63 792 c 128
 63 901.333333333 85 1006 129 1106 c 0
903 1448 m 0
 813 1448 727 1430.66666667 645 1396 c 128
 563 1361.33333333 492.166666667 1314.66666667 432.5 1256 c 128
 372.833333333 1197.33333333 325.333333333 1127.5 290 1046.5 c 128
 254.666666667 965.5 237 880.666666667 237 792 c 128
 237 703.333333333 254.666666667 618.5 290 537.5 c 128
 325.333333333 456.5 372.833333333 386.666666667 432.5 328 c 128
 492.166666667 269.333333333 563 222.666666667 645 188 c 128
 727 153.333333333 813 136 903 136 c 0
 1023 136 1134.16666667 165.333333333 1236.5 224 c 128
 1338.83333333 282.666666667 1419.83333333 362.333333333 1479.5 463 c 128
 1539.16666667 563.666666667 1569 673.333333333 1569 792 c 128
 1569 910.666666667 1539.16666667 1020.33333333 1479.5 1121 c 128
 1419.83333333 1221.66666667 1338.83333333 1301.33333333 1236.5 1360 c 128
 1134.16666667 1418.66666667 1023 1448 903 1448 c 0
923 363 m 1
 825 363 675 362.666666667 473 362 c 1
 473 565 l 1
 558 565 l 1
 558 1061 l 1
 472 1061 l 1
 472 1265 l 1
 1036 1265 l 2
 1130.66666667 1265 1203.5 1245.33333333 1254.5 1206 c 128
 1305.5 1166.66666667 1331 1102.66666667 1331 1014 c 0
 1331 960 1313.66666667 915.666666667 1279 881 c 128
 1244.33333333 846.333333333 1195 823.333333333 1131 812 c 1
 1185.66666667 799.333333333 1225 781.666666667 1249 759 c 128
 1273 736.333333333 1285 708 1285 674 c 2
 1285 622 l 2
 1285 600 1290.5 584.5 1301.5 575.5 c 128
 1312.5 566.5 1337.33333333 562 1376 562 c 1
 1376 363 l 1
 1230 363 l 2
 1203.33333333 363 1182.66666667 363.333333333 1168 364 c 128
 1153.33333333 364.666666667 1134.66666667 367.5 1112 372.5 c 128
 1089.33333333 377.5 1072 384.666666667 1060 394 c 128
 1048 403.333333333 1037.33333333 417.333333333 1028 436 c 128
 1018.66666667 454.666666667 1014 477.666666667 1014 505 c 2
 1014 614 l 2
 1014 658.666666667 1007.16666667 692.333333333 993.5 715 c 128
 979.833333333 737.666666667 952 749 910 749 c 2
 856 749 l 1
 856 568 l 1
 923 568 l 1
 923 363 l 1
886 875 m 2
 978.666666667 875 1025 907.333333333 1025 972 c 0
 1025 1001.33333333 1015.66666667 1025.16666667 997 1043.5 c 128
 978.333333333 1061.83333333 952.666666667 1071 920 1071 c 2
 852 1071 l 1
 852 875 l 1
 886 875 l 2
EndSplineSet
EndChar

StartChar: glyph113
Encoding: 175 175 113
Width: 774
GlyphClass: 2
Flags: HW
LayerCount: 2
Fore
SplineSet
717 1433 m 1
 717 1164 l 1
 70 1164 l 1
 70 1433 l 1
 717 1433 l 1
EndSplineSet
EndChar

StartChar: degree
Encoding: 176 176 114
Width: 781
GlyphClass: 2
Flags: HW
LayerCount: 2
Fore
SplineSet
385 1092 m 0
 449.666666667 1092 500.5 1112.16666667 537.5 1152.5 c 128
 574.5 1192.83333333 593 1240.66666667 593 1296 c 0
 593 1350 574.666666667 1396.66666667 538 1436 c 128
 501.333333333 1475.33333333 450.333333333 1495 385 1495 c 0
 321.666666667 1495 272.333333333 1475.33333333 237 1436 c 128
 201.666666667 1396.66666667 184 1350 184 1296 c 0
 184 1241.33333333 202 1193.66666667 238 1153 c 128
 274 1112.33333333 323 1092 385 1092 c 0
385 951 m 0
 329 951 278.166666667 960.833333333 232.5 980.5 c 128
 186.833333333 1000.16666667 149.666666667 1026.5 121 1059.5 c 128
 92.3333333333 1092.5 70.3333333333 1129.33333333 55 1170 c 128
 39.6666666667 1210.66666667 32 1253 32 1297 c 0
 32 1339.66666667 39.5 1380.83333333 54.5 1420.5 c 128
 69.5 1460.16666667 91.1666666667 1496 119.5 1528 c 128
 147.833333333 1560 185 1585.5 231 1604.5 c 128
 277 1623.5 328.333333333 1633 385 1633 c 0
 444.333333333 1633 497.666666667 1623.5 545 1604.5 c 128
 592.333333333 1585.5 630.666666667 1560 660 1528 c 128
 689.333333333 1496 711.833333333 1460.33333333 727.5 1421 c 128
 743.166666667 1381.66666667 751 1340.33333333 751 1297 c 0
 751 1253 743 1210.66666667 727 1170 c 128
 711 1129.33333333 688.166666667 1092.5 658.5 1059.5 c 128
 628.833333333 1026.5 590.333333333 1000.16666667 543 980.5 c 128
 495.666666667 960.833333333 443 951 385 951 c 0
EndSplineSet
EndChar

StartChar: plusminus
Encoding: 177 177 115
Width: 849
GlyphClass: 2
Flags: HW
LayerCount: 2
Fore
SplineSet
746 223 m 1
 746 -1 l 1
 99 -1 l 1
 99 223 l 1
 746 223 l 1
69 762 m 1
 301 762 l 1
 301 1031 l 1
 556 1031 l 1
 556 762 l 1
 781 762 l 1
 781 517 l 1
 556 517 l 1
 556 278 l 1
 301 278 l 1
 301 517 l 1
 69 517 l 1
 69 762 l 1
EndSplineSet
EndChar

StartChar: uni00B2
Encoding: 178 178 116
Width: 864
GlyphClass: 2
Flags: HW
LayerCount: 2
Fore
SplineSet
108 286 m 1
 108 468 l 1
 185.333333333 498.666666667 250 535.666666667 302 579 c 0
 332.666666667 605 355.833333333 626.166666667 371.5 642.5 c 128
 387.166666667 658.833333333 402 681.5 416 710.5 c 128
 430 739.5 437 770.333333333 437 803 c 1
 435 833.666666667 426 858.666666667 410 878 c 128
 394 897.333333333 375.666666667 907 355 907 c 0
 329 907 308.833333333 898.833333333 294.5 882.5 c 128
 280.166666667 866.166666667 273 845.666666667 273 821 c 0
 273 793 285.666666667 767.333333333 311 744 c 1
 174 639 l 1
 112.666666667 693.666666667 83 766.666666667 85 858 c 1
 85 913.333333333 102.833333333 962 138.5 1004 c 128
 174.166666667 1046 218 1076.5 270 1095.5 c 128
 322 1114.5 375.666666667 1123 431 1121 c 0
 521.666666667 1117.66666667 596.666666667 1091.83333333 656 1043.5 c 128
 715.333333333 995.166666667 745 929 745 845 c 0
 745 783 723.666666667 725 681 671 c 0
 647 627 575 563.666666667 465 481 c 1
 562 481 l 1
 602.666666667 482.333333333 634.5 489 657.5 501 c 128
 680.5 513 692 536 692 570 c 1
 796 570 l 1
 796 286 l 1
 108 286 l 1
EndSplineSet
EndChar

StartChar: uni00B3
Encoding: 179 179 117
Width: 824
GlyphClass: 2
Flags: HW
LayerCount: 2
Fore
SplineSet
87 529 m 1
 157.666666667 471.666666667 230 443 304 443 c 0
 338 443 368.333333333 449.833333333 395 463.5 c 128
 421.666666667 477.166666667 435 499 435 529 c 0
 435 563.666666667 420.333333333 588.666666667 391 604 c 128
 361.666666667 619.333333333 327.666666667 627 289 627 c 0
 273.666666667 627 258 625.166666667 242 621.5 c 128
 226 617.833333333 216.666666667 616 214 616 c 2
 203 618 l 1
 202 621 l 1
 202 714 l 1
 402 884 l 1
 402 890 l 1
 274 890 l 2
 259.333333333 890 247.333333333 888.5 238 885.5 c 128
 228.666666667 882.5 221.166666667 876.166666667 215.5 866.5 c 128
 209.833333333 856.833333333 205.833333333 848.833333333 203.5 842.5 c 128
 201.166666667 836.166666667 197.666666667 824 193 806 c 1
 80 807 l 1
 80 1072 l 1
 706 1072 l 1
 706 918 l 2
 706 916.666666667 650.333333333 870.333333333 539 779 c 1
 595.666666667 773.666666667 644.166666667 749.166666667 684.5 705.5 c 128
 724.833333333 661.833333333 745 612.666666667 745 558 c 0
 745 466 711 395 643 345 c 128
 575 295 482.333333333 270 365 270 c 0
 303 270 250 273.5 206 280.5 c 128
 162 287.5 122.333333333 302.666666667 87 326 c 1
 87 529 l 1
 87 529 l 1
EndSplineSet
EndChar

StartChar: acute
Encoding: 180 180 118
Width: 1016
GlyphClass: 2
Flags: HW
LayerCount: 2
Fore
SplineSet
851 1443 m 1
 297 1130 l 1
 193 1271 l 1
 667 1708 l 1
 851 1443 l 1
EndSplineSet
EndChar

StartChar: uni00B5
Encoding: 181 181 119
Width: 1468
GlyphClass: 2
Flags: HW
LayerCount: 2
Fore
SplineSet
827 156 m 1
 790.333333333 99.3333333333 741.166666667 56.1666666667 679.5 26.5 c 128
 617.833333333 -3.16666666667 547.666666667 -18 469 -18 c 0
 249 -18 139 116.333333333 139 385 c 2
 139 761 l 1
 59 761 l 1
 59 1072 l 1
 633 1072 l 1
 633 438 l 2
 633 402.666666667 642 373.833333333 660 351.5 c 128
 678 329.166666667 699 318 723 318 c 0
 754.333333333 318 779.5 329.5 798.5 352.5 c 128
 817.5 375.5 827 404 827 438 c 2
 827 761 l 1
 746 761 l 1
 746 1072 l 1
 1321 1072 l 1
 1321 305 l 1
 1397 305 l 1
 1397 0 l 1
 827 0 l 1
 827 156 l 1
EndSplineSet
EndChar

StartChar: paragraph
Encoding: 182 182 120
Width: 1555
GlyphClass: 2
Flags: HW
LayerCount: 2
Fore
SplineSet
626 739 m 1
 537.333333333 739 459.166666667 746.333333333 391.5 761 c 128
 323.833333333 775.666666667 264 799.333333333 212 832 c 128
 160 864.666666667 120.666666667 909 94 965 c 128
 67.3333333333 1021 54.6666666667 1088 56 1166 c 0
 56.6666666667 1216 62.1666666667 1261.66666667 72.5 1303 c 128
 82.8333333333 1344.33333333 97.1666666667 1379.83333333 115.5 1409.5 c 128
 133.833333333 1439.16666667 155.666666667 1465.83333333 181 1489.5 c 128
 206.333333333 1513.16666667 234.5 1532.16666667 265.5 1546.5 c 128
 296.5 1560.83333333 329.833333333 1573.5 365.5 1584.5 c 128
 401.166666667 1595.5 438.666666667 1603.16666667 478 1607.5 c 128
 517.333333333 1611.83333333 558 1615.66666667 600 1619 c 128
 642 1622.33333333 684.666666667 1623.66666667 728 1623 c 128
 771.333333333 1622.33333333 815 1622.33333333 859 1623 c 0
 903 1623 903 1623 925 1623 c 2
 1426 1623 l 1
 1426 1268 l 1
 1275 1268 l 1
 1275 363 l 1
 1431 363 l 1
 1431 0 l 1
 1022 0 l 1
 1022 1270 l 1
 897 1270 l 1
 897 0 l 1
 480 0 l 1
 480 363 l 1
 626 363 l 1
 626 739 l 1
EndSplineSet
EndChar

StartChar: periodcentered
Encoding: 183 183 121
Width: 682
GlyphClass: 2
Flags: HW
LayerCount: 2
Fore
SplineSet
337 514 m 0
 257.666666667 514 191.666666667 536.5 139 581.5 c 128
 86.3333333333 626.5 60 687.333333333 60 764 c 0
 60 839.333333333 85.8333333333 899 137.5 943 c 128
 189.166666667 987 255.666666667 1009 337 1009 c 0
 421.666666667 1009 490.666666667 987 544 943 c 128
 597.333333333 899 624 839.333333333 624 764 c 0
 624 687.333333333 596.5 626.5 541.5 581.5 c 128
 486.5 536.5 418.333333333 514 337 514 c 0
EndSplineSet
EndChar

StartChar: cedilla
Encoding: 184 184 122
Width: 502
GlyphClass: 2
Flags: HW
LayerCount: 2
Fore
SplineSet
147 0 m 1
 327 0 l 1
 327 -119 l 1
 415.666666667 -170.333333333 460 -225.666666667 460 -285 c 0
 460 -339.666666667 423.833333333 -386.666666667 351.5 -426 c 128
 279.166666667 -465.333333333 192.333333333 -485 91 -485 c 2
 70 -485 l 1
 70 -372 l 1
 134.666666667 -371.333333333 182 -361.666666667 212 -343 c 128
 242 -324.333333333 257 -300.333333333 257 -271 c 0
 257 -244.333333333 246.333333333 -216.666666667 225 -188 c 128
 203.666666667 -159.333333333 177.666666667 -136.333333333 147 -119 c 1
 147 0 l 1
EndSplineSet
EndChar

StartChar: uni00B9
Encoding: 185 185 123
Width: 615
GlyphClass: 2
Flags: HW
LayerCount: 2
Fore
SplineSet
117 286 m 1
 116 476 l 1
 169 476 l 1
 169 843 l 1
 73 842 l 1
 73 993 l 1
 460 1091 l 1
 464 476 l 1
 520 476 l 1
 520 286 l 1
 117 286 l 1
EndSplineSet
EndChar

StartChar: ordmasculine
Encoding: 186 186 124
Width: 1032
GlyphClass: 2
Flags: HW
LayerCount: 2
Fore
SplineSet
70 688 m 0
 70 816.666666667 109.833333333 916 189.5 986 c 128
 269.166666667 1056 378 1091 516 1091 c 0
 654.666666667 1091 763.666666667 1056 843 986 c 128
 922.333333333 916 962 816.666666667 962 688 c 0
 962 558 921.166666667 455.833333333 839.5 381.5 c 128
 757.833333333 307.166666667 650 270 516 270 c 128
 382 270 274.166666667 307.166666667 192.5 381.5 c 128
 110.833333333 455.833333333 70 558 70 688 c 0
415 686 m 0
 415 562.666666667 448.666666667 501 516 501 c 0
 584 501 618 562.666666667 618 686 c 0
 618 711.333333333 616.833333333 732.833333333 614.5 750.5 c 128
 612.166666667 768.166666667 607.833333333 786.166666667 601.5 804.5 c 128
 595.166666667 822.833333333 584.833333333 836.666666667 570.5 846 c 128
 556.166666667 855.333333333 538 860 516 860 c 128
 494 860 476 855.333333333 462 846 c 128
 448 836.666666667 437.666666667 822.833333333 431 804.5 c 128
 424.333333333 786.166666667 420 768.166666667 418 750.5 c 128
 416 732.833333333 415 711.333333333 415 686 c 0
EndSplineSet
EndChar

StartChar: guillemotright
Encoding: 187 187 125
Width: 1306
GlyphClass: 2
Flags: HW
LayerCount: 2
Fore
SplineSet
663 399 m 1
 237 -5 l 1
 46 219 l 1
 361 534 l 1
 46 849 l 1
 237 1073 l 1
 663 669 l 1
 663 399 l 1
1273 399 m 1
 847 -5 l 1
 656 219 l 1
 971 534 l 1
 656 849 l 1
 847 1073 l 1
 1273 669 l 1
 1273 399 l 1
EndSplineSet
EndChar

StartChar: onequarter
Encoding: 188 188 126
Width: 1721
GlyphClass: 2
Flags: HW
LayerCount: 2
Fore
SplineSet
111 818 m 1
 110 1008 l 1
 163 1008 l 1
 163 1375 l 1
 67 1374 l 1
 67 1525 l 1
 454 1623 l 1
 458 1008 l 1
 514 1008 l 1
 514 818 l 1
 111 818 l 1
348 0 m 1
 839 1623 l 1
 1203 1623 l 1
 701 0 l 1
 348 0 l 1
1536 170 m 1
 1608 170 l 1
 1608 1 l 1
 1194 1 l 1
 1194 170 l 1
 1268 170 l 1
 1268 247 l 1
 955 247 l 1
 955 405 l 1
 1279 789 l 1
 1537 788 l 1
 1537 397 l 1
 1670 398 l 1
 1670 247 l 1
 1536 247 l 1
 1536 170 l 1
1268 398 m 1
 1268 536 l 1
 1157 399 l 1
 1268 398 l 1
EndSplineSet
EndChar

StartChar: onehalf
Encoding: 189 189 127
Width: 1784
GlyphClass: 2
Flags: HW
LayerCount: 2
Fore
SplineSet
107 818 m 1
 106 1008 l 1
 159 1008 l 1
 159 1375 l 1
 63 1374 l 1
 63 1525 l 1
 450 1623 l 1
 454 1008 l 1
 510 1008 l 1
 510 818 l 1
 107 818 l 1
352 0 m 1
 843 1623 l 1
 1207 1623 l 1
 705 0 l 1
 352 0 l 1
1042 -1 m 1
 1042 181 l 1
 1119.33333333 211.666666667 1184 248.666666667 1236 292 c 0
 1266.66666667 318 1289.83333333 339.166666667 1305.5 355.5 c 128
 1321.16666667 371.833333333 1336 394.5 1350 423.5 c 128
 1364 452.5 1371 483.333333333 1371 516 c 1
 1369 546.666666667 1360 571.666666667 1344 591 c 128
 1328 610.333333333 1309.66666667 620 1289 620 c 0
 1263 620 1242.83333333 611.833333333 1228.5 595.5 c 128
 1214.16666667 579.166666667 1207 558.666666667 1207 534 c 0
 1207 506 1219.66666667 480.333333333 1245 457 c 1
 1108 352 l 1
 1046.66666667 406.666666667 1017 479.666666667 1019 571 c 1
 1019 626.333333333 1036.83333333 675 1072.5 717 c 128
 1108.16666667 759 1152 789.5 1204 808.5 c 128
 1256 827.5 1309.66666667 836 1365 834 c 0
 1455.66666667 830.666666667 1530.66666667 804.833333333 1590 756.5 c 128
 1649.33333333 708.166666667 1679 642 1679 558 c 0
 1679 496 1657.66666667 438 1615 384 c 0
 1581 340 1509 276.666666667 1399 194 c 1
 1496 194 l 1
 1536.66666667 195.333333333 1568.5 202 1591.5 214 c 128
 1614.5 226 1626 249 1626 283 c 1
 1730 283 l 1
 1730 -1 l 1
 1042 -1 l 1
EndSplineSet
EndChar

StartChar: threequarters
Encoding: 190 190 128
Width: 1827
GlyphClass: 2
Flags: HW
LayerCount: 2
Fore
SplineSet
83 1081 m 1
 153.666666667 1023.66666667 226 995 300 995 c 0
 334 995 364.333333333 1001.83333333 391 1015.5 c 128
 417.666666667 1029.16666667 431 1051 431 1081 c 0
 431 1115.66666667 416.333333333 1140.66666667 387 1156 c 128
 357.666666667 1171.33333333 323.666666667 1179 285 1179 c 0
 269.666666667 1179 254 1177.16666667 238 1173.5 c 128
 222 1169.83333333 212.666666667 1168 210 1168 c 0
 204.666666667 1168 201 1168.66666667 199 1170 c 1
 198 1173 l 1
 198 1266 l 1
 398 1436 l 1
 398 1442 l 1
 270 1442 l 2
 255.333333333 1442 243.333333333 1440.5 234 1437.5 c 128
 224.666666667 1434.5 217.166666667 1428.16666667 211.5 1418.5 c 128
 205.833333333 1408.83333333 201.833333333 1400.83333333 199.5 1394.5 c 128
 197.166666667 1388.16666667 193.666666667 1376 189 1358 c 1
 76 1359 l 1
 76 1624 l 1
 702 1624 l 1
 702 1470 l 2
 702 1468.66666667 646.333333333 1422.33333333 535 1331 c 1
 591.666666667 1325.66666667 640.166666667 1301.16666667 680.5 1257.5 c 128
 720.833333333 1213.83333333 741 1164.66666667 741 1110 c 0
 741 1018 707 947 639 897 c 128
 571 847 478.333333333 822 361 822 c 0
 299 822 246 825.5 202 832.5 c 128
 158 839.5 118.333333333 854.666666667 83 878 c 1
 83 1081 l 1
502 0 m 1
 993 1623 l 1
 1357 1623 l 1
 855 0 l 1
 502 0 l 1
1642 168 m 1
 1714 168 l 1
 1714 -1 l 1
 1300 -1 l 1
 1300 168 l 1
 1374 168 l 1
 1374 245 l 1
 1061 245 l 1
 1061 403 l 1
 1385 787 l 1
 1643 786 l 1
 1643 395 l 1
 1776 396 l 1
 1776 245 l 1
 1642 245 l 1
 1642 168 l 1
1374 396 m 1
 1374 534 l 1
 1263 397 l 1
 1374 396 l 1
EndSplineSet
EndChar

StartChar: questiondown
Encoding: 191 191 129
Width: 1312
GlyphClass: 2
Flags: HW
LayerCount: 2
Fore
SplineSet
962 1180 m 1
 615 1180 l 1
 615 993 l 1
 574.333333333 979 538.5 965.833333333 507.5 953.5 c 128
 476.5 941.166666667 440.5 925.166666667 399.5 905.5 c 128
 358.5 885.833333333 322.833333333 866 292.5 846 c 128
 262.166666667 826 231.166666667 801.666666667 199.5 773 c 128
 167.833333333 744.333333333 142 714.5 122 683.5 c 128
 102 652.5 85.5 616.666666667 72.5 576 c 128
 59.5 535.333333333 53 492.333333333 53 447 c 0
 53 359 79 279.5 131 208.5 c 128
 183 137.5 254.833333333 82 346.5 42 c 128
 438.166666667 2 540.333333333 -18 653 -18 c 0
 824.333333333 -18 966.5 30.6666666667 1079.5 128 c 128
 1192.5 225.333333333 1253.66666667 349.333333333 1263 500 c 1
 791 500 l 1
 784.333333333 392 741 338 661 338 c 0
 641 338 624 343.166666667 610 353.5 c 128
 596 363.833333333 586.166666667 377 580.5 393 c 128
 574.833333333 409 570.833333333 423.166666667 568.5 435.5 c 128
 566.166666667 447.833333333 565 459.333333333 565 470 c 0
 565 589.333333333 697 708.666666667 961 828 c 1
 962 1180 l 1
782 1746 m 0
 861.333333333 1746 927.333333333 1723.5 980 1678.5 c 128
 1032.66666667 1633.5 1059 1572.66666667 1059 1496 c 0
 1059 1420.66666667 1033.16666667 1361 981.5 1317 c 128
 929.833333333 1273 863.333333333 1251 782 1251 c 0
 697.333333333 1251 628.333333333 1273 575 1317 c 128
 521.666666667 1361 495 1420.66666667 495 1496 c 0
 495 1572.66666667 522.5 1633.5 577.5 1678.5 c 128
 632.5 1723.5 700.666666667 1746 782 1746 c 0
EndSplineSet
EndChar

StartChar: Agrave
Encoding: 192 192 130
Width: 1643
GlyphClass: 2
Flags: HW
LayerCount: 2
Fore
SplineSet
1185 1623 m 1
 191 1623 l 1
 191 1270 l 1
 403 1270 l 1
 231 591 l 2
 213 521 200.333333333 478 193 462 c 0
 171 411.333333333 134 379.666666667 82 367 c 0
 59.3333333333 361.666666667 33.3333333333 359 4 359 c 1
 4 0 l 1
 682 0 l 1
 682 359 l 1
 598 359 l 2
 584 359 573.333333333 371 566 395 c 128
 558.666666667 419 555 440.333333333 555 459 c 1
 555.666666667 473 556.333333333 483.666666667 557 491 c 128
 557.666666667 498.333333333 560.333333333 505.5 565 512.5 c 128
 569.666666667 519.5 576.333333333 523 585 523 c 2
 860 523 l 2
 904.666666667 523 927 468.333333333 927 359 c 1
 807 359 l 1
 808 0 l 1
 1634 0 l 1
 1634 359 l 1
 1548 359 l 2
 1538 359 1529.33333333 363.166666667 1522 371.5 c 128
 1514.66666667 379.833333333 1509.16666667 389.333333333 1505.5 400 c 128
 1501.83333333 410.666666667 1497.33333333 426.333333333 1492 447 c 2
 1185 1623 l 1
612 773 m 1
 724 1281 l 1
 841 773 l 1
 612 773 l 1
648 2270 m 1
 1122 1833 l 1
 1018 1692 l 1
 464 2005 l 1
 648 2270 l 1
EndSplineSet
EndChar

StartChar: Aacute
Encoding: 193 193 131
Width: 1643
GlyphClass: 2
Flags: HW
LayerCount: 2
Fore
SplineSet
1492 447 m 2
 1497.33333333 426.333333333 1501.83333333 410.666666667 1505.5 400 c 128
 1509.16666667 389.333333333 1514.66666667 379.833333333 1522 371.5 c 128
 1529.33333333 363.166666667 1538 359 1548 359 c 2
 1634 359 l 1
 1634 0 l 1
 808 0 l 1
 807 359 l 1
 927 359 l 1
 927 468.333333333 904.666666667 523 860 523 c 2
 585 523 l 2
 576.333333333 523 569.666666667 519.5 565 512.5 c 128
 560.333333333 505.5 557.666666667 498.333333333 557 491 c 128
 556.333333333 483.666666667 555.666666667 473 555 459 c 1
 555 440.333333333 558.666666667 419 566 395 c 128
 573.333333333 371 584 359 598 359 c 2
 682 359 l 1
 682 0 l 1
 4 0 l 1
 4 359 l 1
 33.3333333333 359 59.3333333333 361.666666667 82 367 c 0
 134 379.666666667 171 411.333333333 193 462 c 0
 200.333333333 478 213 521 231 591 c 2
 403 1270 l 1
 191 1270 l 1
 191 1623 l 1
 1185 1623 l 1
 1492 447 l 2
841 773 m 1
 724 1281 l 1
 612 773 l 1
 841 773 l 1
1122 2005 m 1
 568 1692 l 1
 464 1833 l 1
 938 2270 l 1
 1122 2005 l 1
EndSplineSet
EndChar

StartChar: Acircumflex
Encoding: 194 194 132
Width: 1643
GlyphClass: 2
Flags: HW
LayerCount: 2
Fore
SplineSet
1492 447 m 2
 1497.33333333 426.333333333 1501.83333333 410.666666667 1505.5 400 c 128
 1509.16666667 389.333333333 1514.66666667 379.833333333 1522 371.5 c 128
 1529.33333333 363.166666667 1538 359 1548 359 c 2
 1634 359 l 1
 1634 0 l 1
 808 0 l 1
 807 359 l 1
 927 359 l 1
 927 468.333333333 904.666666667 523 860 523 c 2
 585 523 l 2
 576.333333333 523 569.666666667 519.5 565 512.5 c 128
 560.333333333 505.5 557.666666667 498.333333333 557 491 c 128
 556.333333333 483.666666667 555.666666667 473 555 459 c 1
 555 440.333333333 558.666666667 419 566 395 c 128
 573.333333333 371 584 359 598 359 c 2
 682 359 l 1
 682 0 l 1
 4 0 l 1
 4 359 l 1
 33.3333333333 359 59.3333333333 361.666666667 82 367 c 0
 134 379.666666667 171 411.333333333 193 462 c 0
 200.333333333 478 213 521 231 591 c 2
 403 1270 l 1
 191 1270 l 1
 191 1623 l 1
 1185 1623 l 1
 1492 447 l 2
841 773 m 1
 724 1281 l 1
 612 773 l 1
 841 773 l 1
828 2162 m 1
 1102 1786 l 1
 948 1685 l 1
 693 1930 l 1
 438 1685 l 1
 284 1786 l 1
 557 2163 l 1
 828 2162 l 1
EndSplineSet
EndChar

StartChar: Atilde
Encoding: 195 195 133
Width: 1643
GlyphClass: 2
Flags: HW
LayerCount: 2
Fore
SplineSet
1185 1623 m 1
 191 1623 l 1
 191 1270 l 1
 403 1270 l 1
 231 591 l 2
 213 521 200.333333333 478 193 462 c 0
 171 411.333333333 134 379.666666667 82 367 c 0
 59.3333333333 361.666666667 33.3333333333 359 4 359 c 1
 4 0 l 1
 682 0 l 1
 682 359 l 1
 598 359 l 2
 584 359 573.333333333 371 566 395 c 128
 558.666666667 419 555 440.333333333 555 459 c 1
 555.666666667 473 556.333333333 483.666666667 557 491 c 128
 557.666666667 498.333333333 560.333333333 505.5 565 512.5 c 128
 569.666666667 519.5 576.333333333 523 585 523 c 2
 860 523 l 2
 904.666666667 523 927 468.333333333 927 359 c 1
 807 359 l 1
 808 0 l 1
 1634 0 l 1
 1634 359 l 1
 1548 359 l 2
 1538 359 1529.33333333 363.166666667 1522 371.5 c 128
 1514.66666667 379.833333333 1509.16666667 389.333333333 1505.5 400 c 128
 1501.83333333 410.666666667 1497.33333333 426.333333333 1492 447 c 2
 1185 1623 l 1
612 773 m 1
 724 1281 l 1
 841 773 l 1
 612 773 l 1
967 2085 m 0
 996.333333333 2085 1023 2078.66666667 1047 2066 c 128
 1071 2053.33333333 1091.66666667 2035.5 1109 2012.5 c 128
 1126.33333333 1989.5 1141.5 1966.66666667 1154.5 1944 c 128
 1167.5 1921.33333333 1181.83333333 1895 1197.5 1865 c 128
 1213.16666667 1835 1227 1811.33333333 1239 1794 c 1
 1126 1720 l 1
 1077.33333333 1766.66666667 1043.83333333 1796.33333333 1025.5 1809 c 128
 1007.16666667 1821.66666667 991.666666667 1828 979 1828 c 0
 949 1828 913.333333333 1818 872 1798 c 128
 830.666666667 1778 787.833333333 1757.83333333 743.5 1737.5 c 128
 699.166666667 1717.16666667 658.666666667 1707 622 1707 c 0
 592 1707 565 1713.16666667 541 1725.5 c 128
 517 1737.83333333 496.166666667 1755.5 478.5 1778.5 c 128
 460.833333333 1801.5 445.666666667 1824.16666667 433 1846.5 c 128
 420.333333333 1868.83333333 406 1895.16666667 390 1925.5 c 128
 374 1955.83333333 360 1979.66666667 348 1997 c 1
 462 2072 l 1
 512.666666667 2023.33333333 547.333333333 1992.5 566 1979.5 c 128
 584.666666667 1966.5 600 1960 612 1960 c 0
 636 1960 663.666666667 1966.5 695 1979.5 c 128
 726.333333333 1992.5 755 2006.83333333 781 2022.5 c 128
 807 2038.16666667 837 2052.5 871 2065.5 c 128
 905 2078.5 937 2085 967 2085 c 0
EndSplineSet
EndChar

StartChar: Adieresis
Encoding: 196 196 134
Width: 1643
GlyphClass: 2
Flags: HW
LayerCount: 2
Fore
SplineSet
1185 1623 m 1
 191 1623 l 1
 191 1270 l 1
 403 1270 l 1
 231 591 l 2
 213 521 200.333333333 478 193 462 c 0
 171 411.333333333 134 379.666666667 82 367 c 0
 59.3333333333 361.666666667 33.3333333333 359 4 359 c 1
 4 0 l 1
 682 0 l 1
 682 359 l 1
 598 359 l 2
 584 359 573.333333333 371 566 395 c 128
 558.666666667 419 555 440.333333333 555 459 c 1
 555.666666667 473 556.333333333 483.666666667 557 491 c 128
 557.666666667 498.333333333 560.333333333 505.5 565 512.5 c 128
 569.666666667 519.5 576.333333333 523 585 523 c 2
 860 523 l 2
 904.666666667 523 927 468.333333333 927 359 c 1
 807 359 l 1
 808 0 l 1
 1634 0 l 1
 1634 359 l 1
 1548 359 l 2
 1538 359 1529.33333333 363.166666667 1522 371.5 c 128
 1514.66666667 379.833333333 1509.16666667 389.333333333 1505.5 400 c 128
 1501.83333333 410.666666667 1497.33333333 426.333333333 1492 447 c 2
 1185 1623 l 1
612 773 m 1
 724 1281 l 1
 841 773 l 1
 612 773 l 1
711 1904 m 0
 711 1832 688.833333333 1775.66666667 644.5 1735 c 128
 600.166666667 1694.33333333 547.666666667 1674 487 1674 c 0
 425 1674 371.5 1694.5 326.5 1735.5 c 128
 281.5 1776.5 259 1833.66666667 259 1907 c 0
 259 1978.33333333 281.333333333 2034 326 2074 c 128
 370.666666667 2114 423.666666667 2134 485 2134 c 128
 546.333333333 2134 599.333333333 2113.83333333 644 2073.5 c 128
 688.666666667 2033.16666667 711 1976.66666667 711 1904 c 0
1328 1904 m 0
 1328 1832 1305.83333333 1775.66666667 1261.5 1735 c 128
 1217.16666667 1694.33333333 1164.66666667 1674 1104 1674 c 0
 1042 1674 988.5 1694.5 943.5 1735.5 c 128
 898.5 1776.5 876 1833.66666667 876 1907 c 0
 876 1978.33333333 898.333333333 2034 943 2074 c 128
 987.666666667 2114 1040.66666667 2134 1102 2134 c 128
 1163.33333333 2134 1216.33333333 2113.83333333 1261 2073.5 c 128
 1305.66666667 2033.16666667 1328 1976.66666667 1328 1904 c 0
EndSplineSet
EndChar

StartChar: Aring
Encoding: 197 197 135
Width: 1643
GlyphClass: 2
Flags: HW
LayerCount: 2
Fore
SplineSet
1492 447 m 2
 1497.33333333 426.333333333 1501.83333333 410.666666667 1505.5 400 c 128
 1509.16666667 389.333333333 1514.66666667 379.833333333 1522 371.5 c 128
 1529.33333333 363.166666667 1538 359 1548 359 c 2
 1634 359 l 1
 1634 0 l 1
 808 0 l 1
 807 359 l 1
 927 359 l 1
 927 468.333333333 904.666666667 523 860 523 c 2
 585 523 l 2
 576.333333333 523 569.666666667 519.5 565 512.5 c 128
 560.333333333 505.5 557.666666667 498.333333333 557 491 c 128
 556.333333333 483.666666667 555.666666667 473 555 459 c 1
 555 440.333333333 558.666666667 419 566 395 c 128
 573.333333333 371 584 359 598 359 c 2
 682 359 l 1
 682 0 l 1
 4 0 l 1
 4 359 l 1
 33.3333333333 359 59.3333333333 361.666666667 82 367 c 0
 134 379.666666667 171 411.333333333 193 462 c 0
 200.333333333 478 213 521 231 591 c 2
 403 1270 l 1
 191 1270 l 1
 191 1623 l 1
 1185 1623 l 1
 1492 447 l 2
841 773 m 1
 724 1281 l 1
 612 773 l 1
 841 773 l 1
789 1802 m 0
 840.333333333 1802 880.666666667 1816.66666667 910 1846 c 128
 939.333333333 1875.33333333 954 1910 954 1950 c 0
 954 1989.33333333 939.5 2023.33333333 910.5 2052 c 128
 881.5 2080.66666667 841 2095 789 2095 c 0
 738.333333333 2095 698.833333333 2080.66666667 670.5 2052 c 128
 642.166666667 2023.33333333 628 1989.33333333 628 1950 c 0
 628 1910 642.333333333 1875.33333333 671 1846 c 128
 699.666666667 1816.66666667 739 1802 789 1802 c 0
789 1700 m 0
 704.333333333 1700 638 1725 590 1775 c 128
 542 1825 518 1883.66666667 518 1951 c 0
 518 2017 541.666666667 2074.16666667 589 2122.5 c 128
 636.333333333 2170.83333333 703 2195 789 2195 c 0
 877.666666667 2195 946.5 2171 995.5 2123 c 128
 1044.5 2075 1069 2017.66666667 1069 1951 c 0
 1069 1883.66666667 1044.16666667 1825 994.5 1775 c 128
 944.833333333 1725 876.333333333 1700 789 1700 c 0
EndSplineSet
EndChar

StartChar: AE
Encoding: 198 198 136
Width: 2138
GlyphClass: 2
Flags: HW
LayerCount: 2
Fore
SplineSet
1747 969 m 1
 1671 1271 l 1
 1458 1271 l 1
 1458 988 l 1
 1663 988 l 1
 1663 636 l 1
 1458 636 l 1
 1458 350 l 1
 1677 350 l 1
 1690 420 l 1
 1753 687 l 1
 2026 687 l 1
 2026 0 l 1
 797 0 l 1
 796 376 l 1
 916 376 l 1
 937.333333333 485.333333333 925.333333333 540 880 540 c 2
 605 540 l 2
 596.333333333 540 589 536.5 583 529.5 c 128
 577 522.5 573 515.333333333 571 508 c 128
 569 500.666666667 566.333333333 490 563 476 c 1
 559 464.666666667 558.5 445.166666667 561.5 417.5 c 128
 564.5 389.833333333 573 376 587 376 c 2
 671 376 l 1
 671 0 l 1
 -10 -1 l 1
 -10 354 l 1
 10 354 28.3333333333 355.333333333 45 358 c 128
 61.6666666667 360.666666667 77 365.333333333 91 372 c 128
 105 378.666666667 117.333333333 384.833333333 128 390.5 c 128
 138.666666667 396.166666667 149.333333333 405.333333333 160 418 c 128
 170.666666667 430.666666667 179 440.666666667 185 448 c 128
 191 455.333333333 198.5 467.666666667 207.5 485 c 128
 216.5 502.333333333 222.833333333 514.833333333 226.5 522.5 c 128
 230.166666667 530.166666667 236.5 544.5 245.5 565.5 c 128
 254.5 586.5 260.666666667 600.666666667 264 608 c 2
 586 1274 l 1
 374 1274 l 1
 445 1623 l 1
 2015 1623 l 1
 2015 970 l 1
 1747 969 l 1
908 771 m 1
 909 1292 l 1
 669 771 l 1
 908 771 l 1
EndSplineSet
EndChar

StartChar: Ccedilla
Encoding: 199 199 137
Width: 1542
GlyphClass: 2
Flags: HW
LayerCount: 2
Fore
SplineSet
1458 202 m 1
 1429 178 l 2
 1409.66666667 162 1380.66666667 142.666666667 1342 120 c 128
 1303.33333333 97.3333333333 1259.66666667 74.8333333333 1211 52.5 c 128
 1162.33333333 30.1666666667 1103.5 11 1034.5 -5 c 128
 965.5 -21 896.333333333 -29 827 -29 c 0
 661.666666667 -29 520.833333333 6 404.5 76 c 128
 288.166666667 146 201.5 242.833333333 144.5 366.5 c 128
 87.5 490.166666667 59 636 59 804 c 0
 59 888.666666667 67 970.666666667 83 1050 c 128
 99 1129.33333333 124.833333333 1205.83333333 160.5 1279.5 c 128
 196.166666667 1353.16666667 240 1417.33333333 292 1472 c 128
 344 1526.66666667 408.666666667 1570.33333333 486 1603 c 128
 563.333333333 1635.66666667 649 1652 743 1652 c 0
 792.333333333 1652 834.666666667 1650.33333333 870 1647 c 128
 905.333333333 1643.66666667 945.5 1634.16666667 990.5 1618.5 c 128
 1035.5 1602.83333333 1073 1580.66666667 1103 1552 c 1
 1137 1623 l 1
 1448 1623 l 1
 1449 991 l 1
 1151 991 l 1
 1151.66666667 1026.33333333 1148 1060.83333333 1140 1094.5 c 128
 1132 1128.16666667 1119.33333333 1160 1102 1190 c 128
 1084.66666667 1220 1060 1244.16666667 1028 1262.5 c 128
 996 1280.83333333 959 1290 917 1290 c 0
 885.666666667 1290 857.5 1284.83333333 832.5 1274.5 c 128
 807.5 1264.16666667 786.833333333 1251 770.5 1235 c 128
 754.166666667 1219 740 1198.33333333 728 1173 c 128
 716 1147.66666667 707 1123.5 701 1100.5 c 128
 695 1077.5 690.333333333 1049.66666667 687 1017 c 128
 683.666666667 984.333333333 681.666666667 957 681 935 c 128
 680.333333333 913 680 886.333333333 680 855 c 0
 680 841 680 841 680 811 c 1
 678 781 678 748.5 680 713.5 c 128
 682 678.5 684.333333333 643.666666667 687 609 c 128
 689.666666667 574.333333333 696.833333333 541 708.5 509 c 128
 720.166666667 477 734.5 448.666666667 751.5 424 c 128
 768.5 399.333333333 792.333333333 379.666666667 823 365 c 128
 853.666666667 350.333333333 889.333333333 343 930 343 c 0
 984 343 1031.5 358.833333333 1072.5 390.5 c 128
 1113.5 422.166666667 1139 464.666666667 1149 518 c 0
 1151.66666667 531.333333333 1154.33333333 562.666666667 1157 612 c 1
 1458 612 l 1
 1458 202 l 1
709 0 m 1
 889 0 l 1
 889 -119 l 1
 977.666666667 -170.333333333 1022 -225.666666667 1022 -285 c 0
 1022 -339.666666667 985.833333333 -386.666666667 913.5 -426 c 128
 841.166666667 -465.333333333 754.333333333 -485 653 -485 c 2
 632 -485 l 1
 632 -372 l 1
 696.666666667 -371.333333333 744 -361.666666667 774 -343 c 128
 804 -324.333333333 819 -300.333333333 819 -271 c 0
 819 -244.333333333 808.333333333 -216.666666667 787 -188 c 128
 765.666666667 -159.333333333 739.666666667 -136.333333333 709 -119 c 1
 709 0 l 1
EndSplineSet
EndChar

StartChar: Egrave
Encoding: 200 200 138
Width: 1490
GlyphClass: 2
Flags: HW
LayerCount: 2
Fore
SplineSet
1367 969 m 1
 1367 1623 l 1
 99 1623 l 1
 99 1270 l 1
 257 1270 l 1
 257 359 l 1
 99 359 l 1
 99 0 l 1
 1378 0 l 1
 1378 687 l 1
 1105 687 l 1
 1042 420 l 1
 1029 359 l 1
 810 359 l 1
 810 636 l 1
 1015 636 l 1
 1015 988 l 1
 810 988 l 1
 810 1270 l 1
 1023 1270 l 1
 1099 968 l 1
 1367 969 l 1
591 2270 m 1
 1065 1833 l 1
 961 1692 l 1
 407 2005 l 1
 591 2270 l 1
EndSplineSet
EndChar

StartChar: Eacute
Encoding: 201 201 139
Width: 1490
GlyphClass: 2
Flags: HW
LayerCount: 2
Fore
SplineSet
1099 968 m 1
 1023 1270 l 1
 810 1270 l 1
 810 988 l 1
 1015 988 l 1
 1015 636 l 1
 810 636 l 1
 810 359 l 1
 1029 359 l 1
 1042 420 l 1
 1105 687 l 1
 1378 687 l 1
 1378 0 l 1
 99 0 l 1
 99 359 l 1
 257 359 l 1
 257 1270 l 1
 99 1270 l 1
 99 1623 l 1
 1367 1623 l 1
 1367 969 l 1
 1099 968 l 1
1065 2005 m 1
 511 1692 l 1
 407 1833 l 1
 881 2270 l 1
 1065 2005 l 1
EndSplineSet
EndChar

StartChar: Ecircumflex
Encoding: 202 202 140
Width: 1490
GlyphClass: 2
Flags: HW
LayerCount: 2
Fore
SplineSet
1099 968 m 1
 1023 1270 l 1
 810 1270 l 1
 810 988 l 1
 1015 988 l 1
 1015 636 l 1
 810 636 l 1
 810 359 l 1
 1029 359 l 1
 1042 420 l 1
 1105 687 l 1
 1378 687 l 1
 1378 0 l 1
 99 0 l 1
 99 359 l 1
 257 359 l 1
 257 1270 l 1
 99 1270 l 1
 99 1623 l 1
 1367 1623 l 1
 1367 969 l 1
 1099 968 l 1
871 2162 m 1
 1145 1786 l 1
 991 1685 l 1
 736 1930 l 1
 481 1685 l 1
 327 1786 l 1
 600 2163 l 1
 871 2162 l 1
EndSplineSet
EndChar

StartChar: Edieresis
Encoding: 203 203 141
Width: 1490
GlyphClass: 2
Flags: HW
LayerCount: 2
Fore
SplineSet
1367 969 m 1
 1367 1623 l 1
 99 1623 l 1
 99 1270 l 1
 257 1270 l 1
 257 359 l 1
 99 359 l 1
 99 0 l 1
 1378 0 l 1
 1378 687 l 1
 1105 687 l 1
 1042 420 l 1
 1029 359 l 1
 810 359 l 1
 810 636 l 1
 1015 636 l 1
 1015 988 l 1
 810 988 l 1
 810 1270 l 1
 1023 1270 l 1
 1099 968 l 1
 1367 969 l 1
654 1904 m 0
 654 1832 631.833333333 1775.66666667 587.5 1735 c 128
 543.166666667 1694.33333333 490.666666667 1674 430 1674 c 0
 368 1674 314.5 1694.5 269.5 1735.5 c 128
 224.5 1776.5 202 1833.66666667 202 1907 c 0
 202 1978.33333333 224.333333333 2034 269 2074 c 128
 313.666666667 2114 366.666666667 2134 428 2134 c 128
 489.333333333 2134 542.333333333 2113.83333333 587 2073.5 c 128
 631.666666667 2033.16666667 654 1976.66666667 654 1904 c 0
1271 1904 m 0
 1271 1832 1248.83333333 1775.66666667 1204.5 1735 c 128
 1160.16666667 1694.33333333 1107.66666667 1674 1047 1674 c 0
 985 1674 931.5 1694.5 886.5 1735.5 c 128
 841.5 1776.5 819 1833.66666667 819 1907 c 0
 819 1978.33333333 841.333333333 2034 886 2074 c 128
 930.666666667 2114 983.666666667 2134 1045 2134 c 128
 1106.33333333 2134 1159.33333333 2113.83333333 1204 2073.5 c 128
 1248.66666667 2033.16666667 1271 1976.66666667 1271 1904 c 0
EndSplineSet
EndChar

StartChar: Igrave
Encoding: 204 204 142
Width: 1076
GlyphClass: 2
Flags: HW
LayerCount: 2
Fore
SplineSet
972 1623 m 1
 108 1623 l 1
 108 1270 l 1
 251 1270 l 1
 251 359 l 1
 104 359 l 1
 104 0 l 1
 966 0 l 1
 966 359 l 1
 825 359 l 1
 825 1270 l 1
 972 1270 l 1
 972 1623 l 1
395 2270 m 1
 869 1833 l 1
 765 1692 l 1
 211 2005 l 1
 395 2270 l 1
EndSplineSet
EndChar

StartChar: Iacute
Encoding: 205 205 143
Width: 1076
GlyphClass: 2
Flags: HW
LayerCount: 2
Fore
SplineSet
972 1270 m 1
 825 1270 l 1
 825 359 l 1
 966 359 l 1
 966 0 l 1
 104 0 l 1
 104 359 l 1
 251 359 l 1
 251 1270 l 1
 108 1270 l 1
 108 1623 l 1
 972 1623 l 1
 972 1270 l 1
869 2005 m 1
 315 1692 l 1
 211 1833 l 1
 685 2270 l 1
 869 2005 l 1
EndSplineSet
EndChar

StartChar: Icircumflex
Encoding: 206 206 144
Width: 1076
GlyphClass: 2
Flags: HW
LayerCount: 2
Fore
SplineSet
972 1270 m 1
 825 1270 l 1
 825 359 l 1
 966 359 l 1
 966 0 l 1
 104 0 l 1
 104 359 l 1
 251 359 l 1
 251 1270 l 1
 108 1270 l 1
 108 1623 l 1
 972 1623 l 1
 972 1270 l 1
675 2162 m 1
 949 1786 l 1
 795 1685 l 1
 540 1930 l 1
 285 1685 l 1
 131 1786 l 1
 404 2163 l 1
 675 2162 l 1
EndSplineSet
EndChar

StartChar: Idieresis
Encoding: 207 207 145
Width: 1076
GlyphClass: 2
Flags: HW
LayerCount: 2
Fore
SplineSet
972 1623 m 1
 108 1623 l 1
 108 1270 l 1
 251 1270 l 1
 251 359 l 1
 104 359 l 1
 104 0 l 1
 966 0 l 1
 966 359 l 1
 825 359 l 1
 825 1270 l 1
 972 1270 l 1
 972 1623 l 1
458 1904 m 0
 458 1832 435.833333333 1775.66666667 391.5 1735 c 128
 347.166666667 1694.33333333 294.666666667 1674 234 1674 c 0
 172 1674 118.5 1694.5 73.5 1735.5 c 128
 28.5 1776.5 6 1833.66666667 6 1907 c 0
 6 1978.33333333 28.3333333333 2034 73 2074 c 128
 117.666666667 2114 170.666666667 2134 232 2134 c 128
 293.333333333 2134 346.333333333 2113.83333333 391 2073.5 c 128
 435.666666667 2033.16666667 458 1976.66666667 458 1904 c 0
1075 1904 m 0
 1075 1832 1052.83333333 1775.66666667 1008.5 1735 c 128
 964.166666667 1694.33333333 911.666666667 1674 851 1674 c 0
 789 1674 735.5 1694.5 690.5 1735.5 c 128
 645.5 1776.5 623 1833.66666667 623 1907 c 0
 623 1978.33333333 645.333333333 2034 690 2074 c 128
 734.666666667 2114 787.666666667 2134 849 2134 c 128
 910.333333333 2134 963.333333333 2113.83333333 1008 2073.5 c 128
 1052.66666667 2033.16666667 1075 1976.66666667 1075 1904 c 0
EndSplineSet
EndChar

StartChar: Eth
Encoding: 208 208 146
Width: 1802
GlyphClass: 2
Flags: HW
LayerCount: 2
Fore
SplineSet
262 952 m 1
 262 1271 l 1
 93 1271 l 1
 93 1623 l 1
 923 1623 l 2
 1197.66666667 1623 1403.33333333 1554.5 1540 1417.5 c 128
 1676.66666667 1280.5 1745 1080 1745 816 c 0
 1745 707.333333333 1726.66666667 604.333333333 1690 507 c 128
 1653.33333333 409.666666667 1600.66666667 323.166666667 1532 247.5 c 128
 1463.33333333 171.833333333 1374.66666667 111.666666667 1266 67 c 128
 1157.33333333 22.3333333333 1035.66666667 0 901 0 c 2
 99 0 l 1
 99 351 l 1
 262 351 l 1
 262 653 l 1
 132 653 l 1
 132 952 l 1
 262 952 l 1
844 351 m 2
 892.666666667 351 935.5 360.833333333 972.5 380.5 c 128
 1009.5 400.166666667 1039 425.166666667 1061 455.5 c 128
 1083 485.833333333 1101 522.333333333 1115 565 c 128
 1129 607.666666667 1138.5 649.166666667 1143.5 689.5 c 128
 1148.5 729.833333333 1151 772.333333333 1151 817 c 0
 1151 863 1149 905.166666667 1145 943.5 c 128
 1141 981.833333333 1132.83333333 1022 1120.5 1064 c 128
 1108.16666667 1106 1091.66666667 1141.5 1071 1170.5 c 128
 1050.33333333 1199.5 1021.66666667 1223.5 985 1242.5 c 128
 948.333333333 1261.5 905.333333333 1271 856 1271 c 2
 809 1271 l 1
 809 1237 809 1237 809 1172 c 128
 809 1107 809 1107 809 1053.5 c 128
 809 1000 809 1000 809 952 c 1
 895 952 l 1
 895 653 l 1
 810 653 l 1
 813 351 l 1
 844 351 l 2
EndSplineSet
EndChar

StartChar: Ntilde
Encoding: 209 209 147
Width: 1873
GlyphClass: 2
Flags: HW
LayerCount: 2
Fore
SplineSet
1814 1622 m 1
 1177 1623 l 1
 1177 1270 l 1
 1203 1270.66666667 1225.66666667 1269.33333333 1245 1266 c 128
 1264.33333333 1262.66666667 1279.5 1256.5 1290.5 1247.5 c 128
 1301.5 1238.5 1310.33333333 1229.83333333 1317 1221.5 c 128
 1323.66666667 1213.16666667 1328.16666667 1201.5 1330.5 1186.5 c 128
 1332.83333333 1171.5 1334.16666667 1160 1334.5 1152 c 128
 1334.83333333 1144 1335 1132 1335 1116 c 2
 1335 647 l 1
 839 1623 l 1
 104 1623 l 1
 104 1272 l 1
 261 1272 l 1
 261 550 l 2
 261 524.666666667 260.333333333 504.666666667 259 490 c 128
 257.666666667 475.333333333 254.166666667 458.5 248.5 439.5 c 128
 242.833333333 420.5 234.5 406 223.5 396 c 128
 212.5 386 196.5 377.333333333 175.5 370 c 128
 154.5 362.666666667 128.666666667 359 98 359 c 1
 98 0 l 1
 735 0 l 1
 735 359 l 1
 678.333333333 359 637.833333333 370 613.5 392 c 128
 589.166666667 414 577 452.333333333 577 507 c 2
 577 908 l 1
 1050 0 l 1
 1656 0 l 1
 1656 1118 l 2
 1656 1167.33333333 1668.16666667 1205 1692.5 1231 c 128
 1716.83333333 1257 1757.33333333 1270 1814 1270 c 1
 1814 1622 l 1
1082 2085 m 0
 1111.33333333 2085 1138 2078.66666667 1162 2066 c 128
 1186 2053.33333333 1206.66666667 2035.5 1224 2012.5 c 128
 1241.33333333 1989.5 1256.5 1966.66666667 1269.5 1944 c 128
 1282.5 1921.33333333 1296.83333333 1895 1312.5 1865 c 128
 1328.16666667 1835 1342 1811.33333333 1354 1794 c 1
 1241 1720 l 1
 1192.33333333 1766.66666667 1158.83333333 1796.33333333 1140.5 1809 c 128
 1122.16666667 1821.66666667 1106.66666667 1828 1094 1828 c 0
 1064 1828 1028.33333333 1818 987 1798 c 128
 945.666666667 1778 902.833333333 1757.83333333 858.5 1737.5 c 128
 814.166666667 1717.16666667 773.666666667 1707 737 1707 c 0
 707 1707 680 1713.16666667 656 1725.5 c 128
 632 1737.83333333 611.166666667 1755.5 593.5 1778.5 c 128
 575.833333333 1801.5 560.666666667 1824.16666667 548 1846.5 c 128
 535.333333333 1868.83333333 521 1895.16666667 505 1925.5 c 128
 489 1955.83333333 475 1979.66666667 463 1997 c 1
 577 2072 l 1
 627.666666667 2023.33333333 662.333333333 1992.5 681 1979.5 c 128
 699.666666667 1966.5 715 1960 727 1960 c 0
 751 1960 778.666666667 1966.5 810 1979.5 c 128
 841.333333333 1992.5 870 2006.83333333 896 2022.5 c 128
 922 2038.16666667 952 2052.5 986 2065.5 c 128
 1020 2078.5 1052 2085 1082 2085 c 0
EndSplineSet
EndChar

StartChar: Ograve
Encoding: 210 210 148
Width: 1744
GlyphClass: 2
Flags: HW
LayerCount: 2
Fore
SplineSet
1692 808 m 0
 1692 651.333333333 1656.16666667 509 1584.5 381 c 128
 1512.83333333 253 1414.33333333 152.666666667 1289 80 c 128
 1163.66666667 7.33333333333 1024.66666667 -29 872 -29 c 128
 719.333333333 -29 580.333333333 7.33333333333 455 80 c 128
 329.666666667 152.666666667 231.166666667 253 159.5 381 c 128
 87.8333333333 509 52 651.333333333 52 808 c 0
 52 980 87.8333333333 1130.5 159.5 1259.5 c 128
 231.166666667 1388.5 328.5 1486.33333333 451.5 1553 c 128
 574.5 1619.66666667 714.666666667 1653 872 1653 c 128
 1029.33333333 1653 1169.5 1619.66666667 1292.5 1553 c 128
 1415.5 1486.33333333 1512.83333333 1388.5 1584.5 1259.5 c 128
 1656.16666667 1130.5 1692 980 1692 808 c 0
872 319 m 0
 898 319 921.333333333 323.333333333 942 332 c 128
 962.666666667 340.666666667 980.166666667 352.666666667 994.5 368 c 128
 1008.83333333 383.333333333 1021.33333333 401.333333333 1032 422 c 128
 1042.66666667 442.666666667 1051 465.166666667 1057 489.5 c 128
 1063 513.833333333 1068 539 1072 565 c 128
 1076 591 1078.5 617.166666667 1079.5 643.5 c 128
 1080.5 669.833333333 1081.33333333 695.666666667 1082 721 c 128
 1082.66666667 746.333333333 1082.66666667 770.333333333 1082 793 c 0
 1082 813 1082 813 1082 823 c 0
 1082 834 1082 834 1082 858 c 0
 1081.33333333 882 1081.33333333 907.333333333 1082 934 c 128
 1082.66666667 960.666666667 1081.5 988.166666667 1078.5 1016.5 c 128
 1075.5 1044.83333333 1071.83333333 1072.33333333 1067.5 1099 c 128
 1063.16666667 1125.66666667 1055.66666667 1151 1045 1175 c 128
 1034.33333333 1199 1021.83333333 1220 1007.5 1238 c 128
 993.166666667 1256 974.333333333 1270.16666667 951 1280.5 c 128
 927.666666667 1290.83333333 901.333333333 1296 872 1296 c 0
 846 1296 822.5 1292 801.5 1284 c 128
 780.5 1276 763 1264.83333333 749 1250.5 c 128
 735 1236.16666667 722.5 1219.5 711.5 1200.5 c 128
 700.5 1181.5 692.166666667 1160.83333333 686.5 1138.5 c 128
 680.833333333 1116.16666667 675.833333333 1092.83333333 671.5 1068.5 c 128
 667.166666667 1044.16666667 664.666666667 1019.83333333 664 995.5 c 128
 663.333333333 971.166666667 662.5 947.333333333 661.5 924 c 128
 660.5 900.666666667 660.666666667 878.666666667 662 858 c 1
 662 834 662 834 662 823 c 0
 662 813 662 813 662 793 c 0
 662.666666667 773 662.666666667 752 662 730 c 128
 661.333333333 708 661.833333333 685.166666667 663.5 661.5 c 128
 665.166666667 637.833333333 667 614.333333333 669 591 c 128
 671 567.666666667 674.5 544.666666667 679.5 522 c 128
 684.5 499.333333333 690.333333333 478 697 458 c 128
 703.666666667 438 712.333333333 419.5 723 402.5 c 128
 733.666666667 385.5 745.833333333 370.833333333 759.5 358.5 c 128
 773.166666667 346.166666667 789.666666667 336.5 809 329.5 c 128
 828.333333333 322.5 849.333333333 319 872 319 c 0
725 2270 m 1
 1199 1833 l 1
 1095 1692 l 1
 541 2005 l 1
 725 2270 l 1
EndSplineSet
EndChar

StartChar: Oacute
Encoding: 211 211 149
Width: 1744
GlyphClass: 2
Flags: HW
LayerCount: 2
Fore
SplineSet
1692 808 m 0
 1692 651.333333333 1656.16666667 509 1584.5 381 c 128
 1512.83333333 253 1414.33333333 152.666666667 1289 80 c 128
 1163.66666667 7.33333333333 1024.66666667 -29 872 -29 c 128
 719.333333333 -29 580.333333333 7.33333333333 455 80 c 128
 329.666666667 152.666666667 231.166666667 253 159.5 381 c 128
 87.8333333333 509 52 651.333333333 52 808 c 0
 52 980 87.8333333333 1130.5 159.5 1259.5 c 128
 231.166666667 1388.5 328.5 1486.33333333 451.5 1553 c 128
 574.5 1619.66666667 714.666666667 1653 872 1653 c 128
 1029.33333333 1653 1169.5 1619.66666667 1292.5 1553 c 128
 1415.5 1486.33333333 1512.83333333 1388.5 1584.5 1259.5 c 128
 1656.16666667 1130.5 1692 980 1692 808 c 0
872 319 m 0
 898 319 921.333333333 323.333333333 942 332 c 128
 962.666666667 340.666666667 980.166666667 352.666666667 994.5 368 c 128
 1008.83333333 383.333333333 1021.33333333 401.333333333 1032 422 c 128
 1042.66666667 442.666666667 1051 465.166666667 1057 489.5 c 128
 1063 513.833333333 1068 539 1072 565 c 128
 1076 591 1078.5 617.166666667 1079.5 643.5 c 128
 1080.5 669.833333333 1081.33333333 695.666666667 1082 721 c 128
 1082.66666667 746.333333333 1082.66666667 770.333333333 1082 793 c 0
 1082 813 1082 813 1082 823 c 0
 1082 834 1082 834 1082 858 c 0
 1081.33333333 882 1081.33333333 907.333333333 1082 934 c 128
 1082.66666667 960.666666667 1081.5 988.166666667 1078.5 1016.5 c 128
 1075.5 1044.83333333 1071.83333333 1072.33333333 1067.5 1099 c 128
 1063.16666667 1125.66666667 1055.66666667 1151 1045 1175 c 128
 1034.33333333 1199 1021.83333333 1220 1007.5 1238 c 128
 993.166666667 1256 974.333333333 1270.16666667 951 1280.5 c 128
 927.666666667 1290.83333333 901.333333333 1296 872 1296 c 0
 846 1296 822.5 1292 801.5 1284 c 128
 780.5 1276 763 1264.83333333 749 1250.5 c 128
 735 1236.16666667 722.5 1219.5 711.5 1200.5 c 128
 700.5 1181.5 692.166666667 1160.83333333 686.5 1138.5 c 128
 680.833333333 1116.16666667 675.833333333 1092.83333333 671.5 1068.5 c 128
 667.166666667 1044.16666667 664.666666667 1019.83333333 664 995.5 c 128
 663.333333333 971.166666667 662.5 947.333333333 661.5 924 c 128
 660.5 900.666666667 660.666666667 878.666666667 662 858 c 1
 662 834 662 834 662 823 c 0
 662 813 662 813 662 793 c 0
 662.666666667 773 662.666666667 752 662 730 c 128
 661.333333333 708 661.833333333 685.166666667 663.5 661.5 c 128
 665.166666667 637.833333333 667 614.333333333 669 591 c 128
 671 567.666666667 674.5 544.666666667 679.5 522 c 128
 684.5 499.333333333 690.333333333 478 697 458 c 128
 703.666666667 438 712.333333333 419.5 723 402.5 c 128
 733.666666667 385.5 745.833333333 370.833333333 759.5 358.5 c 128
 773.166666667 346.166666667 789.666666667 336.5 809 329.5 c 128
 828.333333333 322.5 849.333333333 319 872 319 c 0
1199 2005 m 1
 645 1692 l 1
 541 1833 l 1
 1015 2270 l 1
 1199 2005 l 1
EndSplineSet
EndChar

StartChar: Ocircumflex
Encoding: 212 212 150
Width: 1744
GlyphClass: 2
Flags: HW
LayerCount: 2
Fore
SplineSet
1692 808 m 0
 1692 651.333333333 1656.16666667 509 1584.5 381 c 128
 1512.83333333 253 1414.33333333 152.666666667 1289 80 c 128
 1163.66666667 7.33333333333 1024.66666667 -29 872 -29 c 128
 719.333333333 -29 580.333333333 7.33333333333 455 80 c 128
 329.666666667 152.666666667 231.166666667 253 159.5 381 c 128
 87.8333333333 509 52 651.333333333 52 808 c 0
 52 980 87.8333333333 1130.5 159.5 1259.5 c 128
 231.166666667 1388.5 328.5 1486.33333333 451.5 1553 c 128
 574.5 1619.66666667 714.666666667 1653 872 1653 c 128
 1029.33333333 1653 1169.5 1619.66666667 1292.5 1553 c 128
 1415.5 1486.33333333 1512.83333333 1388.5 1584.5 1259.5 c 128
 1656.16666667 1130.5 1692 980 1692 808 c 0
872 319 m 0
 898 319 921.333333333 323.333333333 942 332 c 128
 962.666666667 340.666666667 980.166666667 352.666666667 994.5 368 c 128
 1008.83333333 383.333333333 1021.33333333 401.333333333 1032 422 c 128
 1042.66666667 442.666666667 1051 465.166666667 1057 489.5 c 128
 1063 513.833333333 1068 539 1072 565 c 128
 1076 591 1078.5 617.166666667 1079.5 643.5 c 128
 1080.5 669.833333333 1081.33333333 695.666666667 1082 721 c 128
 1082.66666667 746.333333333 1082.66666667 770.333333333 1082 793 c 0
 1082 813 1082 813 1082 823 c 0
 1082 834 1082 834 1082 858 c 0
 1081.33333333 882 1081.33333333 907.333333333 1082 934 c 128
 1082.66666667 960.666666667 1081.5 988.166666667 1078.5 1016.5 c 128
 1075.5 1044.83333333 1071.83333333 1072.33333333 1067.5 1099 c 128
 1063.16666667 1125.66666667 1055.66666667 1151 1045 1175 c 128
 1034.33333333 1199 1021.83333333 1220 1007.5 1238 c 128
 993.166666667 1256 974.333333333 1270.16666667 951 1280.5 c 128
 927.666666667 1290.83333333 901.333333333 1296 872 1296 c 0
 846 1296 822.5 1292 801.5 1284 c 128
 780.5 1276 763 1264.83333333 749 1250.5 c 128
 735 1236.16666667 722.5 1219.5 711.5 1200.5 c 128
 700.5 1181.5 692.166666667 1160.83333333 686.5 1138.5 c 128
 680.833333333 1116.16666667 675.833333333 1092.83333333 671.5 1068.5 c 128
 667.166666667 1044.16666667 664.666666667 1019.83333333 664 995.5 c 128
 663.333333333 971.166666667 662.5 947.333333333 661.5 924 c 128
 660.5 900.666666667 660.666666667 878.666666667 662 858 c 1
 662 834 662 834 662 823 c 0
 662 813 662 813 662 793 c 0
 662.666666667 773 662.666666667 752 662 730 c 128
 661.333333333 708 661.833333333 685.166666667 663.5 661.5 c 128
 665.166666667 637.833333333 667 614.333333333 669 591 c 128
 671 567.666666667 674.5 544.666666667 679.5 522 c 128
 684.5 499.333333333 690.333333333 478 697 458 c 128
 703.666666667 438 712.333333333 419.5 723 402.5 c 128
 733.666666667 385.5 745.833333333 370.833333333 759.5 358.5 c 128
 773.166666667 346.166666667 789.666666667 336.5 809 329.5 c 128
 828.333333333 322.5 849.333333333 319 872 319 c 0
1005 2162 m 1
 1279 1786 l 1
 1125 1685 l 1
 870 1930 l 1
 615 1685 l 1
 461 1786 l 1
 734 2163 l 1
 1005 2162 l 1
EndSplineSet
EndChar

StartChar: Otilde
Encoding: 213 213 151
Width: 1744
GlyphClass: 2
Flags: HW
LayerCount: 2
Fore
SplineSet
1692 808 m 0
 1692 651.333333333 1656.16666667 509 1584.5 381 c 128
 1512.83333333 253 1414.33333333 152.666666667 1289 80 c 128
 1163.66666667 7.33333333333 1024.66666667 -29 872 -29 c 128
 719.333333333 -29 580.333333333 7.33333333333 455 80 c 128
 329.666666667 152.666666667 231.166666667 253 159.5 381 c 128
 87.8333333333 509 52 651.333333333 52 808 c 0
 52 980 87.8333333333 1130.5 159.5 1259.5 c 128
 231.166666667 1388.5 328.5 1486.33333333 451.5 1553 c 128
 574.5 1619.66666667 714.666666667 1653 872 1653 c 128
 1029.33333333 1653 1169.5 1619.66666667 1292.5 1553 c 128
 1415.5 1486.33333333 1512.83333333 1388.5 1584.5 1259.5 c 128
 1656.16666667 1130.5 1692 980 1692 808 c 0
872 319 m 0
 898 319 921.333333333 323.333333333 942 332 c 128
 962.666666667 340.666666667 980.166666667 352.666666667 994.5 368 c 128
 1008.83333333 383.333333333 1021.33333333 401.333333333 1032 422 c 128
 1042.66666667 442.666666667 1051 465.166666667 1057 489.5 c 128
 1063 513.833333333 1068 539 1072 565 c 128
 1076 591 1078.5 617.166666667 1079.5 643.5 c 128
 1080.5 669.833333333 1081.33333333 695.666666667 1082 721 c 128
 1082.66666667 746.333333333 1082.66666667 770.333333333 1082 793 c 0
 1082 813 1082 813 1082 823 c 0
 1082 834 1082 834 1082 858 c 0
 1081.33333333 882 1081.33333333 907.333333333 1082 934 c 128
 1082.66666667 960.666666667 1081.5 988.166666667 1078.5 1016.5 c 128
 1075.5 1044.83333333 1071.83333333 1072.33333333 1067.5 1099 c 128
 1063.16666667 1125.66666667 1055.66666667 1151 1045 1175 c 128
 1034.33333333 1199 1021.83333333 1220 1007.5 1238 c 128
 993.166666667 1256 974.333333333 1270.16666667 951 1280.5 c 128
 927.666666667 1290.83333333 901.333333333 1296 872 1296 c 0
 846 1296 822.5 1292 801.5 1284 c 128
 780.5 1276 763 1264.83333333 749 1250.5 c 128
 735 1236.16666667 722.5 1219.5 711.5 1200.5 c 128
 700.5 1181.5 692.166666667 1160.83333333 686.5 1138.5 c 128
 680.833333333 1116.16666667 675.833333333 1092.83333333 671.5 1068.5 c 128
 667.166666667 1044.16666667 664.666666667 1019.83333333 664 995.5 c 128
 663.333333333 971.166666667 662.5 947.333333333 661.5 924 c 128
 660.5 900.666666667 660.666666667 878.666666667 662 858 c 1
 662 834 662 834 662 823 c 0
 662 813 662 813 662 793 c 0
 662.666666667 773 662.666666667 752 662 730 c 128
 661.333333333 708 661.833333333 685.166666667 663.5 661.5 c 128
 665.166666667 637.833333333 667 614.333333333 669 591 c 128
 671 567.666666667 674.5 544.666666667 679.5 522 c 128
 684.5 499.333333333 690.333333333 478 697 458 c 128
 703.666666667 438 712.333333333 419.5 723 402.5 c 128
 733.666666667 385.5 745.833333333 370.833333333 759.5 358.5 c 128
 773.166666667 346.166666667 789.666666667 336.5 809 329.5 c 128
 828.333333333 322.5 849.333333333 319 872 319 c 0
1044 2085 m 0
 1073.33333333 2085 1100 2078.66666667 1124 2066 c 128
 1148 2053.33333333 1168.66666667 2035.5 1186 2012.5 c 128
 1203.33333333 1989.5 1218.5 1966.66666667 1231.5 1944 c 128
 1244.5 1921.33333333 1258.83333333 1895 1274.5 1865 c 128
 1290.16666667 1835 1304 1811.33333333 1316 1794 c 1
 1203 1720 l 1
 1154.33333333 1766.66666667 1120.83333333 1796.33333333 1102.5 1809 c 128
 1084.16666667 1821.66666667 1068.66666667 1828 1056 1828 c 0
 1026 1828 990.333333333 1818 949 1798 c 128
 907.666666667 1778 864.833333333 1757.83333333 820.5 1737.5 c 128
 776.166666667 1717.16666667 735.666666667 1707 699 1707 c 0
 669 1707 642 1713.16666667 618 1725.5 c 128
 594 1737.83333333 573.166666667 1755.5 555.5 1778.5 c 128
 537.833333333 1801.5 522.666666667 1824.16666667 510 1846.5 c 128
 497.333333333 1868.83333333 483 1895.16666667 467 1925.5 c 128
 451 1955.83333333 437 1979.66666667 425 1997 c 1
 539 2072 l 1
 589.666666667 2023.33333333 624.333333333 1992.5 643 1979.5 c 128
 661.666666667 1966.5 677 1960 689 1960 c 0
 713 1960 740.666666667 1966.5 772 1979.5 c 128
 803.333333333 1992.5 832 2006.83333333 858 2022.5 c 128
 884 2038.16666667 914 2052.5 948 2065.5 c 128
 982 2078.5 1014 2085 1044 2085 c 0
EndSplineSet
EndChar

StartChar: Odieresis
Encoding: 214 214 152
Width: 1744
GlyphClass: 2
Flags: HW
LayerCount: 2
Fore
SplineSet
1692 808 m 0
 1692 651.333333333 1656.16666667 509 1584.5 381 c 128
 1512.83333333 253 1414.33333333 152.666666667 1289 80 c 128
 1163.66666667 7.33333333333 1024.66666667 -29 872 -29 c 128
 719.333333333 -29 580.333333333 7.33333333333 455 80 c 128
 329.666666667 152.666666667 231.166666667 253 159.5 381 c 128
 87.8333333333 509 52 651.333333333 52 808 c 0
 52 980 87.8333333333 1130.5 159.5 1259.5 c 128
 231.166666667 1388.5 328.5 1486.33333333 451.5 1553 c 128
 574.5 1619.66666667 714.666666667 1653 872 1653 c 128
 1029.33333333 1653 1169.5 1619.66666667 1292.5 1553 c 128
 1415.5 1486.33333333 1512.83333333 1388.5 1584.5 1259.5 c 128
 1656.16666667 1130.5 1692 980 1692 808 c 0
872 319 m 0
 898 319 921.333333333 323.333333333 942 332 c 128
 962.666666667 340.666666667 980.166666667 352.666666667 994.5 368 c 128
 1008.83333333 383.333333333 1021.33333333 401.333333333 1032 422 c 128
 1042.66666667 442.666666667 1051 465.166666667 1057 489.5 c 128
 1063 513.833333333 1068 539 1072 565 c 128
 1076 591 1078.5 617.166666667 1079.5 643.5 c 128
 1080.5 669.833333333 1081.33333333 695.666666667 1082 721 c 128
 1082.66666667 746.333333333 1082.66666667 770.333333333 1082 793 c 0
 1082 813 1082 813 1082 823 c 0
 1082 834 1082 834 1082 858 c 0
 1081.33333333 882 1081.33333333 907.333333333 1082 934 c 128
 1082.66666667 960.666666667 1081.5 988.166666667 1078.5 1016.5 c 128
 1075.5 1044.83333333 1071.83333333 1072.33333333 1067.5 1099 c 128
 1063.16666667 1125.66666667 1055.66666667 1151 1045 1175 c 128
 1034.33333333 1199 1021.83333333 1220 1007.5 1238 c 128
 993.166666667 1256 974.333333333 1270.16666667 951 1280.5 c 128
 927.666666667 1290.83333333 901.333333333 1296 872 1296 c 0
 846 1296 822.5 1292 801.5 1284 c 128
 780.5 1276 763 1264.83333333 749 1250.5 c 128
 735 1236.16666667 722.5 1219.5 711.5 1200.5 c 128
 700.5 1181.5 692.166666667 1160.83333333 686.5 1138.5 c 128
 680.833333333 1116.16666667 675.833333333 1092.83333333 671.5 1068.5 c 128
 667.166666667 1044.16666667 664.666666667 1019.83333333 664 995.5 c 128
 663.333333333 971.166666667 662.5 947.333333333 661.5 924 c 128
 660.5 900.666666667 660.666666667 878.666666667 662 858 c 1
 662 834 662 834 662 823 c 0
 662 813 662 813 662 793 c 0
 662.666666667 773 662.666666667 752 662 730 c 128
 661.333333333 708 661.833333333 685.166666667 663.5 661.5 c 128
 665.166666667 637.833333333 667 614.333333333 669 591 c 128
 671 567.666666667 674.5 544.666666667 679.5 522 c 128
 684.5 499.333333333 690.333333333 478 697 458 c 128
 703.666666667 438 712.333333333 419.5 723 402.5 c 128
 733.666666667 385.5 745.833333333 370.833333333 759.5 358.5 c 128
 773.166666667 346.166666667 789.666666667 336.5 809 329.5 c 128
 828.333333333 322.5 849.333333333 319 872 319 c 0
788 1904 m 0
 788 1832 765.833333333 1775.66666667 721.5 1735 c 128
 677.166666667 1694.33333333 624.666666667 1674 564 1674 c 0
 502 1674 448.5 1694.5 403.5 1735.5 c 128
 358.5 1776.5 336 1833.66666667 336 1907 c 0
 336 1978.33333333 358.333333333 2034 403 2074 c 128
 447.666666667 2114 500.666666667 2134 562 2134 c 128
 623.333333333 2134 676.333333333 2113.83333333 721 2073.5 c 128
 765.666666667 2033.16666667 788 1976.66666667 788 1904 c 0
1405 1904 m 0
 1405 1832 1382.83333333 1775.66666667 1338.5 1735 c 128
 1294.16666667 1694.33333333 1241.66666667 1674 1181 1674 c 0
 1119 1674 1065.5 1694.5 1020.5 1735.5 c 128
 975.5 1776.5 953 1833.66666667 953 1907 c 0
 953 1978.33333333 975.333333333 2034 1020 2074 c 128
 1064.66666667 2114 1117.66666667 2134 1179 2134 c 128
 1240.33333333 2134 1293.33333333 2113.83333333 1338 2073.5 c 128
 1382.66666667 2033.16666667 1405 1976.66666667 1405 1904 c 0
EndSplineSet
EndChar

StartChar: multiply
Encoding: 215 215 153
Width: 902
GlyphClass: 2
Flags: HW
LayerCount: 2
Fore
SplineSet
451 467 m 1
 259 274 l 1
 86 447 l 1
 278 640 l 1
 74 844 l 1
 254 1024 l 1
 451 820 l 1
 648 1024 l 1
 828 844 l 1
 624 640 l 1
 816 447 l 1
 643 274 l 1
 451 467 l 1
EndSplineSet
EndChar

StartChar: Oslash
Encoding: 216 216 154
Width: 1742
GlyphClass: 2
Flags: HW
LayerCount: 2
Fore
SplineSet
567 -155 m 1
 605 12 l 1
 439 66.6666666667 305.166666667 165.833333333 203.5 309.5 c 128
 101.833333333 453.166666667 51 619.333333333 51 808 c 0
 51 980 86.8333333333 1130.5 158.5 1259.5 c 128
 230.166666667 1388.5 327.5 1486.33333333 450.5 1553 c 128
 573.5 1619.66666667 713.666666667 1653 871 1653 c 0
 903 1653 940 1650.66666667 982 1646 c 1
 1019 1804 l 1
 1172 1774 l 1
 1136 1616 l 1
 1305.33333333 1566 1440.16666667 1470.5 1540.5 1329.5 c 128
 1640.83333333 1188.5 1691 1014.66666667 1691 808 c 0
 1691 651.333333333 1655.16666667 509 1583.5 381 c 128
 1511.83333333 253 1413.33333333 152.666666667 1288 80 c 128
 1162.66666667 7.33333333333 1023.66666667 -29 871 -29 c 0
 835.666666667 -29 801 -27 767 -23 c 1
 729 -194 l 1
 567 -155 l 1
871 1296 m 0
 845 1296 821.5 1292 800.5 1284 c 128
 779.5 1276 762 1264.83333333 748 1250.5 c 128
 734 1236.16666667 721.5 1219.5 710.5 1200.5 c 128
 699.5 1181.5 691.166666667 1160.83333333 685.5 1138.5 c 128
 679.833333333 1116.16666667 674.833333333 1092.83333333 670.5 1068.5 c 128
 666.166666667 1044.16666667 663.666666667 1019.83333333 663 995.5 c 128
 662.333333333 971.166666667 661.5 947.333333333 660.5 924 c 128
 659.5 900.666666667 659.666666667 878.666666667 661 858 c 1
 661 834 661 834 661 823 c 0
 661 822 661 822 661 776 c 128
 661 730 661 730 661 718 c 128
 661 710 661.333333333 692 662 664 c 128
 662.666666667 636 664 615 666 601 c 128
 668 587 670.5 568.833333333 673.5 546.5 c 128
 676.5 524.166666667 680.5 504.333333333 685.5 487 c 128
 690.5 469.666666667 696.333333333 453.333333333 703 438 c 1
 901 1294 l 1
 887.666666667 1295.33333333 877.666666667 1296 871 1296 c 0
871 319 m 0
 897 319 920.333333333 323.333333333 941 332 c 128
 961.666666667 340.666666667 979.166666667 352.666666667 993.5 368 c 128
 1007.83333333 383.333333333 1020.33333333 401.333333333 1031 422 c 128
 1041.66666667 442.666666667 1050 465.166666667 1056 489.5 c 128
 1062 513.833333333 1067 539 1071 565 c 128
 1075 591 1077.5 617.166666667 1078.5 643.5 c 128
 1079.5 669.833333333 1080.33333333 695.666666667 1081 721 c 128
 1081.66666667 746.333333333 1081.66666667 770.333333333 1081 793 c 0
 1081 813 1081 813 1081 823 c 0
 1081 827.666666667 1081.16666667 842.333333333 1081.5 867 c 128
 1081.83333333 891.666666667 1081.83333333 909.333333333 1081.5 920 c 128
 1081.16666667 930.666666667 1080.66666667 947.833333333 1080 971.5 c 128
 1079.33333333 995.166666667 1078 1014.5 1076 1029.5 c 128
 1074 1044.5 1071.5 1062 1068.5 1082 c 128
 1065.5 1102 1061.5 1120.5 1056.5 1137.5 c 128
 1051.5 1154.5 1045.66666667 1170.33333333 1039 1185 c 1
 845 320 l 1
 850.333333333 319.333333333 859 319 871 319 c 0
EndSplineSet
EndChar

StartChar: Ugrave
Encoding: 217 217 155
Width: 1683
GlyphClass: 2
Flags: HW
LayerCount: 2
Fore
SplineSet
1485 1270 m 1
 1639 1270 l 1
 1639 1622 l 1
 985 1622 l 1
 985 1270 l 1
 1149 1270 l 1
 1149 536 l 2
 1149 477.333333333 1131.66666667 431 1097 397 c 128
 1062.33333333 363 1014.33333333 346 953 346 c 0
 918.333333333 346 888.166666667 353.333333333 862.5 368 c 128
 836.833333333 382.666666667 817.166666667 402.5 803.5 427.5 c 128
 789.833333333 452.5 779.833333333 479.333333333 773.5 508 c 128
 767.166666667 536.666666667 764 567.333333333 764 600 c 2
 764 1270 l 1
 912 1270 l 1
 912 1622 l 1
 43 1622 l 1
 43 1270 l 1
 204 1270 l 1
 204 704 l 2
 204 645.333333333 206.5 591 211.5 541 c 128
 216.5 491 225.5 440.666666667 238.5 390 c 128
 251.5 339.333333333 268.333333333 293.666666667 289 253 c 128
 309.666666667 212.333333333 336.333333333 174 369 138 c 128
 401.666666667 102 439.5 72 482.5 48 c 128
 525.5 24 576.666666667 5.16666666667 636 -8.5 c 128
 695.333333333 -22.1666666667 761.333333333 -29 834 -29 c 0
 948 -29 1054.33333333 -6.33333333333 1153 39 c 128
 1251.66666667 84.3333333333 1331.66666667 149.5 1393 234.5 c 128
 1454.33333333 319.5 1485 414.666666667 1485 520 c 2
 1485 1270 l 1
696 2270 m 1
 1170 1833 l 1
 1066 1692 l 1
 512 2005 l 1
 696 2270 l 1
EndSplineSet
EndChar

StartChar: Uacute
Encoding: 218 218 156
Width: 1683
GlyphClass: 2
Flags: HW
LayerCount: 2
Fore
SplineSet
1485 520 m 2
 1485 414.666666667 1454.33333333 319.5 1393 234.5 c 128
 1331.66666667 149.5 1251.66666667 84.3333333333 1153 39 c 128
 1054.33333333 -6.33333333333 948 -29 834 -29 c 0
 761.333333333 -29 695.333333333 -22.1666666667 636 -8.5 c 128
 576.666666667 5.16666666667 525.5 24 482.5 48 c 128
 439.5 72 401.666666667 102 369 138 c 128
 336.333333333 174 309.666666667 212.333333333 289 253 c 128
 268.333333333 293.666666667 251.5 339.333333333 238.5 390 c 128
 225.5 440.666666667 216.5 491 211.5 541 c 128
 206.5 591 204 645.333333333 204 704 c 2
 204 1270 l 1
 43 1270 l 1
 43 1622 l 1
 912 1622 l 1
 912 1270 l 1
 764 1270 l 1
 764 600 l 2
 764 567.333333333 767.166666667 536.666666667 773.5 508 c 128
 779.833333333 479.333333333 789.833333333 452.5 803.5 427.5 c 128
 817.166666667 402.5 836.833333333 382.666666667 862.5 368 c 128
 888.166666667 353.333333333 918.333333333 346 953 346 c 0
 1014.33333333 346 1062.33333333 363 1097 397 c 128
 1131.66666667 431 1149 477.333333333 1149 536 c 2
 1149 1270 l 1
 985 1270 l 1
 985 1622 l 1
 1639 1622 l 1
 1639 1270 l 1
 1485 1270 l 1
 1485 520 l 2
1170 2005 m 1
 616 1692 l 1
 512 1833 l 1
 986 2270 l 1
 1170 2005 l 1
EndSplineSet
EndChar

StartChar: Ucircumflex
Encoding: 219 219 157
Width: 1683
GlyphClass: 2
Flags: HW
LayerCount: 2
Fore
SplineSet
1485 520 m 2
 1485 414.666666667 1454.33333333 319.5 1393 234.5 c 128
 1331.66666667 149.5 1251.66666667 84.3333333333 1153 39 c 128
 1054.33333333 -6.33333333333 948 -29 834 -29 c 0
 761.333333333 -29 695.333333333 -22.1666666667 636 -8.5 c 128
 576.666666667 5.16666666667 525.5 24 482.5 48 c 128
 439.5 72 401.666666667 102 369 138 c 128
 336.333333333 174 309.666666667 212.333333333 289 253 c 128
 268.333333333 293.666666667 251.5 339.333333333 238.5 390 c 128
 225.5 440.666666667 216.5 491 211.5 541 c 128
 206.5 591 204 645.333333333 204 704 c 2
 204 1270 l 1
 43 1270 l 1
 43 1622 l 1
 912 1622 l 1
 912 1270 l 1
 764 1270 l 1
 764 600 l 2
 764 567.333333333 767.166666667 536.666666667 773.5 508 c 128
 779.833333333 479.333333333 789.833333333 452.5 803.5 427.5 c 128
 817.166666667 402.5 836.833333333 382.666666667 862.5 368 c 128
 888.166666667 353.333333333 918.333333333 346 953 346 c 0
 1014.33333333 346 1062.33333333 363 1097 397 c 128
 1131.66666667 431 1149 477.333333333 1149 536 c 2
 1149 1270 l 1
 985 1270 l 1
 985 1622 l 1
 1639 1622 l 1
 1639 1270 l 1
 1485 1270 l 1
 1485 520 l 2
976 2162 m 1
 1250 1786 l 1
 1096 1685 l 1
 841 1930 l 1
 586 1685 l 1
 432 1786 l 1
 705 2163 l 1
 976 2162 l 1
EndSplineSet
EndChar

StartChar: Udieresis
Encoding: 220 220 158
Width: 1683
GlyphClass: 2
Flags: HW
LayerCount: 2
Fore
SplineSet
1485 1270 m 1
 1639 1270 l 1
 1639 1622 l 1
 985 1622 l 1
 985 1270 l 1
 1149 1270 l 1
 1149 536 l 2
 1149 477.333333333 1131.66666667 431 1097 397 c 128
 1062.33333333 363 1014.33333333 346 953 346 c 0
 918.333333333 346 888.166666667 353.333333333 862.5 368 c 128
 836.833333333 382.666666667 817.166666667 402.5 803.5 427.5 c 128
 789.833333333 452.5 779.833333333 479.333333333 773.5 508 c 128
 767.166666667 536.666666667 764 567.333333333 764 600 c 2
 764 1270 l 1
 912 1270 l 1
 912 1622 l 1
 43 1622 l 1
 43 1270 l 1
 204 1270 l 1
 204 704 l 2
 204 645.333333333 206.5 591 211.5 541 c 128
 216.5 491 225.5 440.666666667 238.5 390 c 128
 251.5 339.333333333 268.333333333 293.666666667 289 253 c 128
 309.666666667 212.333333333 336.333333333 174 369 138 c 128
 401.666666667 102 439.5 72 482.5 48 c 128
 525.5 24 576.666666667 5.16666666667 636 -8.5 c 128
 695.333333333 -22.1666666667 761.333333333 -29 834 -29 c 0
 948 -29 1054.33333333 -6.33333333333 1153 39 c 128
 1251.66666667 84.3333333333 1331.66666667 149.5 1393 234.5 c 128
 1454.33333333 319.5 1485 414.666666667 1485 520 c 2
 1485 1270 l 1
758 1904 m 0
 758 1832 735.833333333 1775.66666667 691.5 1735 c 128
 647.166666667 1694.33333333 594.666666667 1674 534 1674 c 0
 472 1674 418.5 1694.5 373.5 1735.5 c 128
 328.5 1776.5 306 1833.66666667 306 1907 c 0
 306 1978.33333333 328.333333333 2034 373 2074 c 128
 417.666666667 2114 470.666666667 2134 532 2134 c 128
 593.333333333 2134 646.333333333 2113.83333333 691 2073.5 c 128
 735.666666667 2033.16666667 758 1976.66666667 758 1904 c 0
1375 1904 m 0
 1375 1832 1352.83333333 1775.66666667 1308.5 1735 c 128
 1264.16666667 1694.33333333 1211.66666667 1674 1151 1674 c 0
 1089 1674 1035.5 1694.5 990.5 1735.5 c 128
 945.5 1776.5 923 1833.66666667 923 1907 c 0
 923 1978.33333333 945.333333333 2034 990 2074 c 128
 1034.66666667 2114 1087.66666667 2134 1149 2134 c 128
 1210.33333333 2134 1263.33333333 2113.83333333 1308 2073.5 c 128
 1352.66666667 2033.16666667 1375 1976.66666667 1375 1904 c 0
EndSplineSet
EndChar

StartChar: Yacute
Encoding: 221 221 159
Width: 1559
GlyphClass: 2
Flags: HW
LayerCount: 2
Fore
SplineSet
1564 1270 m 1
 1490 1270 l 2
 1466.66666667 1270 1446.16666667 1267.33333333 1428.5 1262 c 128
 1410.83333333 1256.66666667 1396 1250.5 1384 1243.5 c 128
 1372 1236.5 1359.33333333 1224 1346 1206 c 128
 1332.66666667 1188 1322.16666667 1172.5 1314.5 1159.5 c 128
 1306.83333333 1146.5 1295 1125 1279 1095 c 2
 1075 724 l 1
 1075 359 l 1
 1232 359 l 1
 1232 0 l 1
 363 0 l 1
 363 359 l 1
 518 359 l 1
 518 672 l 1
 97 1270 l 1
 -15 1270 l 1
 -15 1622 l 1
 837 1622 l 1
 837 1270 l 1
 746 1270 l 1
 760.666666667 1250 791.5 1203.83333333 838.5 1131.5 c 128
 885.5 1059.16666667 916 1013 930 993 c 1
 1006 1108.33333333 1044 1184.33333333 1044 1221 c 0
 1044 1227 1043.5 1232.5 1042.5 1237.5 c 128
 1041.5 1242.5 1039.66666667 1246.66666667 1037 1250 c 128
 1034.33333333 1253.33333333 1031.83333333 1256.33333333 1029.5 1259 c 128
 1027.16666667 1261.66666667 1023.5 1263.66666667 1018.5 1265 c 128
 1013.5 1266.33333333 1009.16666667 1267.5 1005.5 1268.5 c 128
 1001.83333333 1269.5 996.333333333 1270 989 1270 c 128
 978 1270 978 1270 971 1270 c 128
 964 1270 964 1270 949.5 1270 c 128
 935 1270 935 1270 927 1270 c 1
 927 1622 l 1
 1564 1622 l 1
 1564 1270 l 1
1106 2005 m 1
 552 1692 l 1
 448 1833 l 1
 922 2270 l 1
 1106 2005 l 1
EndSplineSet
EndChar

StartChar: Thorn
Encoding: 222 222 160
Width: 1638
GlyphClass: 2
Flags: HW
LayerCount: 2
Fore
SplineSet
90 363 m 1
 246 363 l 1
 246 1488 l 1
 95 1488 l 1
 95 1843 l 1
 805 1843 l 1
 804 1543 l 1
 853.333333333 1543 897.333333333 1542.66666667 936 1542 c 128
 974.666666667 1541.33333333 1017.66666667 1539.16666667 1065 1535.5 c 128
 1112.33333333 1531.83333333 1154.16666667 1526.66666667 1190.5 1520 c 128
 1226.83333333 1513.33333333 1264.83333333 1504 1304.5 1492 c 128
 1344.16666667 1480 1378.5 1465.83333333 1407.5 1449.5 c 128
 1436.5 1433.16666667 1464.66666667 1412.83333333 1492 1388.5 c 128
 1519.33333333 1364.16666667 1541.5 1336.83333333 1558.5 1306.5 c 128
 1575.5 1276.16666667 1589.16666667 1240.66666667 1599.5 1200 c 128
 1609.83333333 1159.33333333 1615 1114.66666667 1615 1066 c 0
 1615 976.666666667 1599.33333333 899.166666667 1568 833.5 c 128
 1536.66666667 767.833333333 1491.5 715.166666667 1432.5 675.5 c 128
 1373.5 635.833333333 1304.5 606.5 1225.5 587.5 c 128
 1146.5 568.5 1056.33333333 559 955 559 c 0
 907.666666667 559 857.666666667 562.333333333 805 569 c 1
 805 363 l 1
 951 363 l 1
 951 0 l 1
 90 0 l 1
 90 363 l 1
805 895 m 1
 866 895 l 2
 939.333333333 895 995.5 907.5 1034.5 932.5 c 128
 1073.5 957.5 1093 998.666666667 1093 1056 c 0
 1093 1106.66666667 1075.16666667 1144.66666667 1039.5 1170 c 128
 1003.83333333 1195.33333333 960.333333333 1208 909 1208 c 2
 805 1208 l 1
 805 895 l 1
EndSplineSet
EndChar

StartChar: germandbls
Encoding: 223 223 161
Width: 1633
GlyphClass: 2
Flags: HW
LayerCount: 2
Fore
SplineSet
803 1623 m 0
 889 1623 967.5 1615.83333333 1038.5 1601.5 c 128
 1109.5 1587.16666667 1169.16666667 1567.83333333 1217.5 1543.5 c 128
 1265.83333333 1519.16666667 1306.33333333 1490.33333333 1339 1457 c 128
 1371.66666667 1423.66666667 1395.5 1388.5 1410.5 1351.5 c 128
 1425.5 1314.5 1433 1276 1433 1236 c 0
 1433 1172 1413 1109.66666667 1373 1049 c 128
 1333 988.333333333 1277.66666667 938 1207 898 c 1
 1334.33333333 857.333333333 1433.16666667 793.666666667 1503.5 707 c 128
 1573.83333333 620.333333333 1609 527.666666667 1609 429 c 0
 1609 369.666666667 1595.83333333 313.5 1569.5 260.5 c 128
 1543.16666667 207.5 1504.83333333 160.166666667 1454.5 118.5 c 128
 1404.16666667 76.8333333333 1338.33333333 43.6666666667 1257 19 c 128
 1175.66666667 -5.66666666667 1083.66666667 -18 981 -18 c 1
 980 349 l 1
 1076.66666667 403.666666667 1125 465 1125 533 c 0
 1125 594.333333333 1094.66666667 645.833333333 1034 687.5 c 128
 973.333333333 729.166666667 884.666666667 750 768 750 c 1
 765 901 l 1
 823.666666667 901 874.166666667 925 916.5 973 c 128
 958.833333333 1021 980 1071.33333333 980 1124 c 0
 980 1169.33333333 968 1205.83333333 944 1233.5 c 128
 920 1261.16666667 883.333333333 1275 834 1275 c 0
 793.333333333 1275 759.666666667 1263.5 733 1240.5 c 128
 706.333333333 1217.5 693 1181 693 1131 c 2
 694 349 l 1
 778 349 828.333333333 349.333333333 845 350 c 1
 845 0 l 1
 -6 0 l 1
 -6 369 l 1
 166 369 l 1
 166 1092 l 2
 166 1172 175.833333333 1242.33333333 195.5 1303 c 128
 215.166666667 1363.66666667 242.833333333 1414.16666667 278.5 1454.5 c 128
 314.166666667 1494.83333333 359 1527.66666667 413 1553 c 128
 467 1578.33333333 525.5 1596.33333333 588.5 1607 c 128
 651.5 1617.66666667 723 1623 803 1623 c 0
EndSplineSet
EndChar

StartChar: agrave
Encoding: 224 224 162
Width: 1294
GlyphClass: 2
Flags: HW
LayerCount: 2
Fore
SplineSet
30 308 m 0
 30 208.666666667 67.8333333333 129.5 143.5 70.5 c 128
 219.166666667 11.5 311 -18 419 -18 c 0
 473.666666667 -18 530 -6 588 18 c 128
 646 42 691.666666667 75.6666666667 725 119 c 1
 775 0 l 1
 1247 0 l 1
 1247 305 l 1
 1171 305 l 1
 1171 750 l 2
 1171 796 1162.5 837.5 1145.5 874.5 c 128
 1128.5 911.5 1107.5 941.666666667 1082.5 965 c 128
 1057.5 988.333333333 1026.16666667 1008.5 988.5 1025.5 c 128
 950.833333333 1042.5 915.833333333 1055.16666667 883.5 1063.5 c 128
 851.166666667 1071.83333333 814.166666667 1078.33333333 772.5 1083 c 128
 730.833333333 1087.66666667 699 1090.33333333 677 1091 c 128
 655 1091.66666667 630.333333333 1092 603 1092 c 0
 531.666666667 1092 455.666666667 1086.16666667 375 1074.5 c 128
 294.333333333 1062.83333333 231.666666667 1051.33333333 187 1040 c 2
 120 1022 l 1
 120 708 l 1
 295 708 l 1
 343 771.333333333 414.666666667 803 510 803 c 0
 650.666666667 803 721 747.666666667 721 637 c 2
 721 592 l 1
 647.666666667 617.333333333 562.333333333 630 465 630 c 0
 409.666666667 630 356.5 623.166666667 305.5 609.5 c 128
 254.5 595.833333333 208.333333333 576 167 550 c 128
 125.666666667 524 92.5 490 67.5 448 c 128
 42.5 406 30 359.333333333 30 308 c 0
520 326 m 0
 520 354.666666667 530.333333333 380.5 551 403.5 c 128
 571.666666667 426.5 596.333333333 438 625 438 c 0
 639.666666667 438 655.166666667 436.333333333 671.5 433 c 128
 687.833333333 429.666666667 700.666666667 426 710 422 c 2
 724 417 l 1
 724 270 l 1
 721.333333333 266.666666667 717.333333333 262.5 712 257.5 c 128
 706.666666667 252.5 694.666666667 245.666666667 676 237 c 128
 657.333333333 228.333333333 637.333333333 224 616 224 c 0
 586.666666667 224 563.333333333 233.5 546 252.5 c 128
 528.666666667 271.5 520 296 520 326 c 0
496 1708 m 1
 970 1271 l 1
 866 1130 l 1
 312 1443 l 1
 496 1708 l 1
EndSplineSet
EndChar

StartChar: aacute
Encoding: 225 225 163
Width: 1294
GlyphClass: 2
Flags: HW
LayerCount: 2
Fore
SplineSet
30 308 m 0
 30 359.333333333 42.5 406 67.5 448 c 128
 92.5 490 125.666666667 524 167 550 c 128
 208.333333333 576 254.5 595.833333333 305.5 609.5 c 128
 356.5 623.166666667 409.666666667 630 465 630 c 0
 562.333333333 630 647.666666667 617.333333333 721 592 c 1
 721 637 l 2
 721 747.666666667 650.666666667 803 510 803 c 0
 414.666666667 803 343 771.333333333 295 708 c 1
 120 708 l 1
 120 1022 l 1
 187 1040 l 2
 231.666666667 1051.33333333 294.333333333 1062.83333333 375 1074.5 c 128
 455.666666667 1086.16666667 531.666666667 1092 603 1092 c 0
 630.333333333 1092 655 1091.66666667 677 1091 c 128
 699 1090.33333333 730.833333333 1087.66666667 772.5 1083 c 128
 814.166666667 1078.33333333 851.166666667 1071.83333333 883.5 1063.5 c 128
 915.833333333 1055.16666667 950.833333333 1042.5 988.5 1025.5 c 128
 1026.16666667 1008.5 1057.5 988.333333333 1082.5 965 c 128
 1107.5 941.666666667 1128.5 911.5 1145.5 874.5 c 128
 1162.5 837.5 1171 796 1171 750 c 2
 1171 305 l 1
 1247 305 l 1
 1247 0 l 1
 775 0 l 1
 725 119 l 1
 691.666666667 75.6666666667 646 42 588 18 c 128
 530 -6 473.666666667 -18 419 -18 c 0
 311 -18 219.166666667 11.5 143.5 70.5 c 128
 67.8333333333 129.5 30 208.666666667 30 308 c 0
520 326 m 0
 520 296 528.666666667 271.5 546 252.5 c 128
 563.333333333 233.5 586.666666667 224 616 224 c 0
 637.333333333 224 657.333333333 228.333333333 676 237 c 128
 694.666666667 245.666666667 706.666666667 252.5 712 257.5 c 128
 717.333333333 262.5 721.333333333 266.666666667 724 270 c 1
 724 417 l 1
 710 422 l 2
 700.666666667 426 687.833333333 429.666666667 671.5 433 c 128
 655.166666667 436.333333333 639.666666667 438 625 438 c 0
 596.333333333 438 571.666666667 426.5 551 403.5 c 128
 530.333333333 380.5 520 354.666666667 520 326 c 0
1092 1443 m 1
 538 1130 l 1
 434 1271 l 1
 908 1708 l 1
 1092 1443 l 1
EndSplineSet
EndChar

StartChar: acircumflex
Encoding: 226 226 164
Width: 1294
GlyphClass: 2
Flags: HW
LayerCount: 2
Fore
SplineSet
30 308 m 0
 30 359.333333333 42.5 406 67.5 448 c 128
 92.5 490 125.666666667 524 167 550 c 128
 208.333333333 576 254.5 595.833333333 305.5 609.5 c 128
 356.5 623.166666667 409.666666667 630 465 630 c 0
 562.333333333 630 647.666666667 617.333333333 721 592 c 1
 721 637 l 2
 721 747.666666667 650.666666667 803 510 803 c 0
 414.666666667 803 343 771.333333333 295 708 c 1
 120 708 l 1
 120 1022 l 1
 187 1040 l 2
 231.666666667 1051.33333333 294.333333333 1062.83333333 375 1074.5 c 128
 455.666666667 1086.16666667 531.666666667 1092 603 1092 c 0
 630.333333333 1092 655 1091.66666667 677 1091 c 128
 699 1090.33333333 730.833333333 1087.66666667 772.5 1083 c 128
 814.166666667 1078.33333333 851.166666667 1071.83333333 883.5 1063.5 c 128
 915.833333333 1055.16666667 950.833333333 1042.5 988.5 1025.5 c 128
 1026.16666667 1008.5 1057.5 988.333333333 1082.5 965 c 128
 1107.5 941.666666667 1128.5 911.5 1145.5 874.5 c 128
 1162.5 837.5 1171 796 1171 750 c 2
 1171 305 l 1
 1247 305 l 1
 1247 0 l 1
 775 0 l 1
 725 119 l 1
 691.666666667 75.6666666667 646 42 588 18 c 128
 530 -6 473.666666667 -18 419 -18 c 0
 311 -18 219.166666667 11.5 143.5 70.5 c 128
 67.8333333333 129.5 30 208.666666667 30 308 c 0
520 326 m 0
 520 296 528.666666667 271.5 546 252.5 c 128
 563.333333333 233.5 586.666666667 224 616 224 c 0
 637.333333333 224 657.333333333 228.333333333 676 237 c 128
 694.666666667 245.666666667 706.666666667 252.5 712 257.5 c 128
 717.333333333 262.5 721.333333333 266.666666667 724 270 c 1
 724 417 l 1
 710 422 l 2
 700.666666667 426 687.833333333 429.666666667 671.5 433 c 128
 655.166666667 436.333333333 639.666666667 438 625 438 c 0
 596.333333333 438 571.666666667 426.5 551 403.5 c 128
 530.333333333 380.5 520 354.666666667 520 326 c 0
776 1600 m 1
 1050 1224 l 1
 896 1123 l 1
 641 1368 l 1
 386 1123 l 1
 232 1224 l 1
 505 1601 l 1
 776 1600 l 1
EndSplineSet
EndChar

